<svg xmlns="http://www.w3.org/2000/svg" viewBox="0 0 200 200"><rect width="200" height="200" rx="44.00" fill="#142430"/><g transform="translate(50.59,129.02) scale(0.08197,-0.08197)"><path fill="#4a7fb5" transform="translate(0,0)" d="M235.758544921875 -12Q173.586181640625 -12 132.2930908203125 8.6207275390625Q91 29.241455078125 71.2930908203125 63.8621826171875Q51.586181640625 98.48291015625 51.586181640625 140.48291015625Q51.586181640625 186.207275390625 75.1552734375 221.4141845703125Q98.724365234375 256.62109375 146.63818359375 276.29345703125Q194.552001953125 295.9658203125 267 295.9658203125H390.62109375Q390.62109375 333.000732421875 380.810546875 357.466552734375Q371 381.932373046875 350.2410888671875 394.1221923828125Q329.482177734375 406.31201171875 294.343994140625 406.31201171875Q256.30908203125 406.31201171875 229.8087158203125 389.6392822265625Q203.308349609375 372.966552734375 197.06689453125 338.862548828125H65.930908203125Q71.3447265625 393.44873046875 101.5516357421875 432.5865478515625Q131.758544921875 471.724365234375 182.275634765625 493.8621826171875Q232.792724609375 516 294.93017578125 516Q366.688720703125 516 418.46435546875 492.258544921875Q470.239990234375 468.51708984375 497.929443359375 423.3101806640625Q525.618896484375 378.103271484375 525.618896484375 312V0H411.930908203125L396.9658203125 76.690185546875Q386.379638671875 57.44873046875 371.1727294921875 41.29345703125Q355.9658203125 25.13818359375 335.8450927734375 13.1036376953125Q315.724365234375 1.069091796875 290.98291015625 -5.4654541015625Q266.241455078125 -12 235.758544921875 -12ZM268.1025390625 92.412353515625Q293.7236328125 92.412353515625 314.3101806640625 101.63671875Q334.896728515625 110.861083984375 349.62109375 127.8614501953125Q364.345458984375 144.86181640625 373.3800048828125 166.1898193359375Q382.41455078125 187.517822265625 385.345458984375 212.138916015625V213.38037109375H282.20654296875Q251.378173828125 213.38037109375 231.6363525390625 205.6905517578125Q211.89453125 198.000732421875 202.997802734375 183.94873046875Q194.10107421875 169.896728515625 194.10107421875 152.103271484375Q194.10107421875 132.7236328125 203.3770751953125 119.4647216796875Q212.653076171875 106.205810546875 229.53271484375 99.30908203125Q246.412353515625 92.412353515625 268.1025390625 92.412353515625Z"/><path fill="#4a7fb5" transform="translate(566,0)" d="M289.6552734375 -12Q220.758544921875 -12 166.3447265625 22.2069091796875Q111.930908203125 56.413818359375 81.3447265625 116.1207275390625Q50.758544921875 175.82763671875 50.758544921875 251.82763671875Q50.758544921875 327.82763671875 81.6378173828125 387.913818359375Q112.51708984375 448 168.01708984375 482.0Q223.51708984375 516 293 516Q347.9658203125 516 388.3109130859375 495.9825439453125Q428.656005859375 475.965087890625 453.06982421875 439.7578125V720H588.067626953125V0H468.10400390625L454.06982421875 70.10400390625Q438.656005859375 47.44873046875 416.2938232421875 28.879638671875Q393.931640625 10.310546875 362.7418212890625 -0.8447265625Q331.552001953125 -12 289.6552734375 -12ZM322.516357421875 105.5498046875Q362.55126953125 105.5498046875 392.6378173828125 124.5672607421875Q422.724365234375 143.584716796875 439.9141845703125 176.11962890625Q457.10400390625 208.654541015625 457.10400390625 252Q457.10400390625 294.931640625 439.9141845703125 327.966552734375Q422.724365234375 361.00146484375 392.3447265625 379.725830078125Q361.965087890625 398.4501953125 321.93017578125 398.4501953125Q282.895263671875 398.4501953125 252.2225341796875 379.725830078125Q221.5498046875 361.00146484375 204.653076171875 327.966552734375Q187.75634765625 294.931640625 187.75634765625 252.586181640625Q187.75634765625 209.24072265625 204.653076171875 176.4127197265625Q221.5498046875 143.584716796875 252.2225341796875 124.5672607421875Q282.895263671875 105.5498046875 322.516357421875 105.5498046875Z"/></g></svg>