<svg width="15" height="15" viewBox="0 0 15 15" fill="none" xmlns="http://www.w3.org/2000/svg">
<path fill-rule="evenodd" clip-rule="evenodd" d="M14.7486 6.00687L10.9079 9.84757L12.5301 11.4698L11.4696 12.5303L9.84738 10.9081L9.62088 11.1346C8.4494 12.306 6.55041 12.306 5.37893 11.1346L5.15243 10.9081L3.53021 12.5303L2.46972 11.4698L4.09194 9.84757L0.25124 6.00687L0.219747 6.0376C0.0787485 6.1786 0 6.3691 0 6.56785V12C0 13.6568 1.34323 15 2.99996 15H11.9998C13.6566 15 14.9998 13.6568 14.9998 12C14.9998 9.33457 14.9998 6.56785 14.9998 6.56785C14.9998 6.3691 14.9211 6.1786 14.7801 6.0376L14.7486 6.00687ZM1.31173 4.94562L6.43942 10.0733C7.02516 10.6591 7.97465 10.6591 8.56039 10.0733L13.6881 4.94562L9.62088 0.879176C8.4494 -0.293059 6.55041 -0.293059 5.37893 0.879176L1.31173 4.94562Z" fill="#705FFF"/>
</svg>
