<svg width="1920" height="560" viewBox="0 0 1920 560" fill="none" xmlns="http://www.w3.org/2000/svg">
<g opacity="0.3">
<path d="M1961 76.8678C1860.38 73.8799 1662.16 99.3077 1674.26 224.922C1689.38 381.939 1658.64 525.047 1268.59 405.43C878.539 285.812 775.232 400.793 691.074 436.029C606.916 471.266 70.7247 525.047 254.662 194.322C438.6 -136.404 -51.2285 13.8136 -51.2285 224.922" stroke="url(#paint0_linear_1069_1003)"/>
<path d="M1951.31 85.2301C1850.69 82.2422 1652.47 107.67 1664.57 233.284C1679.68 390.301 1648.94 533.409 1258.89 413.792C868.846 294.174 765.538 409.156 681.38 444.392C597.223 479.628 61.0314 533.409 244.969 202.684C428.907 -128.042 -60.9219 22.1759 -60.9219 233.284" stroke="url(#paint1_linear_1069_1003)"/>
<path d="M1961 93.5914C1860.38 90.6035 1662.16 116.031 1674.26 241.645C1689.38 398.662 1658.64 541.771 1268.59 422.153C878.539 302.536 775.232 417.517 691.074 452.753C606.916 487.989 70.7247 541.771 254.662 211.045C438.6 -119.68 -51.2285 30.5373 -51.2285 241.645" stroke="url(#paint2_linear_1069_1003)"/>
<path d="M1941.61 93.5914C1840.99 90.6035 1642.78 116.031 1654.87 241.645C1669.99 398.662 1639.25 541.771 1249.2 422.153C859.152 302.536 755.845 417.517 671.687 452.753C587.529 487.989 51.338 541.771 235.276 211.045C419.214 -119.68 -70.6152 30.5373 -70.6152 241.645" stroke="url(#paint3_linear_1069_1003)"/>
<path d="M1922.23 93.5914C1821.61 90.6035 1623.39 116.031 1635.49 241.645C1650.61 398.662 1619.87 541.771 1229.82 422.153C839.768 302.536 736.46 417.517 652.302 452.753C568.144 487.989 31.9532 541.771 215.891 211.045C399.829 -119.68 -90 30.5373 -90 241.645" stroke="url(#paint4_linear_1069_1003)"/>
<path d="M1922.23 110.315C1821.61 107.327 1623.39 132.755 1635.49 258.369C1650.61 415.386 1619.87 558.494 1229.82 438.877C839.768 319.259 736.46 434.241 652.302 469.477C568.144 504.713 31.9532 558.494 215.891 227.769C399.829 -102.957 -90 47.2609 -90 258.369" stroke="url(#paint5_linear_1069_1003)"/>
<path d="M1922.23 127.039C1821.61 124.051 1623.39 149.479 1635.49 275.092C1650.61 432.11 1619.87 575.218 1229.82 455.6C839.768 335.983 736.46 450.964 652.302 486.2C568.144 521.436 31.9532 575.218 215.891 244.493C399.829 -86.2329 -90 63.9845 -90 275.092" stroke="url(#paint6_linear_1069_1003)"/>
<path d="M1951.31 127.039C1850.69 124.051 1652.47 149.479 1664.57 275.092C1679.68 432.11 1648.94 575.218 1258.89 455.6C868.846 335.983 765.538 450.964 681.38 486.2C597.223 521.436 61.0314 575.218 244.969 244.493C428.907 -86.2329 -60.9219 63.9845 -60.9219 275.092" stroke="url(#paint7_linear_1069_1003)"/>
<path d="M1961 122.858C1860.38 119.87 1662.16 145.298 1674.26 270.912C1689.38 427.929 1658.64 571.037 1268.59 451.42C878.539 331.802 775.232 446.783 691.074 482.02C606.916 517.256 70.7247 571.037 254.662 240.312C438.6 -90.4136 -51.2285 59.8039 -51.2285 270.912" stroke="url(#paint8_linear_1069_1003)"/>
<path d="M1951.31 131.219C1850.69 128.231 1652.47 153.659 1664.57 279.273C1679.68 436.29 1648.94 579.399 1258.89 459.781C868.846 340.164 765.538 455.145 681.38 490.381C597.223 525.617 61.0314 579.399 244.969 248.673C428.907 -82.0523 -60.9219 68.1652 -60.9219 279.273" stroke="url(#paint9_linear_1069_1003)"/>
<path d="M1961 139.581C1860.38 136.593 1662.16 162.021 1674.26 287.634C1689.38 444.652 1658.64 587.76 1268.59 468.142C878.539 348.525 775.232 463.506 691.074 498.742C606.916 533.978 70.7247 587.76 254.662 257.035C438.6 -73.6909 -51.2285 76.5265 -51.2285 287.634" stroke="url(#paint10_linear_1069_1003)"/>
<path d="M1941.61 139.581C1840.99 136.593 1642.78 162.021 1654.87 287.634C1669.99 444.652 1639.25 587.76 1249.2 468.142C859.152 348.525 755.845 463.506 671.687 498.742C587.529 533.978 51.338 587.76 235.276 257.035C419.214 -73.6909 -70.6152 76.5265 -70.6152 287.634" stroke="url(#paint11_linear_1069_1003)"/>
<path d="M1922.23 139.581C1821.61 136.593 1623.39 162.021 1635.49 287.634C1650.61 444.652 1619.87 587.76 1229.82 468.142C839.768 348.525 736.46 463.506 652.302 498.742C568.144 533.978 31.9532 587.76 215.891 257.035C399.829 -73.6909 -90 76.5265 -90 287.634" stroke="url(#paint12_linear_1069_1003)"/>
<path d="M1922.23 156.305C1821.61 153.317 1623.39 178.745 1635.49 304.359C1650.61 461.376 1619.87 604.485 1229.82 484.867C839.768 365.25 736.46 480.231 652.302 515.467C568.144 550.703 31.9532 604.485 215.891 273.759C399.829 -56.9663 -90 93.2511 -90 304.359" stroke="url(#paint13_linear_1069_1003)"/>
<path d="M1922.23 173.028C1821.61 170.04 1623.39 195.468 1635.49 321.082C1650.61 478.099 1619.87 621.207 1229.82 501.59C839.768 381.972 736.46 496.953 652.302 532.19C568.144 567.426 31.9532 621.207 215.891 290.482C399.829 -40.2437 -90 109.974 -90 321.082" stroke="url(#paint14_linear_1069_1003)"/>
<path d="M1951.31 173.028C1850.69 170.04 1652.47 195.468 1664.57 321.082C1679.68 478.099 1648.94 621.207 1258.89 501.59C868.846 381.972 765.538 496.953 681.38 532.19C597.223 567.426 61.0314 621.207 244.969 290.482C428.907 -40.2437 -60.9219 109.974 -60.9219 321.082" stroke="url(#paint15_linear_1069_1003)"/>
</g>
<defs>
<linearGradient id="paint0_linear_1069_1003" x1="954.886" y1="1" x2="954.886" y2="462.57" gradientUnits="userSpaceOnUse">
<stop stop-color="#A9A9FA"/>
<stop offset="1" stop-color="#E3F7FA"/>
</linearGradient>
<linearGradient id="paint1_linear_1069_1003" x1="945.193" y1="9.3623" x2="945.193" y2="470.932" gradientUnits="userSpaceOnUse">
<stop stop-color="#A9A9FA"/>
<stop offset="1" stop-color="#E3F7FA"/>
</linearGradient>
<linearGradient id="paint2_linear_1069_1003" x1="954.886" y1="17.7236" x2="954.886" y2="479.294" gradientUnits="userSpaceOnUse">
<stop stop-color="#A9A9FA"/>
<stop offset="1" stop-color="#E3F7FA"/>
</linearGradient>
<linearGradient id="paint3_linear_1069_1003" x1="935.499" y1="17.7236" x2="935.499" y2="479.294" gradientUnits="userSpaceOnUse">
<stop stop-color="#A9A9FA"/>
<stop offset="1" stop-color="#E3F7FA"/>
</linearGradient>
<linearGradient id="paint4_linear_1069_1003" x1="916.114" y1="17.7236" x2="916.114" y2="479.294" gradientUnits="userSpaceOnUse">
<stop stop-color="#A9A9FA"/>
<stop offset="1" stop-color="#E3F7FA"/>
</linearGradient>
<linearGradient id="paint5_linear_1069_1003" x1="916.114" y1="34.4473" x2="916.114" y2="496.017" gradientUnits="userSpaceOnUse">
<stop stop-color="#A9A9FA"/>
<stop offset="1" stop-color="#E3F7FA"/>
</linearGradient>
<linearGradient id="paint6_linear_1069_1003" x1="916.114" y1="51.1709" x2="916.114" y2="512.741" gradientUnits="userSpaceOnUse">
<stop stop-color="#A9A9FA"/>
<stop offset="1" stop-color="#E3F7FA"/>
</linearGradient>
<linearGradient id="paint7_linear_1069_1003" x1="945.193" y1="51.1709" x2="945.193" y2="512.741" gradientUnits="userSpaceOnUse">
<stop stop-color="#A9A9FA"/>
<stop offset="1" stop-color="#E3F7FA"/>
</linearGradient>
<linearGradient id="paint8_linear_1069_1003" x1="954.886" y1="46.9902" x2="954.886" y2="508.56" gradientUnits="userSpaceOnUse">
<stop stop-color="#A9A9FA"/>
<stop offset="1" stop-color="#E3F7FA"/>
</linearGradient>
<linearGradient id="paint9_linear_1069_1003" x1="945.193" y1="55.3516" x2="945.193" y2="516.922" gradientUnits="userSpaceOnUse">
<stop stop-color="#A9A9FA"/>
<stop offset="1" stop-color="#E3F7FA"/>
</linearGradient>
<linearGradient id="paint10_linear_1069_1003" x1="954.886" y1="63.7129" x2="954.886" y2="525.283" gradientUnits="userSpaceOnUse">
<stop stop-color="#A9A9FA"/>
<stop offset="1" stop-color="#E3F7FA"/>
</linearGradient>
<linearGradient id="paint11_linear_1069_1003" x1="935.499" y1="63.7129" x2="935.499" y2="525.283" gradientUnits="userSpaceOnUse">
<stop stop-color="#A9A9FA"/>
<stop offset="1" stop-color="#E3F7FA"/>
</linearGradient>
<linearGradient id="paint12_linear_1069_1003" x1="916.114" y1="63.7129" x2="916.114" y2="525.283" gradientUnits="userSpaceOnUse">
<stop stop-color="#A9A9FA"/>
<stop offset="1" stop-color="#E3F7FA"/>
</linearGradient>
<linearGradient id="paint13_linear_1069_1003" x1="916.114" y1="80.4375" x2="916.114" y2="542.008" gradientUnits="userSpaceOnUse">
<stop stop-color="#A9A9FA"/>
<stop offset="1" stop-color="#E3F7FA"/>
</linearGradient>
<linearGradient id="paint14_linear_1069_1003" x1="916.114" y1="97.1602" x2="916.114" y2="558.73" gradientUnits="userSpaceOnUse">
<stop stop-color="#A9A9FA"/>
<stop offset="1" stop-color="#E3F7FA"/>
</linearGradient>
<linearGradient id="paint15_linear_1069_1003" x1="945.193" y1="97.1602" x2="945.193" y2="558.73" gradientUnits="userSpaceOnUse">
<stop stop-color="#A9A9FA"/>
<stop offset="1" stop-color="#E3F7FA"/>
</linearGradient>
</defs>
</svg>
