<svg width="1920" height="694" viewBox="0 0 1920 694" fill="none" xmlns="http://www.w3.org/2000/svg">
<g opacity="0.9">
<path d="M2213 95.1619C2090.06 91.4536 1847.87 123.013 1862.65 278.916C1881.12 473.795 1843.56 651.412 1366.98 502.951C890.403 354.489 764.178 497.196 661.35 540.929C558.522 584.662 -96.6193 651.412 128.124 240.938C352.867 -169.536 -245.627 16.9034 -245.627 278.916" stroke="url(#paint0_linear_886_1122)" stroke-opacity="0.2"/>
<path d="M2201.16 105.541C2078.22 101.833 1836.03 133.392 1850.8 289.295C1869.28 484.174 1831.72 661.791 1355.14 513.329C878.559 364.868 752.334 507.575 649.506 551.308C546.678 595.041 -108.463 661.791 116.28 251.317C341.023 -159.157 -257.471 27.2823 -257.471 289.295" stroke="url(#paint1_linear_886_1122)" stroke-opacity="0.2"/>
<path d="M2213 115.918C2090.06 112.209 1847.87 143.769 1862.65 299.672C1881.12 494.551 1843.56 672.168 1366.98 523.706C890.403 375.245 764.178 517.952 661.35 561.685C558.522 605.418 -96.6193 672.168 128.124 261.694C352.867 -148.78 -245.627 37.6593 -245.627 299.672" stroke="url(#paint2_linear_886_1122)" stroke-opacity="0.2"/>
<path d="M2189.31 115.918C2066.37 112.209 1824.18 143.769 1838.96 299.672C1857.43 494.551 1819.87 672.168 1343.29 523.706C866.716 375.245 740.49 517.952 637.662 561.685C534.835 605.418 -120.307 672.168 104.436 261.694C329.179 -148.78 -269.314 37.6593 -269.314 299.672" stroke="url(#paint3_linear_886_1122)" stroke-opacity="0.2"/>
<path d="M2165.63 115.918C2042.69 112.209 1800.5 143.769 1815.27 299.672C1833.75 494.551 1796.19 672.168 1319.61 523.706C843.03 375.245 716.805 517.952 613.977 561.685C511.149 605.418 -143.992 672.168 80.7508 261.694C305.494 -148.78 -293 37.6593 -293 299.672" stroke="url(#paint4_linear_886_1122)" stroke-opacity="0.2"/>
<path d="M2165.63 136.674C2042.69 132.965 1800.5 164.525 1815.27 320.428C1833.75 515.307 1796.19 692.923 1319.61 544.462C843.03 396.001 716.805 538.708 613.977 582.441C511.149 626.173 -143.992 692.923 80.7508 282.449C305.494 -128.025 -293 58.4151 -293 320.428" stroke="url(#paint5_linear_886_1122)" stroke-opacity="0.2"/>
<path d="M2165.63 157.43C2042.69 153.721 1800.5 185.28 1815.27 341.184C1833.75 536.063 1796.19 713.679 1319.61 565.218C843.03 416.757 716.805 559.464 613.977 603.197C511.149 646.929 -143.992 713.679 80.7508 303.205C305.494 -107.269 -293 79.171 -293 341.184" stroke="url(#paint6_linear_886_1122)" stroke-opacity="0.2"/>
<path d="M2201.16 157.43C2078.22 153.721 1836.03 185.28 1850.8 341.184C1869.28 536.063 1831.72 713.679 1355.14 565.218C878.559 416.757 752.334 559.464 649.506 603.197C546.678 646.929 -108.463 713.679 116.28 303.205C341.023 -107.269 -257.471 79.171 -257.471 341.184" stroke="url(#paint7_linear_886_1122)" stroke-opacity="0.2"/>
<path d="M2213 152.242C2090.06 148.534 1847.87 180.093 1862.65 335.996C1881.12 530.876 1843.56 708.492 1366.98 560.031C890.403 411.569 764.178 554.276 661.35 598.009C558.522 641.742 -96.6193 708.492 128.124 298.018C352.867 -112.456 -245.627 73.9835 -245.627 335.996" stroke="url(#paint8_linear_886_1122)" stroke-opacity="0.2"/>
<path d="M2201.16 162.621C2078.22 158.913 1836.03 190.472 1850.8 346.375C1869.28 541.254 1831.72 718.871 1355.14 570.41C878.559 421.948 752.334 564.655 649.506 608.388C546.678 652.121 -108.463 718.871 116.28 308.397C341.023 -102.077 -257.471 84.3624 -257.471 346.375" stroke="url(#paint9_linear_886_1122)" stroke-opacity="0.2"/>
<path d="M2213 172.998C2090.06 169.29 1847.87 200.849 1862.65 356.752C1881.12 551.631 1843.56 729.248 1366.98 580.787C890.403 432.325 764.178 575.032 661.35 618.765C558.522 662.498 -96.6193 729.248 128.124 318.774C352.867 -91.7004 -245.627 94.7393 -245.627 356.752" stroke="url(#paint10_linear_886_1122)" stroke-opacity="0.2"/>
<path d="M2189.31 172.998C2066.37 169.29 1824.18 200.849 1838.96 356.752C1857.43 551.631 1819.87 729.248 1343.29 580.787C866.716 432.325 740.49 575.032 637.662 618.765C534.835 662.498 -120.307 729.248 104.436 318.774C329.179 -91.7004 -269.314 94.7393 -269.314 356.752" stroke="url(#paint11_linear_886_1122)" stroke-opacity="0.2"/>
<path d="M2165.63 172.998C2042.69 169.29 1800.5 200.849 1815.27 356.752C1833.75 551.631 1796.19 729.248 1319.61 580.787C843.03 432.325 716.805 575.032 613.977 618.765C511.149 662.498 -143.992 729.248 80.7508 318.774C305.494 -91.7004 -293 94.7393 -293 356.752" stroke="url(#paint12_linear_886_1122)" stroke-opacity="0.2"/>
<path d="M2165.63 193.754C2042.69 190.045 1800.5 221.605 1815.27 377.508C1833.75 572.387 1796.19 750.004 1319.61 601.542C843.03 453.081 716.805 595.788 613.977 639.521C511.149 683.254 -143.992 750.004 80.7508 339.53C305.494 -70.9445 -293 115.495 -293 377.508" stroke="url(#paint13_linear_886_1122)" stroke-opacity="0.2"/>
<path d="M2165.63 214.51C2042.69 210.801 1800.5 242.36 1815.27 398.264C1833.75 593.143 1796.19 770.759 1319.61 622.298C843.03 473.837 716.805 616.544 613.977 660.277C511.149 704.009 -143.992 770.759 80.7508 360.285C305.494 -50.1886 -293 136.251 -293 398.264" stroke="url(#paint14_linear_886_1122)" stroke-opacity="0.2"/>
<path d="M2201.16 214.51C2078.22 210.801 1836.03 242.36 1850.8 398.264C1869.28 593.143 1831.72 770.759 1355.14 622.298C878.559 473.837 752.334 616.544 649.506 660.277C546.678 704.009 -108.463 770.759 116.28 360.285C341.023 -50.1886 -257.471 136.251 -257.471 398.264" stroke="url(#paint15_linear_886_1122)" stroke-opacity="0.2"/>
</g>
<defs>
<linearGradient id="paint0_linear_886_1122" x1="983.687" y1="92.8459" x2="983.687" y2="621.09" gradientUnits="userSpaceOnUse">
<stop stop-color="#020202" stop-opacity="0.37"/>
<stop offset="1" stop-opacity="0.21"/>
</linearGradient>
<linearGradient id="paint1_linear_886_1122" x1="971.843" y1="103.225" x2="971.843" y2="631.469" gradientUnits="userSpaceOnUse">
<stop stop-color="#020202" stop-opacity="0.37"/>
<stop offset="1" stop-opacity="0.21"/>
</linearGradient>
<linearGradient id="paint2_linear_886_1122" x1="983.687" y1="113.602" x2="983.687" y2="641.846" gradientUnits="userSpaceOnUse">
<stop stop-color="#020202" stop-opacity="0.37"/>
<stop offset="1" stop-opacity="0.21"/>
</linearGradient>
<linearGradient id="paint3_linear_886_1122" x1="959.999" y1="113.602" x2="959.999" y2="641.846" gradientUnits="userSpaceOnUse">
<stop stop-color="#020202" stop-opacity="0.37"/>
<stop offset="1" stop-opacity="0.21"/>
</linearGradient>
<linearGradient id="paint4_linear_886_1122" x1="936.314" y1="113.602" x2="936.314" y2="641.846" gradientUnits="userSpaceOnUse">
<stop stop-color="#020202" stop-opacity="0.37"/>
<stop offset="1" stop-opacity="0.21"/>
</linearGradient>
<linearGradient id="paint5_linear_886_1122" x1="936.314" y1="134.358" x2="936.314" y2="662.602" gradientUnits="userSpaceOnUse">
<stop stop-color="#020202" stop-opacity="0.37"/>
<stop offset="1" stop-opacity="0.21"/>
</linearGradient>
<linearGradient id="paint6_linear_886_1122" x1="936.314" y1="155.114" x2="936.314" y2="683.357" gradientUnits="userSpaceOnUse">
<stop stop-color="#020202" stop-opacity="0.37"/>
<stop offset="1" stop-opacity="0.21"/>
</linearGradient>
<linearGradient id="paint7_linear_886_1122" x1="971.843" y1="155.114" x2="971.843" y2="683.357" gradientUnits="userSpaceOnUse">
<stop stop-color="#020202" stop-opacity="0.37"/>
<stop offset="1" stop-opacity="0.21"/>
</linearGradient>
<linearGradient id="paint8_linear_886_1122" x1="983.687" y1="149.926" x2="983.687" y2="678.17" gradientUnits="userSpaceOnUse">
<stop stop-color="#020202" stop-opacity="0.37"/>
<stop offset="1" stop-opacity="0.21"/>
</linearGradient>
<linearGradient id="paint9_linear_886_1122" x1="971.843" y1="160.305" x2="971.843" y2="688.549" gradientUnits="userSpaceOnUse">
<stop stop-color="#020202" stop-opacity="0.37"/>
<stop offset="1" stop-opacity="0.21"/>
</linearGradient>
<linearGradient id="paint10_linear_886_1122" x1="983.687" y1="170.682" x2="983.687" y2="698.926" gradientUnits="userSpaceOnUse">
<stop stop-color="#020202" stop-opacity="0.37"/>
<stop offset="1" stop-opacity="0.21"/>
</linearGradient>
<linearGradient id="paint11_linear_886_1122" x1="959.999" y1="170.682" x2="959.999" y2="698.926" gradientUnits="userSpaceOnUse">
<stop stop-color="#020202" stop-opacity="0.37"/>
<stop offset="1" stop-opacity="0.21"/>
</linearGradient>
<linearGradient id="paint12_linear_886_1122" x1="936.314" y1="170.682" x2="936.314" y2="698.926" gradientUnits="userSpaceOnUse">
<stop stop-color="#020202" stop-opacity="0.37"/>
<stop offset="1" stop-opacity="0.21"/>
</linearGradient>
<linearGradient id="paint13_linear_886_1122" x1="936.314" y1="191.438" x2="936.314" y2="719.682" gradientUnits="userSpaceOnUse">
<stop stop-color="#020202" stop-opacity="0.37"/>
<stop offset="1" stop-opacity="0.21"/>
</linearGradient>
<linearGradient id="paint14_linear_886_1122" x1="936.314" y1="212.194" x2="936.314" y2="740.437" gradientUnits="userSpaceOnUse">
<stop stop-color="#020202" stop-opacity="0.37"/>
<stop offset="1" stop-opacity="0.21"/>
</linearGradient>
<linearGradient id="paint15_linear_886_1122" x1="971.843" y1="212.194" x2="971.843" y2="740.437" gradientUnits="userSpaceOnUse">
<stop stop-color="#020202" stop-opacity="0.37"/>
<stop offset="1" stop-opacity="0.21"/>
</linearGradient>
</defs>
</svg>
