<svg width="106" height="93" viewBox="0 0 106 93" fill="none" xmlns="http://www.w3.org/2000/svg">
<path d="M55.7431 0.206627C66.8312 -0.10142 87.3078 2.36295 95.7736 11.8399C104.239 21.3169 107.282 36.4112 103.252 49.0411C99.2214 61.671 88.3437 71.2023 76.4301 72.5432C78.761 80.5524 83.52 87.6556 89.7196 92.4031C79.8293 93.6897 69.6801 85.463 67.6891 74.5364C52.5057 75.4606 36.691 76.276 22.7378 69.5171C8.7846 62.7401 -2.53008 45.9062 0.917753 29.3442C3.41055 17.4029 12.8961 8.52388 23.2396 4.44679C33.5669 0.369709 44.7683 0.260988 55.7269 0.206627" fill="#FBFBFB"/>
<path d="M55.7441 0.205871C55.7441 0.205871 55.4689 0.242111 54.9348 0.260232C54.3682 0.260232 53.5913 0.296472 52.5715 0.332713C50.4995 0.387074 47.4402 0.441435 43.5068 0.677C39.5733 0.948806 34.7496 1.3837 29.2946 2.77897C23.8719 4.17424 17.7532 6.69297 12.1687 11.4949C9.40074 13.9049 6.76228 16.8404 4.70653 20.4463C3.67057 22.2403 2.76408 24.1791 2.1166 26.2811C1.7443 27.314 1.51769 28.4012 1.2587 29.4884C1.11301 30.6119 0.88638 31.7172 0.789258 32.8588C0.416957 37.4433 1.12922 42.2633 2.79648 46.7934C4.43137 51.3597 7.10221 55.5818 10.3234 59.2964C13.5608 63.0292 17.478 66.2003 21.8809 68.5197C26.2838 70.8572 31.1399 72.3612 36.1417 73.3397C46.21 75.2243 56.8448 74.7169 67.6901 74.0464C67.9006 74.0464 68.0786 74.1914 68.1272 74.4088C68.4833 76.0216 68.9041 77.743 69.6487 79.3195C73.3232 87.7092 81.8052 92.9279 89.6882 91.9313L89.494 92.7829C82.9868 87.7817 78.325 80.4611 76.0588 72.6693C75.994 72.4337 76.1073 72.18 76.3178 72.1076C76.3502 72.1076 76.3826 72.1076 76.3987 72.0894C84.5408 71.1291 91.8735 66.4902 96.8591 60.1662C101.942 53.8784 104.58 45.8511 104.661 38.2224C104.953 22.8564 96.8267 9.75531 87.2116 6.14936C82.566 4.01115 78.1307 2.85145 74.2458 2.03603C70.361 1.23873 66.9779 0.858204 64.2423 0.604518C61.4905 0.350833 59.37 0.296472 57.9455 0.242111C57.2495 0.242111 56.7154 0.242111 56.3107 0.22399C55.9384 0.22399 55.7603 0.205871 55.7603 0.18775C55.7603 0.18775 58.7549 -0.102177 64.2585 0.296472C67.0103 0.495796 70.3934 0.840084 74.3106 1.60114C78.2117 2.3622 82.6793 3.50378 87.4059 5.62387C97.199 9.22982 105.6 22.5664 105.341 38.2406C105.292 46.0323 102.605 54.2952 97.4256 60.728C92.3429 67.1969 84.8483 71.9626 76.4797 72.9773L76.8196 72.3975C79.0372 80.008 83.6181 87.1475 89.9634 92.0219C90.1576 92.1668 90.2062 92.4567 90.0767 92.6742C90.012 92.7829 89.8987 92.8554 89.7854 92.8735C81.5138 93.9064 72.7567 88.5065 68.9042 79.7544C68.1272 78.1054 67.6739 76.3115 67.3016 74.6444L67.7387 75.0249C56.8934 75.6954 46.1938 76.2028 36.0122 74.282C30.9456 73.2854 26.0248 71.7633 21.541 69.3714C17.041 66.9976 13.059 63.7541 9.77307 59.9488C6.5033 56.1435 3.78386 51.8308 2.1166 47.1558C0.433156 42.4988 -0.295243 37.5339 0.109432 32.8226C0.206554 31.6447 0.449355 30.5032 0.611225 29.3616C0.886404 28.2381 1.12921 27.1146 1.51769 26.0637C2.19755 23.9073 3.1364 21.9322 4.20474 20.1021C6.32524 16.4236 9.02847 13.4338 11.845 11.0056C17.5428 6.14936 23.7424 3.64874 29.2298 2.30784C34.7334 0.948807 39.5895 0.568279 43.523 0.350834C47.4726 0.16963 50.5319 0.16963 52.6038 0.16963C53.6074 0.16963 54.4006 0.187751 54.9671 0.205871C55.5013 0.205871 55.7765 0.242111 55.7765 0.242111L55.7441 0.205871Z" fill="#171714"/>
<path d="M56.8635 31.5101C56.522 31.5101 56.1996 31.6113 55.8961 31.8136C55.6052 32.016 55.3965 32.2815 55.2701 32.6103C55.1816 32.8253 55.0361 32.9328 54.8338 32.9328C54.6567 32.9328 54.4923 32.8632 54.3406 32.7241C54.2015 32.5724 54.1319 32.408 54.1319 32.2309C54.1319 31.8895 54.2268 31.5923 54.4165 31.3394C54.6062 31.0865 54.8401 30.8778 55.1183 30.7134C55.3965 30.5364 55.6874 30.4099 55.9909 30.334C56.2944 30.2455 56.5537 30.2012 56.7686 30.2012C57.2366 30.2012 57.6286 30.2834 57.9447 30.4478C58.2735 30.5996 58.5391 30.8019 58.7414 31.0549C58.9438 31.3078 59.0829 31.586 59.1588 31.8895C59.2473 32.193 59.2915 32.4839 59.2915 32.7621C59.2789 32.9518 59.2346 33.1604 59.1588 33.3881C59.0955 33.603 59.0007 33.818 58.8742 34.033C58.7478 34.2353 58.5897 34.4187 58.4 34.5831C58.2103 34.7475 57.989 34.874 57.7361 34.9625C58.1787 35.0384 58.5581 35.1648 58.8742 35.3419C59.1904 35.5189 59.4496 35.7402 59.652 36.0058C59.8543 36.2714 60.006 36.5685 60.1072 36.8973C60.2084 37.2261 60.2653 37.5676 60.2779 37.9217C60.2779 38.4402 60.1768 38.9018 59.9744 39.3064C59.7721 39.7111 59.5065 40.0525 59.1777 40.3308C58.8489 40.609 58.4822 40.8176 58.0775 40.9567C57.6728 41.1085 57.2682 41.1844 56.8635 41.1844C56.4841 41.1717 56.149 41.1401 55.8581 41.0895C55.5799 41.0516 55.3143 40.9694 55.0614 40.8429C54.8085 40.7291 54.5682 40.5647 54.3406 40.3497C54.113 40.1347 53.8664 39.8565 53.6008 39.5151C53.5249 39.4266 53.487 39.3191 53.487 39.1926C53.487 39.0156 53.5565 38.8448 53.6956 38.6804C53.8348 38.516 53.9928 38.4338 54.1699 38.4338C54.3469 38.4338 54.486 38.5034 54.5872 38.6425C54.9539 39.1231 55.346 39.4519 55.7633 39.6289C56.1932 39.8059 56.56 39.8945 56.8635 39.8945C57.0785 39.8945 57.3061 39.8629 57.5464 39.7996C57.7993 39.7364 58.0269 39.6352 58.2293 39.4961C58.4443 39.3444 58.615 39.161 58.7414 38.946C58.8805 38.7184 58.9501 38.4402 58.9501 38.1114C58.9122 37.3653 58.6592 36.8025 58.1913 36.4231C57.7361 36.0311 57.0848 35.8351 56.2375 35.8351C56.0984 35.8351 55.9909 35.7529 55.915 35.5885C55.8518 35.4241 55.8202 35.2723 55.8202 35.1332C55.8202 35.032 55.8328 34.9435 55.8581 34.8676C55.8961 34.7791 55.953 34.7096 56.0288 34.659C56.6359 34.4187 57.1101 34.1468 57.4515 33.8433C57.793 33.5272 57.9637 33.1667 57.9637 32.7621C57.9637 32.4586 57.8878 32.1867 57.7361 31.9464C57.597 31.6935 57.3061 31.5481 56.8635 31.5101ZM65.172 31.7377C65.2226 31.6998 65.2795 31.6682 65.3427 31.6429C65.4059 31.605 65.4755 31.586 65.5514 31.586C65.8928 31.6113 66.2659 31.7061 66.6705 31.8705C67.0752 32.0223 67.4483 32.2436 67.7897 32.5344C68.1438 32.8253 68.441 33.1857 68.6813 33.6157C68.9215 34.0457 69.0417 34.5515 69.0417 35.1332C69.0417 35.8161 68.9279 36.3915 68.7002 36.8594C68.4852 37.3147 68.1944 37.6877 67.8277 37.9786C67.4736 38.2568 67.0752 38.4591 66.6326 38.5856C66.19 38.6994 65.7474 38.7563 65.3048 38.7563C64.938 38.7563 64.546 38.6931 64.1287 38.5666C63.724 38.4275 63.3446 38.2189 62.9905 37.9406C62.6491 37.6624 62.3645 37.3147 62.1369 36.8973C61.9093 36.4674 61.7955 35.9615 61.7955 35.3798C61.7955 34.8487 61.903 34.3555 62.1179 33.9002C62.3456 33.4323 62.6111 33.034 62.9146 32.7052C63.2308 32.3764 63.5596 32.1171 63.901 31.9274C64.2425 31.7377 64.5333 31.6429 64.7736 31.6429C64.9127 31.6429 65.0455 31.6745 65.172 31.7377ZM65.2858 32.8569C65.0582 32.9707 64.8305 33.1035 64.6029 33.2553C64.3753 33.407 64.1666 33.5904 63.9769 33.8054C63.7872 34.0077 63.6291 34.248 63.5027 34.5262C63.3889 34.8044 63.332 35.1332 63.332 35.5126C63.332 35.854 63.4015 36.1449 63.5406 36.3852C63.6797 36.6255 63.8505 36.8215 64.0528 36.9732C64.2678 37.125 64.4954 37.2388 64.7357 37.3147C64.976 37.3779 65.1973 37.4095 65.3996 37.4095C65.6399 37.4095 65.8865 37.3716 66.1394 37.2957C66.405 37.2198 66.6389 37.0997 66.8413 36.9353C67.0562 36.7582 67.227 36.5306 67.3534 36.2524C67.4925 35.9742 67.5621 35.6327 67.5621 35.2281C67.5621 34.8107 67.4799 34.4693 67.3155 34.2037C67.1637 33.9255 66.974 33.6979 66.7464 33.5208C66.5188 33.3438 66.2722 33.2047 66.0066 33.1035C65.741 33.0024 65.5008 32.9202 65.2858 32.8569Z" fill="#171714"/>
<path d="M30.8154 25.9725C33.3729 26.4618 35.283 29.3973 35.5096 31.916C35.7848 29.3973 37.274 27.2591 39.9125 26.1175C43.1175 24.7404 46.97 28.292 47.2614 32.6046C47.488 36.0294 45.8855 39.1642 44.283 41.9185C41.7578 46.2493 34.9755 51.3773 34.9755 51.3773C35.5096 51.3773 29.2614 46.2493 26.7362 41.9185C25.1337 39.1642 23.5312 36.0294 23.7578 32.6046C24.0492 28.292 27.4809 25.3383 30.8154 25.9907V25.9725Z" fill="#AF3E27"/>
</svg>
