<svg width="43" height="49" viewBox="0 0 43 49" fill="none" xmlns="http://www.w3.org/2000/svg">
<path d="M21.32 48.4234C9.55001 48.4234 0 37.7439 0 24.5569C0 11.3811 9.54001 0.69043 21.32 0.69043C33.09 0.69043 42.64 11.3699 42.64 24.5569C42.64 37.7327 33.1 48.4234 21.32 48.4234Z" fill="#FF8B00"/>
<path d="M21.3209 13.8435C24.4409 13.8435 24.8108 13.8547 26.0408 13.9218C27.1808 13.9778 27.8008 14.1905 28.2108 14.3696C28.7608 14.6047 29.1408 14.8957 29.5508 15.3435C29.9608 15.8025 30.2108 16.2391 30.4208 16.8436C30.5808 17.3025 30.7709 17.9966 30.8209 19.2727C30.8809 20.6497 30.8908 21.0639 30.8908 24.5565C30.8908 28.0492 30.8809 28.4634 30.8209 29.8403C30.7709 31.1164 30.5808 31.8105 30.4208 32.2695C30.2108 32.8851 29.9508 33.3105 29.5508 33.7695C29.1408 34.2285 28.7508 34.5083 28.2108 34.7434C27.8008 34.9225 27.1808 35.1352 26.0408 35.1912C24.8108 35.2584 24.4409 35.2696 21.3209 35.2696C18.2009 35.2696 17.8308 35.2584 16.6008 35.1912C15.4608 35.1352 14.8408 34.9225 14.4308 34.7434C13.8808 34.5083 13.5008 34.2173 13.0908 33.7695C12.6808 33.3105 12.4308 32.874 12.2208 32.2695C12.0608 31.8105 11.8709 31.1164 11.8209 29.8403C11.7609 28.4634 11.7509 28.0492 11.7509 24.5565C11.7509 21.0639 11.7609 20.6497 11.8209 19.2727C11.8709 17.9966 12.0608 17.3025 12.2208 16.8436C12.4308 16.2279 12.6908 15.8025 13.0908 15.3435C13.5008 14.8845 13.8908 14.6047 14.4308 14.3696C14.8408 14.1905 15.4608 13.9778 16.6008 13.9218C17.8308 13.8547 18.2009 13.8435 21.3209 13.8435ZM21.3209 11.4814C18.1509 11.4814 17.7509 11.4926 16.5009 11.5598C15.2609 11.627 14.4108 11.8397 13.6608 12.1643C12.8908 12.5001 12.2408 12.9479 11.5908 13.6755C10.9408 14.4032 10.5408 15.1308 10.2408 15.9928C9.95084 16.8212 9.75081 17.7727 9.70081 19.172C9.64081 20.5713 9.63086 21.0079 9.63086 24.5677C9.63086 28.1275 9.64081 28.5641 9.70081 29.9634C9.76081 31.3515 9.95084 32.303 10.2408 33.1426C10.5408 34.0046 10.9408 34.7322 11.5908 35.4599C12.2408 36.1875 12.8908 36.6353 13.6608 36.9711C14.4008 37.2957 15.2509 37.5196 16.5009 37.5756C17.7509 37.6428 18.1409 37.654 21.3209 37.654C24.5009 37.654 24.8908 37.6428 26.1408 37.5756C27.3808 37.5084 28.2308 37.2957 28.9808 36.9711C29.7508 36.6353 30.4008 36.1875 31.0508 35.4599C31.7008 34.7322 32.1008 34.0046 32.4008 33.1426C32.6908 32.3142 32.8909 31.3627 32.9409 29.9634C33.0009 28.5641 33.0108 28.1275 33.0108 24.5677C33.0108 21.0079 33.0009 20.5713 32.9409 19.172C32.8809 17.7839 32.6908 16.8324 32.4008 15.9928C32.1008 15.1308 31.7008 14.4032 31.0508 13.6755C30.4008 12.9479 29.7508 12.5001 28.9808 12.1643C28.2408 11.8397 27.3908 11.6158 26.1408 11.5598C24.8908 11.4926 24.5009 11.4814 21.3209 11.4814Z" fill="#FBFBFB"/>
<path d="M21.3203 17.8506C18.0103 17.8506 15.3203 20.8619 15.3203 24.5672C15.3203 28.2726 18.0103 31.2839 21.3203 31.2839C24.6303 31.2839 27.3203 28.2726 27.3203 24.5672C27.3203 20.8619 24.6303 17.8506 21.3203 17.8506ZM21.3203 28.9331C19.1703 28.9331 17.4203 26.9852 17.4203 24.5672C17.4203 22.1492 19.1603 20.2014 21.3203 20.2014C23.4803 20.2014 25.2203 22.1492 25.2203 24.5672C25.2203 26.9852 23.4803 28.9331 21.3203 28.9331Z" fill="#FBFBFB"/>
<path d="M28.9601 17.5819C28.9601 18.4438 28.3302 19.1491 27.5602 19.1491C26.7902 19.1491 26.1602 18.4438 26.1602 17.5819C26.1602 16.7199 26.7902 16.0146 27.5602 16.0146C28.3302 16.0146 28.9601 16.7199 28.9601 17.5819Z" fill="#FBFBFB"/>
</svg>
