<svg width="1920" height="694" viewBox="0 0 1920 694" fill="none" xmlns="http://www.w3.org/2000/svg">
<g opacity="0.9">
<path d="M2213 95.1619C2090.06 91.4536 1847.87 123.013 1862.65 278.916C1881.12 473.795 1843.56 651.412 1366.98 502.951C890.403 354.489 764.178 497.196 661.35 540.929C558.522 584.662 -96.6193 651.412 128.124 240.938C352.867 -169.536 -245.627 16.9034 -245.627 278.916" stroke="url(#paint0_linear_886_970)" stroke-opacity="0.2"/>
<path d="M2201.16 105.54C2078.22 101.832 1836.03 133.391 1850.8 289.294C1869.28 484.173 1831.72 661.79 1355.14 513.329C878.559 364.867 752.334 507.574 649.506 551.307C546.678 595.04 -108.463 661.79 116.28 251.316C341.023 -159.158 -257.471 27.2813 -257.471 289.294" stroke="url(#paint1_linear_886_970)" stroke-opacity="0.2"/>
<path d="M2213 115.918C2090.06 112.209 1847.87 143.769 1862.65 299.672C1881.12 494.551 1843.56 672.168 1366.98 523.706C890.403 375.245 764.178 517.952 661.35 561.685C558.522 605.418 -96.6193 672.168 128.124 261.694C352.867 -148.78 -245.627 37.6593 -245.627 299.672" stroke="url(#paint2_linear_886_970)" stroke-opacity="0.2"/>
<path d="M2189.31 115.918C2066.37 112.209 1824.18 143.769 1838.96 299.672C1857.43 494.551 1819.87 672.168 1343.29 523.706C866.716 375.245 740.49 517.952 637.662 561.685C534.835 605.418 -120.307 672.168 104.436 261.694C329.179 -148.78 -269.314 37.6593 -269.314 299.672" stroke="url(#paint3_linear_886_970)" stroke-opacity="0.2"/>
<path d="M2165.63 115.918C2042.69 112.209 1800.5 143.769 1815.27 299.672C1833.75 494.551 1796.19 672.168 1319.61 523.706C843.03 375.245 716.805 517.952 613.977 561.685C511.149 605.418 -143.992 672.168 80.7508 261.694C305.494 -148.78 -293 37.6593 -293 299.672" stroke="url(#paint4_linear_886_970)" stroke-opacity="0.2"/>
<path d="M2165.63 136.675C2042.69 132.966 1800.5 164.526 1815.27 320.429C1833.75 515.308 1796.19 692.924 1319.61 544.463C843.03 396.002 716.805 538.709 613.977 582.442C511.149 626.174 -143.992 692.924 80.7508 282.45C305.494 -128.024 -293 58.4161 -293 320.429" stroke="url(#paint5_linear_886_970)" stroke-opacity="0.2"/>
<path d="M2165.63 157.43C2042.69 153.722 1800.5 185.281 1815.27 341.185C1833.75 536.064 1796.19 713.68 1319.61 565.219C843.03 416.758 716.805 559.465 613.977 603.198C511.149 646.93 -143.992 713.68 80.7508 303.206C305.494 -107.268 -293 79.172 -293 341.185" stroke="url(#paint6_linear_886_970)" stroke-opacity="0.2"/>
<path d="M2201.16 157.43C2078.22 153.722 1836.03 185.281 1850.8 341.185C1869.28 536.064 1831.72 713.68 1355.14 565.219C878.559 416.758 752.334 559.465 649.506 603.198C546.678 646.93 -108.463 713.68 116.28 303.206C341.023 -107.268 -257.471 79.172 -257.471 341.185" stroke="url(#paint7_linear_886_970)" stroke-opacity="0.2"/>
<path d="M2213 152.241C2090.06 148.533 1847.87 180.092 1862.65 335.995C1881.12 530.875 1843.56 708.491 1366.98 560.03C890.403 411.569 764.178 554.275 661.35 598.008C558.522 641.741 -96.6193 708.491 128.124 298.017C352.867 -112.457 -245.627 73.9825 -245.627 335.995" stroke="url(#paint8_linear_886_970)" stroke-opacity="0.2"/>
<path d="M2201.16 162.619C2078.22 158.911 1836.03 190.47 1850.8 346.373C1869.28 541.253 1831.72 718.869 1355.14 570.408C878.559 421.946 752.334 564.653 649.506 608.386C546.678 652.119 -108.463 718.869 116.28 308.395C341.023 -102.079 -257.471 84.3604 -257.471 346.373" stroke="url(#paint9_linear_886_970)" stroke-opacity="0.2"/>
<path d="M2213 172.997C2090.06 169.289 1847.87 200.848 1862.65 356.751C1881.12 551.63 1843.56 729.247 1366.98 580.786C890.403 432.324 764.178 575.031 661.35 618.764C558.522 662.497 -96.6193 729.247 128.124 318.773C352.867 -91.7013 -245.627 94.7384 -245.627 356.751" stroke="url(#paint10_linear_886_970)" stroke-opacity="0.2"/>
<path d="M2189.31 172.997C2066.37 169.289 1824.18 200.848 1838.96 356.751C1857.43 551.63 1819.87 729.247 1343.29 580.786C866.716 432.324 740.49 575.031 637.662 618.764C534.835 662.497 -120.307 729.247 104.436 318.773C329.179 -91.7013 -269.314 94.7384 -269.314 356.751" stroke="url(#paint11_linear_886_970)" stroke-opacity="0.2"/>
<path d="M2165.63 172.997C2042.69 169.289 1800.5 200.848 1815.27 356.751C1833.75 551.63 1796.19 729.247 1319.61 580.786C843.03 432.324 716.805 575.031 613.977 618.764C511.149 662.497 -143.992 729.247 80.7508 318.773C305.494 -91.7013 -293 94.7384 -293 356.751" stroke="url(#paint12_linear_886_970)" stroke-opacity="0.2"/>
<path d="M2165.63 193.754C2042.69 190.045 1800.5 221.605 1815.27 377.508C1833.75 572.387 1796.19 750.004 1319.61 601.542C843.03 453.081 716.805 595.788 613.977 639.521C511.149 683.254 -143.992 750.004 80.7508 339.53C305.494 -70.9445 -293 115.495 -293 377.508" stroke="url(#paint13_linear_886_970)" stroke-opacity="0.2"/>
<path d="M2165.63 214.51C2042.69 210.801 1800.5 242.36 1815.27 398.264C1833.75 593.143 1796.19 770.759 1319.61 622.298C843.03 473.837 716.805 616.544 613.977 660.277C511.149 704.009 -143.992 770.759 80.7508 360.285C305.494 -50.1886 -293 136.251 -293 398.264" stroke="url(#paint14_linear_886_970)" stroke-opacity="0.2"/>
<path d="M2201.16 214.51C2078.22 210.801 1836.03 242.36 1850.8 398.264C1869.28 593.143 1831.72 770.759 1355.14 622.298C878.559 473.837 752.334 616.544 649.506 660.277C546.678 704.009 -108.463 770.759 116.28 360.285C341.023 -50.1886 -257.471 136.251 -257.471 398.264" stroke="url(#paint15_linear_886_970)" stroke-opacity="0.2"/>
</g>
<defs>
<linearGradient id="paint0_linear_886_970" x1="983.687" y1="92.8459" x2="983.687" y2="621.09" gradientUnits="userSpaceOnUse">
<stop stop-color="#020202" stop-opacity="0.37"/>
<stop offset="1" stop-opacity="0.21"/>
</linearGradient>
<linearGradient id="paint1_linear_886_970" x1="971.843" y1="103.224" x2="971.843" y2="631.468" gradientUnits="userSpaceOnUse">
<stop stop-color="#020202" stop-opacity="0.37"/>
<stop offset="1" stop-opacity="0.21"/>
</linearGradient>
<linearGradient id="paint2_linear_886_970" x1="983.687" y1="113.602" x2="983.687" y2="641.846" gradientUnits="userSpaceOnUse">
<stop stop-color="#020202" stop-opacity="0.37"/>
<stop offset="1" stop-opacity="0.21"/>
</linearGradient>
<linearGradient id="paint3_linear_886_970" x1="959.999" y1="113.602" x2="959.999" y2="641.846" gradientUnits="userSpaceOnUse">
<stop stop-color="#020202" stop-opacity="0.37"/>
<stop offset="1" stop-opacity="0.21"/>
</linearGradient>
<linearGradient id="paint4_linear_886_970" x1="936.314" y1="113.602" x2="936.314" y2="641.846" gradientUnits="userSpaceOnUse">
<stop stop-color="#020202" stop-opacity="0.37"/>
<stop offset="1" stop-opacity="0.21"/>
</linearGradient>
<linearGradient id="paint5_linear_886_970" x1="936.314" y1="134.359" x2="936.314" y2="662.603" gradientUnits="userSpaceOnUse">
<stop stop-color="#020202" stop-opacity="0.37"/>
<stop offset="1" stop-opacity="0.21"/>
</linearGradient>
<linearGradient id="paint6_linear_886_970" x1="936.314" y1="155.114" x2="936.314" y2="683.358" gradientUnits="userSpaceOnUse">
<stop stop-color="#020202" stop-opacity="0.37"/>
<stop offset="1" stop-opacity="0.21"/>
</linearGradient>
<linearGradient id="paint7_linear_886_970" x1="971.843" y1="155.114" x2="971.843" y2="683.358" gradientUnits="userSpaceOnUse">
<stop stop-color="#020202" stop-opacity="0.37"/>
<stop offset="1" stop-opacity="0.21"/>
</linearGradient>
<linearGradient id="paint8_linear_886_970" x1="983.687" y1="149.925" x2="983.687" y2="678.169" gradientUnits="userSpaceOnUse">
<stop stop-color="#020202" stop-opacity="0.37"/>
<stop offset="1" stop-opacity="0.21"/>
</linearGradient>
<linearGradient id="paint9_linear_886_970" x1="971.843" y1="160.303" x2="971.843" y2="688.547" gradientUnits="userSpaceOnUse">
<stop stop-color="#020202" stop-opacity="0.37"/>
<stop offset="1" stop-opacity="0.21"/>
</linearGradient>
<linearGradient id="paint10_linear_886_970" x1="983.687" y1="170.681" x2="983.687" y2="698.925" gradientUnits="userSpaceOnUse">
<stop stop-color="#020202" stop-opacity="0.37"/>
<stop offset="1" stop-opacity="0.21"/>
</linearGradient>
<linearGradient id="paint11_linear_886_970" x1="959.999" y1="170.681" x2="959.999" y2="698.925" gradientUnits="userSpaceOnUse">
<stop stop-color="#020202" stop-opacity="0.37"/>
<stop offset="1" stop-opacity="0.21"/>
</linearGradient>
<linearGradient id="paint12_linear_886_970" x1="936.314" y1="170.681" x2="936.314" y2="698.925" gradientUnits="userSpaceOnUse">
<stop stop-color="#020202" stop-opacity="0.37"/>
<stop offset="1" stop-opacity="0.21"/>
</linearGradient>
<linearGradient id="paint13_linear_886_970" x1="936.314" y1="191.438" x2="936.314" y2="719.682" gradientUnits="userSpaceOnUse">
<stop stop-color="#020202" stop-opacity="0.37"/>
<stop offset="1" stop-opacity="0.21"/>
</linearGradient>
<linearGradient id="paint14_linear_886_970" x1="936.314" y1="212.194" x2="936.314" y2="740.437" gradientUnits="userSpaceOnUse">
<stop stop-color="#020202" stop-opacity="0.37"/>
<stop offset="1" stop-opacity="0.21"/>
</linearGradient>
<linearGradient id="paint15_linear_886_970" x1="971.843" y1="212.194" x2="971.843" y2="740.437" gradientUnits="userSpaceOnUse">
<stop stop-color="#020202" stop-opacity="0.37"/>
<stop offset="1" stop-opacity="0.21"/>
</linearGradient>
</defs>
</svg>
