<svg width="1920" height="716" viewBox="0 0 1920 716" fill="none" xmlns="http://www.w3.org/2000/svg">
<g opacity="0.8">
<path d="M-162.999 617.574C-51.9296 621.398 166.872 588.861 153.521 428.13C136.833 227.216 170.766 44.1002 601.322 197.159C1031.88 350.217 1145.91 203.091 1238.81 158.004C1331.71 112.917 1923.58 44.1004 1720.54 467.285C1517.5 890.469 2058.2 698.256 2058.2 428.13" stroke="url(#paint0_linear_886_377)" stroke-opacity="0.1"/>
<path d="M-152.3 606.875C-41.2303 610.698 177.571 578.162 164.22 417.431C147.532 216.517 181.465 33.401 612.021 186.459C1042.58 339.518 1156.61 192.392 1249.51 147.305C1342.41 102.218 1934.28 33.4011 1731.24 456.586C1528.2 879.77 2068.9 687.557 2068.9 417.431" stroke="url(#paint1_linear_886_377)" stroke-opacity="0.1"/>
<path d="M-162.999 596.175C-51.9296 599.998 166.872 567.462 153.521 406.731C136.833 205.817 170.766 22.7008 601.322 175.759C1031.88 328.818 1145.91 181.692 1238.81 136.605C1331.71 91.5178 1923.58 22.7009 1720.54 445.885C1517.5 869.07 2058.2 676.857 2058.2 406.731" stroke="url(#paint2_linear_886_377)" stroke-opacity="0.1"/>
<path d="M-141.6 596.175C-30.5311 599.998 188.27 567.462 174.919 406.731C158.231 205.817 192.164 22.7008 622.72 175.759C1053.28 328.818 1167.31 181.692 1260.21 136.605C1353.11 91.5178 1944.98 22.7009 1741.94 445.885C1538.9 869.07 2079.6 676.857 2079.6 406.731" stroke="url(#paint3_linear_886_377)" stroke-opacity="0.1"/>
<path d="M-120.202 596.175C-9.13268 599.998 209.668 567.462 196.318 406.731C179.63 205.817 213.562 22.7008 644.118 175.759C1074.67 328.818 1188.71 181.692 1281.61 136.605C1374.51 91.5178 1966.38 22.7009 1763.34 445.885C1560.3 869.07 2101 676.857 2101 406.731" stroke="url(#paint4_linear_886_377)" stroke-opacity="0.1"/>
<path d="M-120.202 574.777C-9.13268 578.6 209.668 546.063 196.318 385.332C179.63 184.419 213.562 1.30236 644.118 154.361C1074.67 307.419 1188.71 160.293 1281.61 115.206C1374.51 70.1194 1966.38 1.30251 1763.34 424.487C1560.3 847.671 2101 655.459 2101 385.333" stroke="url(#paint5_linear_886_377)" stroke-opacity="0.1"/>
<path d="M-120.202 553.378C-9.13268 557.201 209.668 524.665 196.318 363.934C179.63 163.02 213.562 -20.0961 644.118 132.962C1074.67 286.021 1188.71 138.895 1281.61 93.8079C1374.51 48.7209 1966.38 -20.0959 1763.34 403.089C1560.3 826.273 2101 634.06 2101 363.934" stroke="url(#paint6_linear_886_377)" stroke-opacity="0.1"/>
<path d="M-152.3 553.378C-41.2303 557.201 177.571 524.665 164.22 363.934C147.532 163.02 181.465 -20.0961 612.021 132.962C1042.58 286.021 1156.61 138.895 1249.51 93.8079C1342.41 48.7209 1934.28 -20.0959 1731.24 403.089C1528.2 826.273 2068.9 634.06 2068.9 363.934" stroke="url(#paint7_linear_886_377)" stroke-opacity="0.1"/>
<path d="M-162.999 558.728C-51.9296 562.551 166.872 530.015 153.521 369.284C136.833 168.37 170.766 -14.7465 601.322 138.312C1031.88 291.37 1145.91 144.244 1238.81 99.1575C1331.71 54.0705 1923.58 -14.7463 1720.54 408.438C1517.5 831.623 2058.2 639.41 2058.2 369.284" stroke="url(#paint8_linear_886_377)" stroke-opacity="0.1"/>
<path d="M-152.3 548.029C-41.2303 551.852 177.571 519.315 164.22 358.584C147.532 157.671 181.465 -25.4457 612.021 127.613C1042.58 280.671 1156.61 133.545 1249.51 88.4583C1342.41 43.3713 1934.28 -25.4455 1731.24 397.739C1528.2 820.923 2068.9 628.711 2068.9 358.584" stroke="url(#paint9_linear_886_377)" stroke-opacity="0.1"/>
<path d="M-162.999 537.329C-51.9296 541.153 166.872 508.616 153.521 347.885C136.833 146.971 170.766 -36.1449 601.322 116.913C1031.88 269.972 1145.91 122.846 1238.81 77.759C1331.71 32.6721 1923.58 -36.1448 1720.54 387.04C1517.5 810.224 2058.2 618.011 2058.2 347.885" stroke="url(#paint10_linear_886_377)" stroke-opacity="0.1"/>
<path d="M-141.6 537.329C-30.5311 541.153 188.27 508.616 174.919 347.885C158.231 146.971 192.164 -36.1449 622.72 116.913C1053.28 269.972 1167.31 122.846 1260.21 77.759C1353.11 32.6721 1944.98 -36.1448 1741.94 387.04C1538.9 810.224 2079.6 618.011 2079.6 347.885" stroke="url(#paint11_linear_886_377)" stroke-opacity="0.1"/>
<path d="M-120.202 537.329C-9.13268 541.153 209.668 508.616 196.318 347.885C179.63 146.971 213.562 -36.1449 644.118 116.913C1074.67 269.972 1188.71 122.846 1281.61 77.759C1374.51 32.6721 1966.38 -36.1448 1763.34 387.04C1560.3 810.224 2101 618.011 2101 347.885" stroke="url(#paint12_linear_886_377)" stroke-opacity="0.1"/>
<path d="M-120.202 515.93C-9.13268 519.753 209.668 487.217 196.318 326.486C179.63 125.572 213.562 -57.5443 644.118 95.514C1074.67 248.572 1188.71 101.447 1281.61 56.3596C1374.51 11.2727 1966.38 -57.5442 1763.34 365.64C1560.3 788.825 2101 596.612 2101 326.486" stroke="url(#paint13_linear_886_377)" stroke-opacity="0.1"/>
<path d="M-120.202 494.531C-9.13268 498.355 209.668 465.818 196.318 305.087C179.63 104.173 213.562 -78.9428 644.118 74.1156C1074.67 227.174 1188.71 80.0481 1281.61 34.9612C1374.51 -10.1257 1966.38 -78.9426 1763.34 344.242C1560.3 767.426 2101 575.214 2101 305.087" stroke="url(#paint14_linear_886_377)" stroke-opacity="0.1"/>
<path d="M-152.3 494.531C-41.2303 498.355 177.571 465.818 164.22 305.087C147.532 104.173 181.465 -78.9428 612.021 74.1156C1042.58 227.174 1156.61 80.0481 1249.51 34.9612C1342.41 -10.1257 1934.28 -78.9426 1731.24 344.242C1528.2 767.426 2068.9 575.214 2068.9 305.087" stroke="url(#paint15_linear_886_377)" stroke-opacity="0.1"/>
</g>
<defs>
<linearGradient id="paint0_linear_886_377" x1="947.602" y1="619.962" x2="947.602" y2="75.3611" gradientUnits="userSpaceOnUse">
<stop stop-color="#D47777"/>
<stop offset="1" stop-color="#E38080" stop-opacity="0"/>
</linearGradient>
<linearGradient id="paint1_linear_886_377" x1="958.301" y1="609.263" x2="958.301" y2="64.6619" gradientUnits="userSpaceOnUse">
<stop stop-color="#D47777"/>
<stop offset="1" stop-color="#E38080" stop-opacity="0"/>
</linearGradient>
<linearGradient id="paint2_linear_886_377" x1="947.602" y1="598.563" x2="947.602" y2="53.9617" gradientUnits="userSpaceOnUse">
<stop stop-color="#D47777"/>
<stop offset="1" stop-color="#E38080" stop-opacity="0"/>
</linearGradient>
<linearGradient id="paint3_linear_886_377" x1="969" y1="598.563" x2="969.001" y2="53.9617" gradientUnits="userSpaceOnUse">
<stop stop-color="#D47777"/>
<stop offset="1" stop-color="#E38080" stop-opacity="0"/>
</linearGradient>
<linearGradient id="paint4_linear_886_377" x1="990.399" y1="598.563" x2="990.399" y2="53.9617" gradientUnits="userSpaceOnUse">
<stop stop-color="#D47777"/>
<stop offset="1" stop-color="#E38080" stop-opacity="0"/>
</linearGradient>
<linearGradient id="paint5_linear_886_377" x1="990.399" y1="577.164" x2="990.399" y2="32.5632" gradientUnits="userSpaceOnUse">
<stop stop-color="#D47777"/>
<stop offset="1" stop-color="#E38080" stop-opacity="0"/>
</linearGradient>
<linearGradient id="paint6_linear_886_377" x1="990.399" y1="555.766" x2="990.399" y2="11.1648" gradientUnits="userSpaceOnUse">
<stop stop-color="#D47777"/>
<stop offset="1" stop-color="#E38080" stop-opacity="0"/>
</linearGradient>
<linearGradient id="paint7_linear_886_377" x1="958.301" y1="555.766" x2="958.301" y2="11.1648" gradientUnits="userSpaceOnUse">
<stop stop-color="#D47777"/>
<stop offset="1" stop-color="#E38080" stop-opacity="0"/>
</linearGradient>
<linearGradient id="paint8_linear_886_377" x1="947.602" y1="561.116" x2="947.602" y2="16.5144" gradientUnits="userSpaceOnUse">
<stop stop-color="#D47777"/>
<stop offset="1" stop-color="#E38080" stop-opacity="0"/>
</linearGradient>
<linearGradient id="paint9_linear_886_377" x1="958.301" y1="550.416" x2="958.301" y2="5.8152" gradientUnits="userSpaceOnUse">
<stop stop-color="#D47777"/>
<stop offset="1" stop-color="#E38080" stop-opacity="0"/>
</linearGradient>
<linearGradient id="paint10_linear_886_377" x1="947.602" y1="539.717" x2="947.602" y2="-4.88402" gradientUnits="userSpaceOnUse">
<stop stop-color="#D47777"/>
<stop offset="1" stop-color="#E38080" stop-opacity="0"/>
</linearGradient>
<linearGradient id="paint11_linear_886_377" x1="969" y1="539.717" x2="969.001" y2="-4.88402" gradientUnits="userSpaceOnUse">
<stop stop-color="#D47777"/>
<stop offset="1" stop-color="#E38080" stop-opacity="0"/>
</linearGradient>
<linearGradient id="paint12_linear_886_377" x1="990.399" y1="539.717" x2="990.399" y2="-4.88402" gradientUnits="userSpaceOnUse">
<stop stop-color="#D47777"/>
<stop offset="1" stop-color="#E38080" stop-opacity="0"/>
</linearGradient>
<linearGradient id="paint13_linear_886_377" x1="990.399" y1="518.318" x2="990.399" y2="-26.2834" gradientUnits="userSpaceOnUse">
<stop stop-color="#D47777"/>
<stop offset="1" stop-color="#E38080" stop-opacity="0"/>
</linearGradient>
<linearGradient id="paint14_linear_886_377" x1="990.399" y1="496.919" x2="990.399" y2="-47.6819" gradientUnits="userSpaceOnUse">
<stop stop-color="#D47777"/>
<stop offset="1" stop-color="#E38080" stop-opacity="0"/>
</linearGradient>
<linearGradient id="paint15_linear_886_377" x1="958.301" y1="496.919" x2="958.301" y2="-47.6819" gradientUnits="userSpaceOnUse">
<stop stop-color="#D47777"/>
<stop offset="1" stop-color="#E38080" stop-opacity="0"/>
</linearGradient>
</defs>
</svg>
