<svg width="120" height="223" viewBox="0 0 120 223" fill="none" xmlns="http://www.w3.org/2000/svg">
<circle cy="1" r="1" fill="#BCB4FF"/>
<circle cx="17" cy="1" r="1" fill="#BCB4FF"/>
<circle cx="34" cy="1" r="1" fill="#BCB4FF"/>
<circle cx="51" cy="1" r="1" fill="#BCB4FF"/>
<circle cx="68" cy="1" r="1" fill="#BCB4FF"/>
<circle cx="85" cy="1" r="1" fill="#BCB4FF"/>
<circle cx="102" cy="1" r="1" fill="#BCB4FF"/>
<circle cx="119" cy="1" r="1" fill="#BCB4FF"/>
<circle cy="18" r="1" fill="#BCB4FF"/>
<circle cx="17" cy="18" r="1" fill="#BCB4FF"/>
<circle cx="34" cy="18" r="1" fill="#BCB4FF"/>
<circle cx="51" cy="18" r="1" fill="#BCB4FF"/>
<circle cx="68" cy="18" r="1" fill="#BCB4FF"/>
<circle cx="85" cy="18" r="1" fill="#BCB4FF"/>
<circle cx="102" cy="18" r="1" fill="#BCB4FF"/>
<circle cx="119" cy="18" r="1" fill="#BCB4FF"/>
<circle cy="35" r="1" fill="#BCB4FF"/>
<circle cx="17" cy="35" r="1" fill="#BCB4FF"/>
<circle cx="34" cy="35" r="1" fill="#BCB4FF"/>
<circle cx="51" cy="35" r="1" fill="#BCB4FF"/>
<circle cx="68" cy="35" r="1" fill="#BCB4FF"/>
<circle cx="85" cy="35" r="1" fill="#BCB4FF"/>
<circle cx="102" cy="35" r="1" fill="#BCB4FF"/>
<circle cx="119" cy="35" r="1" fill="#BCB4FF"/>
<circle cy="52" r="1" fill="#BCB4FF"/>
<circle cx="17" cy="52" r="1" fill="#BCB4FF"/>
<circle cx="34" cy="52" r="1" fill="#BCB4FF"/>
<circle cx="51" cy="52" r="1" fill="#BCB4FF"/>
<circle cx="68" cy="52" r="1" fill="#BCB4FF"/>
<circle cx="85" cy="52" r="1" fill="#BCB4FF"/>
<circle cx="102" cy="52" r="1" fill="#BCB4FF"/>
<circle cx="119" cy="52" r="1" fill="#BCB4FF"/>
<circle cy="69" r="1" fill="#BCB4FF"/>
<circle cx="17" cy="69" r="1" fill="#BCB4FF"/>
<circle cx="34" cy="69" r="1" fill="#BCB4FF"/>
<circle cx="51" cy="69" r="1" fill="#BCB4FF"/>
<circle cx="68" cy="69" r="1" fill="#BCB4FF"/>
<circle cx="85" cy="69" r="1" fill="#BCB4FF"/>
<circle cx="102" cy="69" r="1" fill="#BCB4FF"/>
<circle cx="119" cy="69" r="1" fill="#BCB4FF"/>
<circle cy="86" r="1" fill="#BCB4FF"/>
<circle cx="17" cy="86" r="1" fill="#BCB4FF"/>
<circle cx="34" cy="86" r="1" fill="#BCB4FF"/>
<circle cx="51" cy="86" r="1" fill="#BCB4FF"/>
<circle cx="68" cy="86" r="1" fill="#BCB4FF"/>
<circle cx="85" cy="86" r="1" fill="#BCB4FF"/>
<circle cx="102" cy="86" r="1" fill="#BCB4FF"/>
<circle cx="119" cy="86" r="1" fill="#BCB4FF"/>
<circle cy="103" r="1" fill="#BCB4FF"/>
<circle cx="17" cy="103" r="1" fill="#BCB4FF"/>
<circle cx="34" cy="103" r="1" fill="#BCB4FF"/>
<circle cx="51" cy="103" r="1" fill="#BCB4FF"/>
<circle cx="68" cy="103" r="1" fill="#BCB4FF"/>
<circle cx="85" cy="103" r="1" fill="#BCB4FF"/>
<circle cx="102" cy="103" r="1" fill="#BCB4FF"/>
<circle cx="119" cy="103" r="1" fill="#BCB4FF"/>
<circle cy="120" r="1" fill="#BCB4FF"/>
<circle cx="17" cy="120" r="1" fill="#BCB4FF"/>
<circle cx="34" cy="120" r="1" fill="#BCB4FF"/>
<circle cx="51" cy="120" r="1" fill="#BCB4FF"/>
<circle cx="68" cy="120" r="1" fill="#BCB4FF"/>
<circle cx="85" cy="120" r="1" fill="#BCB4FF"/>
<circle cx="102" cy="120" r="1" fill="#BCB4FF"/>
<circle cx="119" cy="120" r="1" fill="#BCB4FF"/>
<circle cy="137" r="1" fill="#BCB4FF"/>
<circle cx="17" cy="137" r="1" fill="#BCB4FF"/>
<circle cx="34" cy="137" r="1" fill="#BCB4FF"/>
<circle cx="51" cy="137" r="1" fill="#BCB4FF"/>
<circle cx="68" cy="137" r="1" fill="#BCB4FF"/>
<circle cx="85" cy="137" r="1" fill="#BCB4FF"/>
<circle cx="102" cy="137" r="1" fill="#BCB4FF"/>
<circle cx="119" cy="137" r="1" fill="#BCB4FF"/>
<circle cy="154" r="1" fill="#BCB4FF"/>
<circle cx="17" cy="154" r="1" fill="#BCB4FF"/>
<circle cx="34" cy="154" r="1" fill="#BCB4FF"/>
<circle cx="51" cy="154" r="1" fill="#BCB4FF"/>
<circle cx="68" cy="154" r="1" fill="#BCB4FF"/>
<circle cx="85" cy="154" r="1" fill="#BCB4FF"/>
<circle cx="102" cy="154" r="1" fill="#BCB4FF"/>
<circle cx="119" cy="154" r="1" fill="#BCB4FF"/>
<circle cy="171" r="1" fill="#BCB4FF"/>
<circle cx="17" cy="171" r="1" fill="#BCB4FF"/>
<circle cx="34" cy="171" r="1" fill="#BCB4FF"/>
<circle cx="51" cy="171" r="1" fill="#BCB4FF"/>
<circle cx="68" cy="171" r="1" fill="#BCB4FF"/>
<circle cx="85" cy="171" r="1" fill="#BCB4FF"/>
<circle cx="102" cy="171" r="1" fill="#BCB4FF"/>
<circle cx="119" cy="171" r="1" fill="#BCB4FF"/>
<circle cy="188" r="1" fill="#BCB4FF"/>
<circle cx="17" cy="188" r="1" fill="#BCB4FF"/>
<circle cx="34" cy="188" r="1" fill="#BCB4FF"/>
<circle cx="51" cy="188" r="1" fill="#BCB4FF"/>
<circle cx="68" cy="188" r="1" fill="#BCB4FF"/>
<circle cx="85" cy="188" r="1" fill="#BCB4FF"/>
<circle cx="102" cy="188" r="1" fill="#BCB4FF"/>
<circle cx="119" cy="188" r="1" fill="#BCB4FF"/>
<circle cy="205" r="1" fill="#BCB4FF"/>
<circle cx="17" cy="205" r="1" fill="#BCB4FF"/>
<circle cx="34" cy="205" r="1" fill="#BCB4FF"/>
<circle cx="51" cy="205" r="1" fill="#BCB4FF"/>
<circle cx="68" cy="205" r="1" fill="#BCB4FF"/>
<circle cx="85" cy="205" r="1" fill="#BCB4FF"/>
<circle cx="102" cy="205" r="1" fill="#BCB4FF"/>
<circle cx="119" cy="205" r="1" fill="#BCB4FF"/>
<circle cy="222" r="1" fill="#BCB4FF"/>
<circle cx="17" cy="222" r="1" fill="#BCB4FF"/>
<circle cx="34" cy="222" r="1" fill="#BCB4FF"/>
<circle cx="51" cy="222" r="1" fill="#BCB4FF"/>
<circle cx="68" cy="222" r="1" fill="#BCB4FF"/>
<circle cx="85" cy="222" r="1" fill="#BCB4FF"/>
<circle cx="102" cy="222" r="1" fill="#BCB4FF"/>
<circle cx="119" cy="222" r="1" fill="#BCB4FF"/>
</svg>
