<svg width="112" height="146" viewBox="0 0 112 146" fill="none" xmlns="http://www.w3.org/2000/svg">
<circle cx="0.651163" cy="0.651163" r="0.651163" fill="black"/>
<circle cx="11.7205" cy="0.651163" r="0.651163" fill="black"/>
<circle cx="22.7908" cy="0.651163" r="0.651163" fill="black"/>
<circle cx="33.8601" cy="0.651163" r="0.651163" fill="black"/>
<circle cx="44.9305" cy="0.651163" r="0.651163" fill="black"/>
<circle cx="55.9998" cy="0.651163" r="0.651163" fill="black"/>
<circle cx="67.0701" cy="0.651163" r="0.651163" fill="black"/>
<circle cx="78.1394" cy="0.651163" r="0.651163" fill="black"/>
<circle cx="89.2098" cy="0.651163" r="0.651163" fill="black"/>
<circle cx="100.279" cy="0.651163" r="0.651163" fill="black"/>
<circle cx="111.348" cy="0.651163" r="0.651163" fill="black"/>
<circle cx="0.651163" cy="11.7205" r="0.651163" fill="black"/>
<circle cx="11.7205" cy="11.7205" r="0.651163" fill="black"/>
<circle cx="22.7908" cy="11.7205" r="0.651163" fill="black"/>
<circle cx="33.8601" cy="11.7205" r="0.651163" fill="black"/>
<circle cx="44.9305" cy="11.7205" r="0.651163" fill="black"/>
<circle cx="55.9998" cy="11.7205" r="0.651163" fill="black"/>
<circle cx="67.0701" cy="11.7205" r="0.651163" fill="black"/>
<circle cx="78.1394" cy="11.7205" r="0.651163" fill="black"/>
<circle cx="89.2098" cy="11.7205" r="0.651163" fill="black"/>
<circle cx="100.279" cy="11.7205" r="0.651163" fill="black"/>
<circle cx="111.348" cy="11.7205" r="0.651163" fill="black"/>
<circle cx="0.651163" cy="22.7908" r="0.651163" fill="black"/>
<circle cx="11.7205" cy="22.7908" r="0.651163" fill="black"/>
<circle cx="22.7908" cy="22.7908" r="0.651163" fill="black"/>
<circle cx="33.8601" cy="22.7908" r="0.651163" fill="black"/>
<circle cx="44.9305" cy="22.7908" r="0.651163" fill="black"/>
<circle cx="55.9998" cy="22.7908" r="0.651163" fill="black"/>
<circle cx="67.0701" cy="22.7908" r="0.651163" fill="black"/>
<circle cx="78.1394" cy="22.7908" r="0.651163" fill="black"/>
<circle cx="89.2098" cy="22.7908" r="0.651163" fill="black"/>
<circle cx="100.279" cy="22.7908" r="0.651163" fill="black"/>
<circle cx="111.348" cy="22.7908" r="0.651163" fill="black"/>
<circle cx="0.651163" cy="33.8601" r="0.651163" fill="black"/>
<circle cx="11.7205" cy="33.8601" r="0.651163" fill="black"/>
<circle cx="22.7908" cy="33.8601" r="0.651163" fill="black"/>
<circle cx="33.8601" cy="33.8601" r="0.651163" fill="black"/>
<circle cx="44.9305" cy="33.8601" r="0.651163" fill="black"/>
<circle cx="55.9998" cy="33.8601" r="0.651163" fill="black"/>
<circle cx="67.0701" cy="33.8601" r="0.651163" fill="black"/>
<circle cx="78.1394" cy="33.8601" r="0.651163" fill="black"/>
<circle cx="89.2098" cy="33.8601" r="0.651163" fill="black"/>
<circle cx="100.279" cy="33.8601" r="0.651163" fill="black"/>
<circle cx="111.348" cy="33.8601" r="0.651163" fill="black"/>
<circle cx="0.651163" cy="44.9305" r="0.651163" fill="black"/>
<circle cx="11.7205" cy="44.9305" r="0.651163" fill="black"/>
<circle cx="22.7908" cy="44.9305" r="0.651163" fill="black"/>
<circle cx="33.8601" cy="44.9305" r="0.651163" fill="black"/>
<circle cx="44.9305" cy="44.9305" r="0.651163" fill="black"/>
<circle cx="55.9998" cy="44.9305" r="0.651163" fill="black"/>
<circle cx="67.0701" cy="44.9305" r="0.651163" fill="black"/>
<circle cx="78.1394" cy="44.9305" r="0.651163" fill="black"/>
<circle cx="89.2098" cy="44.9305" r="0.651163" fill="black"/>
<circle cx="100.279" cy="44.9305" r="0.651163" fill="black"/>
<circle cx="111.348" cy="44.9305" r="0.651163" fill="black"/>
<circle cx="0.651163" cy="55.9998" r="0.651163" fill="black"/>
<circle cx="11.7205" cy="55.9998" r="0.651163" fill="black"/>
<circle cx="22.7908" cy="55.9998" r="0.651163" fill="black"/>
<circle cx="33.8601" cy="55.9998" r="0.651163" fill="black"/>
<circle cx="44.9305" cy="55.9998" r="0.651163" fill="black"/>
<circle cx="55.9998" cy="55.9998" r="0.651163" fill="black"/>
<circle cx="67.0701" cy="55.9998" r="0.651163" fill="black"/>
<circle cx="78.1394" cy="55.9998" r="0.651163" fill="black"/>
<circle cx="89.2098" cy="55.9998" r="0.651163" fill="black"/>
<circle cx="100.279" cy="55.9998" r="0.651163" fill="black"/>
<circle cx="111.348" cy="55.9998" r="0.651163" fill="black"/>
<circle cx="0.651163" cy="67.0701" r="0.651163" fill="black"/>
<circle cx="11.7205" cy="67.0701" r="0.651163" fill="black"/>
<circle cx="22.7908" cy="67.0701" r="0.651163" fill="black"/>
<circle cx="33.8601" cy="67.0701" r="0.651163" fill="black"/>
<circle cx="44.9305" cy="67.0701" r="0.651163" fill="black"/>
<circle cx="55.9998" cy="67.0701" r="0.651163" fill="black"/>
<circle cx="67.0701" cy="67.0701" r="0.651163" fill="black"/>
<circle cx="78.1394" cy="67.0701" r="0.651163" fill="black"/>
<circle cx="89.2098" cy="67.0701" r="0.651163" fill="black"/>
<circle cx="100.279" cy="67.0701" r="0.651163" fill="black"/>
<circle cx="111.348" cy="67.0701" r="0.651163" fill="black"/>
<circle cx="0.651163" cy="78.1394" r="0.651163" fill="black"/>
<circle cx="11.7205" cy="78.1394" r="0.651163" fill="black"/>
<circle cx="22.7908" cy="78.1394" r="0.651163" fill="black"/>
<circle cx="33.8601" cy="78.1394" r="0.651163" fill="black"/>
<circle cx="44.9305" cy="78.1394" r="0.651163" fill="black"/>
<circle cx="55.9998" cy="78.1394" r="0.651163" fill="black"/>
<circle cx="67.0701" cy="78.1394" r="0.651163" fill="black"/>
<circle cx="78.1394" cy="78.1394" r="0.651163" fill="black"/>
<circle cx="89.2098" cy="78.1394" r="0.651163" fill="black"/>
<circle cx="100.279" cy="78.1394" r="0.651163" fill="black"/>
<circle cx="111.348" cy="78.1394" r="0.651163" fill="black"/>
<circle cx="0.651163" cy="89.2098" r="0.651163" fill="black"/>
<circle cx="11.7205" cy="89.2098" r="0.651163" fill="black"/>
<circle cx="22.7908" cy="89.2098" r="0.651163" fill="black"/>
<circle cx="33.8601" cy="89.2098" r="0.651163" fill="black"/>
<circle cx="44.9305" cy="89.2098" r="0.651163" fill="black"/>
<circle cx="55.9998" cy="89.2098" r="0.651163" fill="black"/>
<circle cx="67.0701" cy="89.2098" r="0.651163" fill="black"/>
<circle cx="78.1394" cy="89.2098" r="0.651163" fill="black"/>
<circle cx="89.2098" cy="89.2098" r="0.651163" fill="black"/>
<circle cx="100.279" cy="89.2098" r="0.651163" fill="black"/>
<circle cx="111.348" cy="89.2098" r="0.651163" fill="black"/>
<circle cx="0.651163" cy="100.279" r="0.651163" fill="black"/>
<circle cx="11.7205" cy="100.279" r="0.651163" fill="black"/>
<circle cx="22.7908" cy="100.279" r="0.651163" fill="black"/>
<circle cx="33.8601" cy="100.279" r="0.651163" fill="black"/>
<circle cx="44.9305" cy="100.279" r="0.651163" fill="black"/>
<circle cx="55.9998" cy="100.279" r="0.651163" fill="black"/>
<circle cx="67.0701" cy="100.279" r="0.651163" fill="black"/>
<circle cx="78.1394" cy="100.279" r="0.651163" fill="black"/>
<circle cx="89.2098" cy="100.279" r="0.651163" fill="black"/>
<circle cx="100.279" cy="100.279" r="0.651163" fill="black"/>
<circle cx="111.348" cy="100.279" r="0.651163" fill="black"/>
<circle cx="0.651163" cy="111.348" r="0.651163" fill="black"/>
<circle cx="11.7205" cy="111.348" r="0.651163" fill="black"/>
<circle cx="22.7908" cy="111.348" r="0.651163" fill="black"/>
<circle cx="33.8601" cy="111.348" r="0.651163" fill="black"/>
<circle cx="44.9305" cy="111.348" r="0.651163" fill="black"/>
<circle cx="55.9998" cy="111.348" r="0.651163" fill="black"/>
<circle cx="67.0701" cy="111.348" r="0.651163" fill="black"/>
<circle cx="78.1394" cy="111.348" r="0.651163" fill="black"/>
<circle cx="89.2098" cy="111.348" r="0.651163" fill="black"/>
<circle cx="100.279" cy="111.348" r="0.651163" fill="black"/>
<circle cx="111.348" cy="111.348" r="0.651163" fill="black"/>
<circle cx="0.651163" cy="122.419" r="0.651163" fill="black"/>
<circle cx="11.7205" cy="122.419" r="0.651163" fill="black"/>
<circle cx="22.7908" cy="122.419" r="0.651163" fill="black"/>
<circle cx="33.8601" cy="122.419" r="0.651163" fill="black"/>
<circle cx="44.9305" cy="122.419" r="0.651163" fill="black"/>
<circle cx="55.9998" cy="122.419" r="0.651163" fill="black"/>
<circle cx="67.0701" cy="122.419" r="0.651163" fill="black"/>
<circle cx="78.1394" cy="122.419" r="0.651163" fill="black"/>
<circle cx="89.2098" cy="122.419" r="0.651163" fill="black"/>
<circle cx="100.279" cy="122.419" r="0.651163" fill="black"/>
<circle cx="111.348" cy="122.419" r="0.651163" fill="black"/>
<circle cx="0.651163" cy="133.488" r="0.651163" fill="black"/>
<circle cx="11.7205" cy="133.488" r="0.651163" fill="black"/>
<circle cx="22.7908" cy="133.488" r="0.651163" fill="black"/>
<circle cx="33.8601" cy="133.488" r="0.651163" fill="black"/>
<circle cx="44.9305" cy="133.488" r="0.651163" fill="black"/>
<circle cx="55.9998" cy="133.488" r="0.651163" fill="black"/>
<circle cx="67.0701" cy="133.488" r="0.651163" fill="black"/>
<circle cx="78.1394" cy="133.488" r="0.651163" fill="black"/>
<circle cx="89.2098" cy="133.488" r="0.651163" fill="black"/>
<circle cx="100.279" cy="133.488" r="0.651163" fill="black"/>
<circle cx="111.348" cy="133.488" r="0.651163" fill="black"/>
<circle cx="0.651163" cy="144.558" r="0.651163" fill="black"/>
<circle cx="11.7205" cy="144.558" r="0.651163" fill="black"/>
<circle cx="22.7908" cy="144.558" r="0.651163" fill="black"/>
<circle cx="33.8601" cy="144.558" r="0.651163" fill="black"/>
<circle cx="44.9305" cy="144.558" r="0.651163" fill="black"/>
<circle cx="55.9998" cy="144.558" r="0.651163" fill="black"/>
<circle cx="67.0701" cy="144.558" r="0.651163" fill="black"/>
<circle cx="78.1394" cy="144.558" r="0.651163" fill="black"/>
<circle cx="89.2098" cy="144.558" r="0.651163" fill="black"/>
<circle cx="100.279" cy="144.558" r="0.651163" fill="black"/>
<circle cx="111.348" cy="144.558" r="0.651163" fill="black"/>
</svg>
