<svg xmlns="http://www.w3.org/2000/svg" viewBox="0 0 5017.00 1025.00"><g transform="translate(-10.76,765.00) scale(1,-1)"><path fill="#142430" transform="translate(0,0)" d="M304.37890625 -12Q232.620361328125 -12 174.86181640625 21.67236328125Q117.103271484375 55.3447265625 83.930908203125 114.8447265625Q50.758544921875 174.3447265625 50.758544921875 251Q50.758544921875 329.6552734375 84.1378173828125 389.4483642578125Q117.51708984375 449.241455078125 175.189453125 482.6207275390625Q232.86181640625 516 304.620361328125 516Q378.965087890625 516 436.2236328125 482.6207275390625Q493.482177734375 449.241455078125 527.154541015625 389.4483642578125Q560.826904296875 329.6552734375 560.826904296875 252Q560.826904296875 174.3447265625 526.9476318359375 114.8447265625Q493.068359375 55.3447265625 435.6029052734375 21.67236328125Q378.137451171875 -12 304.37890625 -12ZM304.792724609375 104.5498046875Q337.82763671875 104.5498046875 364.2763671875 121.0672607421875Q390.72509765625 137.584716796875 406.9840087890625 170.61962890625Q423.242919921875 203.654541015625 423.242919921875 252Q423.242919921875 300.75927734375 407.19091796875 333.5872802734375Q391.138916015625 366.415283203125 364.8970947265625 382.9327392578125Q338.6552734375 399.4501953125 305.20654296875 399.4501953125Q273.171630859375 399.4501953125 246.222900390625 382.9327392578125Q219.274169921875 366.415283203125 203.808349609375 333.5872802734375Q188.342529296875 300.75927734375 188.342529296875 252Q188.342529296875 203.654541015625 204.1014404296875 170.61962890625Q219.8603515625 137.584716796875 246.1021728515625 121.0672607421875Q272.343994140625 104.5498046875 304.792724609375 104.5498046875Z"/><path fill="#142430" transform="translate(590,0)" d="M66.48291015625 -220V504H186.446533203125L200.480712890625 434.89599609375Q216.480712890625 456.55126953125 238.5498046875 475.120361328125Q260.618896484375 493.689453125 291.515625 504.8447265625Q322.412353515625 516 362.722900390625 516Q434.378173828125 516 488.2919921875 481.0Q542.205810546875 446 573.5850830078125 386.5Q604.96435546875 327 604.96435546875 251Q604.96435546875 175.586181640625 573.2919921875 115.7930908203125Q541.61962890625 56 487.205810546875 22.0Q432.7919921875 -12 363.4814453125 -12Q307.757080078125 -12 267.118896484375 8.310546875Q226.480712890625 28.62109375 201.480712890625 65.41455078125V-220ZM332.20654296875 105.5498046875Q371.241455078125 105.5498046875 401.62109375 124.274169921875Q432.000732421875 142.99853515625 449.3974609375 175.533447265625Q466.794189453125 208.068359375 466.794189453125 251.413818359375Q466.794189453125 294.345458984375 449.3974609375 327.38037109375Q432.000732421875 360.415283203125 401.62109375 379.4327392578125Q371.241455078125 398.4501953125 332.20654296875 398.4501953125Q292.171630859375 398.4501953125 261.7919921875 379.4327392578125Q231.412353515625 360.415283203125 214.515625 327.38037109375Q197.618896484375 294.345458984375 197.618896484375 252Q197.618896484375 208.654541015625 214.515625 175.8265380859375Q231.412353515625 142.99853515625 261.7919921875 124.274169921875Q292.171630859375 105.5498046875 332.20654296875 105.5498046875Z"/><path fill="#142430" transform="translate(1224,0)" d="M293.7919921875 0Q241.171630859375 0 201.4305419921875 16.6378173828125Q161.689453125 33.275634765625 139.7930908203125 71.7581787109375Q117.896728515625 110.24072265625 117.896728515625 176.61962890625V391.381103515625H31.069091796875V504H117.896728515625L132.413818359375 641.826904296875H252.308349609375V504H384.826171875V391.381103515625H252.89453125V175.447265625Q252.89453125 141.34326171875 267.791259765625 128.0672607421875Q282.68798828125 114.791259765625 318.96435546875 114.791259765625H384.101806640625V0Z"/><path fill="#142430" transform="translate(1637,0)" d="M69.207275390625 0V504H204.205078125V0ZM136.999267578125 572.898193359375Q100.275634765625 572.898193359375 77.0345458984375 594.673828125Q53.79345703125 616.449462890625 53.79345703125 649.06982421875Q53.79345703125 682.2763671875 77.0345458984375 703.63818359375Q100.275634765625 725 136.999267578125 725Q173.895263671875 725 197.34326171875 703.63818359375Q220.791259765625 682.2763671875 220.791259765625 649.06982421875Q220.791259765625 616.449462890625 197.34326171875 594.673828125Q173.895263671875 572.898193359375 136.999267578125 572.898193359375Z"/><path fill="#142430" transform="translate(1891,0)" d="M66.48291015625 0V504H185.274169921875L195.5498046875 437.275634765625Q219.5498046875 472.758544921875 259.463623046875 494.3792724609375Q299.37744140625 516 350.308349609375 516Q387.5498046875 516 417.87744140625 506.3792724609375Q448.205078125 496.758544921875 471.3258056640625 477.603271484375Q494.446533203125 458.447998046875 510.03271484375 429.55126953125Q538.37744140625 469.689453125 583.291259765625 492.8447265625Q628.205078125 516 681.963623046875 516Q746.41162109375 516 790.7908935546875 489.8621826171875Q835.170166015625 463.724365234375 857.497802734375 413.5865478515625Q879.825439453125 363.44873046875 879.825439453125 290.44873046875V0H745.82763671875V277.931640625Q745.82763671875 338.104736328125 722.1549072265625 370.242919921875Q698.482177734375 402.381103515625 650.1025390625 402.381103515625Q617.550537109375 402.381103515625 592.99853515625 386.2774658203125Q568.446533203125 370.173828125 554.5498046875 340.552734375Q540.653076171875 310.931640625 540.653076171875 268V0H406.241455078125V277.931640625Q406.241455078125 338.104736328125 382.275634765625 370.242919921875Q358.309814453125 402.381103515625 307.7578125 402.381103515625Q276.7919921875 402.381103515625 253.0330810546875 386.570556640625Q229.274169921875 370.760009765625 215.37744140625 340.8458251953125Q201.480712890625 310.931640625 201.480712890625 268V0Z"/><path fill="#142430" transform="translate(2812,0)" d="M69.207275390625 0V504H204.205078125V0ZM136.999267578125 572.898193359375Q100.275634765625 572.898193359375 77.0345458984375 594.673828125Q53.79345703125 616.449462890625 53.79345703125 649.06982421875Q53.79345703125 682.2763671875 77.0345458984375 703.63818359375Q100.275634765625 725 136.999267578125 725Q173.895263671875 725 197.34326171875 703.63818359375Q220.791259765625 682.2763671875 220.791259765625 649.06982421875Q220.791259765625 616.449462890625 197.34326171875 594.673828125Q173.895263671875 572.898193359375 136.999267578125 572.898193359375Z"/><path fill="#142430" transform="translate(3066,0)" d="M272.309814453125 -12Q202.275634765625 -12 151.9654541015625 10.4654541015625Q101.6552734375 32.930908203125 72.6898193359375 71.3101806640625Q43.724365234375 109.689453125 39.48291015625 158.930908203125H174.135986328125Q177.963623046875 140.55126953125 189.8603515625 125.2923583984375Q201.757080078125 110.033447265625 221.9298095703125 100.63671875Q242.1025390625 91.239990234375 270.37890625 91.239990234375Q296.586181640625 91.239990234375 314.310546875 98.80908203125Q332.034912109375 106.378173828125 340.60400390625 119.1025390625Q349.173095703125 131.826904296875 349.173095703125 145.792724609375Q349.173095703125 167.413818359375 337.017822265625 178.4312744140625Q324.862548828125 189.44873046875 301.2589111328125 196.8970947265625Q277.6552734375 204.345458984375 244.689453125 210.75927734375Q209.3447265625 218.517822265625 174.7069091796875 228.517822265625Q140.069091796875 238.517822265625 112.724365234375 255.017822265625Q85.379638671875 271.517822265625 69.707275390625 296.3970947265625Q54.034912109375 321.2763671875 54.034912109375 358.034912109375Q54.034912109375 402.79345703125 78.0865478515625 438.63818359375Q102.13818359375 474.48291015625 148.32763671875 495.241455078125Q194.51708984375 516 258.309814453125 516Q349.861083984375 516 403.0850830078125 474.9483642578125Q456.30908203125 433.896728515625 466.4814453125 361.6552734375H339.517822265625Q333.345458984375 385.5869140625 312.879638671875 398.88037109375Q292.413818359375 412.173828125 257.89599609375 412.173828125Q222.033447265625 412.173828125 203.395263671875 399.3287353515625Q184.757080078125 386.483642578125 184.757080078125 366.034912109375Q184.757080078125 351.896728515625 196.7916259765625 340.7930908203125Q208.826171875 329.689453125 231.5159912109375 321.620361328125Q254.205810546875 313.55126953125 287.93017578125 307.137451171875Q346.13671875 295.20654296875 389.7745361328125 279.9134521484375Q433.412353515625 264.620361328125 458.912353515625 235.70654296875Q484.412353515625 206.792724609375 484.412353515625 153.37890625Q484.412353515625 104.620361328125 458.567626953125 67.5687255859375Q432.722900390625 30.51708984375 384.7403564453125 9.258544921875Q336.7578125 -12 272.309814453125 -12Z"/><path fill="#4a7fb5" transform="translate(3577,0)" d="M235.758544921875 -12Q173.586181640625 -12 132.2930908203125 8.6207275390625Q91 29.241455078125 71.2930908203125 63.8621826171875Q51.586181640625 98.48291015625 51.586181640625 140.48291015625Q51.586181640625 186.207275390625 75.1552734375 221.4141845703125Q98.724365234375 256.62109375 146.63818359375 276.29345703125Q194.552001953125 295.9658203125 267 295.9658203125H390.62109375Q390.62109375 333.000732421875 380.810546875 357.466552734375Q371 381.932373046875 350.2410888671875 394.1221923828125Q329.482177734375 406.31201171875 294.343994140625 406.31201171875Q256.30908203125 406.31201171875 229.8087158203125 389.6392822265625Q203.308349609375 372.966552734375 197.06689453125 338.862548828125H65.930908203125Q71.3447265625 393.44873046875 101.5516357421875 432.5865478515625Q131.758544921875 471.724365234375 182.275634765625 493.8621826171875Q232.792724609375 516 294.93017578125 516Q366.688720703125 516 418.46435546875 492.258544921875Q470.239990234375 468.51708984375 497.929443359375 423.3101806640625Q525.618896484375 378.103271484375 525.618896484375 312V0H411.930908203125L396.9658203125 76.690185546875Q386.379638671875 57.44873046875 371.1727294921875 41.29345703125Q355.9658203125 25.13818359375 335.8450927734375 13.1036376953125Q315.724365234375 1.069091796875 290.98291015625 -5.4654541015625Q266.241455078125 -12 235.758544921875 -12ZM268.1025390625 92.412353515625Q293.7236328125 92.412353515625 314.3101806640625 101.63671875Q334.896728515625 110.861083984375 349.62109375 127.8614501953125Q364.345458984375 144.86181640625 373.3800048828125 166.1898193359375Q382.41455078125 187.517822265625 385.345458984375 212.138916015625V213.38037109375H282.20654296875Q251.378173828125 213.38037109375 231.6363525390625 205.6905517578125Q211.89453125 198.000732421875 202.997802734375 183.94873046875Q194.10107421875 169.896728515625 194.10107421875 152.103271484375Q194.10107421875 132.7236328125 203.3770751953125 119.4647216796875Q212.653076171875 106.205810546875 229.53271484375 99.30908203125Q246.412353515625 92.412353515625 268.1025390625 92.412353515625Z"/><path fill="#4a7fb5" transform="translate(4143,0)" d="M289.6552734375 -12Q220.758544921875 -12 166.3447265625 22.2069091796875Q111.930908203125 56.413818359375 81.3447265625 116.1207275390625Q50.758544921875 175.82763671875 50.758544921875 251.82763671875Q50.758544921875 327.82763671875 81.6378173828125 387.913818359375Q112.51708984375 448 168.01708984375 482.0Q223.51708984375 516 293 516Q347.9658203125 516 388.3109130859375 495.9825439453125Q428.656005859375 475.965087890625 453.06982421875 439.7578125V720H588.067626953125V0H468.10400390625L454.06982421875 70.10400390625Q438.656005859375 47.44873046875 416.2938232421875 28.879638671875Q393.931640625 10.310546875 362.7418212890625 -0.8447265625Q331.552001953125 -12 289.6552734375 -12ZM322.516357421875 105.5498046875Q362.55126953125 105.5498046875 392.6378173828125 124.5672607421875Q422.724365234375 143.584716796875 439.9141845703125 176.11962890625Q457.10400390625 208.654541015625 457.10400390625 252Q457.10400390625 294.931640625 439.9141845703125 327.966552734375Q422.724365234375 361.00146484375 392.3447265625 379.725830078125Q361.965087890625 398.4501953125 321.93017578125 398.4501953125Q282.895263671875 398.4501953125 252.2225341796875 379.725830078125Q221.5498046875 361.00146484375 204.653076171875 327.966552734375Q187.75634765625 294.931640625 187.75634765625 252.586181640625Q187.75634765625 209.24072265625 204.653076171875 176.4127197265625Q221.5498046875 143.584716796875 252.2225341796875 124.5672607421875Q282.895263671875 105.5498046875 322.516357421875 105.5498046875Z"/><path fill="#4a7fb5" transform="translate(4778,0)" d="M126.96435546875 -5Q89.654541015625 -5 66.4134521484375 17.6549072265625Q43.17236328125 40.309814453125 43.17236328125 72.516357421875Q43.17236328125 105.895263671875 66.4134521484375 128.5501708984375Q89.654541015625 151.205078125 126.96435546875 151.205078125Q163.68798828125 151.205078125 186.72216796875 128.5501708984375Q209.75634765625 105.895263671875 209.75634765625 72.516357421875Q209.75634765625 40.309814453125 186.72216796875 17.6549072265625Q163.68798828125 -5 126.96435546875 -5Z"/></g></svg>