<svg width="1920" height="694" viewBox="0 0 1920 694" fill="none" xmlns="http://www.w3.org/2000/svg">
<g opacity="0.8">
<path d="M2066 95.1619C1958.27 91.4536 1746.04 123.013 1758.99 278.916C1775.17 473.795 1742.26 651.412 1324.64 502.951C907.011 354.489 796.4 497.196 706.293 540.929C616.185 584.662 42.0867 651.412 239.028 240.938C435.97 -169.536 -88.4883 16.9034 -88.4883 278.916" stroke="url(#paint0_linear_886_105)" stroke-opacity="0.2"/>
<path d="M2055.62 105.54C1947.89 101.832 1735.66 133.391 1748.61 289.294C1764.8 484.173 1731.88 661.79 1314.26 513.329C896.634 364.867 786.023 507.574 695.916 551.307C605.808 595.04 31.7098 661.79 228.651 251.316C425.593 -159.158 -98.8652 27.2813 -98.8652 289.294" stroke="url(#paint1_linear_886_105)" stroke-opacity="0.2"/>
<path d="M2066 115.918C1958.27 112.209 1746.04 143.769 1758.99 299.672C1775.17 494.551 1742.26 672.168 1324.64 523.706C907.011 375.245 796.4 517.952 706.293 561.685C616.185 605.418 42.0867 672.168 239.028 261.694C435.97 -148.78 -88.4883 37.6593 -88.4883 299.672" stroke="url(#paint2_linear_886_105)" stroke-opacity="0.2"/>
<path d="M2045.24 115.918C1937.51 112.209 1725.28 143.769 1738.23 299.672C1754.42 494.551 1721.5 672.168 1303.88 523.706C886.256 375.245 775.644 517.952 685.537 561.685C595.429 605.418 21.3309 672.168 218.273 261.694C415.214 -148.78 -109.244 37.6593 -109.244 299.672" stroke="url(#paint3_linear_886_105)" stroke-opacity="0.2"/>
<path d="M2024.49 115.918C1916.75 112.209 1704.53 143.769 1717.47 299.672C1733.66 494.551 1700.75 672.168 1283.12 523.706C865.5 375.245 754.889 517.952 664.781 561.685C574.673 605.418 0.574992 672.168 197.517 261.694C394.458 -148.78 -130 37.6593 -130 299.672" stroke="url(#paint4_linear_886_105)" stroke-opacity="0.2"/>
<path d="M2024.49 136.675C1916.75 132.966 1704.53 164.526 1717.47 320.429C1733.66 515.308 1700.75 692.924 1283.12 544.463C865.5 396.002 754.889 538.709 664.781 582.442C574.673 626.174 0.574992 692.924 197.517 282.45C394.458 -128.024 -130 58.4161 -130 320.429" stroke="url(#paint5_linear_886_105)" stroke-opacity="0.2"/>
<path d="M2024.49 157.43C1916.75 153.722 1704.53 185.281 1717.47 341.185C1733.66 536.064 1700.75 713.68 1283.12 565.219C865.5 416.758 754.889 559.465 664.781 603.198C574.673 646.93 0.574992 713.68 197.517 303.206C394.458 -107.268 -130 79.172 -130 341.185" stroke="url(#paint6_linear_886_105)" stroke-opacity="0.2"/>
<path d="M2055.62 157.43C1947.89 153.722 1735.66 185.281 1748.61 341.185C1764.8 536.064 1731.88 713.68 1314.26 565.219C896.634 416.758 786.023 559.465 695.916 603.198C605.808 646.93 31.7098 713.68 228.651 303.206C425.593 -107.268 -98.8652 79.172 -98.8652 341.185" stroke="url(#paint7_linear_886_105)" stroke-opacity="0.2"/>
<path d="M2066 152.241C1958.27 148.533 1746.04 180.092 1758.99 335.995C1775.17 530.875 1742.26 708.491 1324.64 560.03C907.011 411.569 796.4 554.275 706.293 598.008C616.185 641.741 42.0867 708.491 239.028 298.017C435.97 -112.457 -88.4883 73.9825 -88.4883 335.995" stroke="url(#paint8_linear_886_105)" stroke-opacity="0.2"/>
<path d="M2055.62 162.619C1947.89 158.911 1735.66 190.47 1748.61 346.373C1764.8 541.253 1731.88 718.869 1314.26 570.408C896.634 421.946 786.023 564.653 695.916 608.386C605.808 652.119 31.7098 718.869 228.651 308.395C425.593 -102.079 -98.8652 84.3604 -98.8652 346.373" stroke="url(#paint9_linear_886_105)" stroke-opacity="0.2"/>
<path d="M2066 172.997C1958.27 169.289 1746.04 200.848 1758.99 356.751C1775.17 551.63 1742.26 729.247 1324.64 580.786C907.011 432.324 796.4 575.031 706.293 618.764C616.185 662.497 42.0867 729.247 239.028 318.773C435.97 -91.7013 -88.4883 94.7384 -88.4883 356.751" stroke="url(#paint10_linear_886_105)" stroke-opacity="0.2"/>
<path d="M2045.24 172.997C1937.51 169.289 1725.28 200.848 1738.23 356.751C1754.42 551.63 1721.5 729.247 1303.88 580.786C886.256 432.324 775.644 575.031 685.537 618.764C595.429 662.497 21.3309 729.247 218.273 318.773C415.214 -91.7013 -109.244 94.7384 -109.244 356.751" stroke="url(#paint11_linear_886_105)" stroke-opacity="0.2"/>
<path d="M2024.49 172.997C1916.75 169.289 1704.53 200.848 1717.47 356.751C1733.66 551.63 1700.75 729.247 1283.12 580.786C865.5 432.324 754.889 575.031 664.781 618.764C574.673 662.497 0.574992 729.247 197.517 318.773C394.458 -91.7013 -130 94.7384 -130 356.751" stroke="url(#paint12_linear_886_105)" stroke-opacity="0.2"/>
<path d="M2024.49 193.754C1916.75 190.045 1704.53 221.605 1717.47 377.508C1733.66 572.387 1700.75 750.004 1283.12 601.542C865.5 453.081 754.889 595.788 664.781 639.521C574.673 683.254 0.574992 750.004 197.517 339.53C394.458 -70.9445 -130 115.495 -130 377.508" stroke="url(#paint13_linear_886_105)" stroke-opacity="0.2"/>
<path d="M2024.49 214.51C1916.75 210.801 1704.53 242.36 1717.47 398.264C1733.66 593.143 1700.75 770.759 1283.12 622.298C865.5 473.837 754.889 616.544 664.781 660.277C574.673 704.009 0.574992 770.759 197.517 360.285C394.458 -50.1886 -130 136.251 -130 398.264" stroke="url(#paint14_linear_886_105)" stroke-opacity="0.2"/>
<path d="M2055.62 214.51C1947.89 210.801 1735.66 242.36 1748.61 398.264C1764.8 593.143 1731.88 770.759 1314.26 622.298C896.634 473.837 786.023 616.544 695.916 660.277C605.808 704.009 31.7098 770.759 228.651 360.285C425.593 -50.1886 -98.8652 136.251 -98.8652 398.264" stroke="url(#paint15_linear_886_105)" stroke-opacity="0.2"/>
</g>
<defs>
<linearGradient id="paint0_linear_886_105" x1="988.756" y1="92.8459" x2="988.756" y2="621.09" gradientUnits="userSpaceOnUse">
<stop stop-color="#020202" stop-opacity="0.37"/>
<stop offset="1" stop-opacity="0.21"/>
</linearGradient>
<linearGradient id="paint1_linear_886_105" x1="978.379" y1="103.224" x2="978.379" y2="631.468" gradientUnits="userSpaceOnUse">
<stop stop-color="#020202" stop-opacity="0.37"/>
<stop offset="1" stop-opacity="0.21"/>
</linearGradient>
<linearGradient id="paint2_linear_886_105" x1="988.756" y1="113.602" x2="988.756" y2="641.846" gradientUnits="userSpaceOnUse">
<stop stop-color="#020202" stop-opacity="0.37"/>
<stop offset="1" stop-opacity="0.21"/>
</linearGradient>
<linearGradient id="paint3_linear_886_105" x1="968" y1="113.602" x2="968" y2="641.846" gradientUnits="userSpaceOnUse">
<stop stop-color="#020202" stop-opacity="0.37"/>
<stop offset="1" stop-opacity="0.21"/>
</linearGradient>
<linearGradient id="paint4_linear_886_105" x1="947.244" y1="113.602" x2="947.244" y2="641.846" gradientUnits="userSpaceOnUse">
<stop stop-color="#020202" stop-opacity="0.37"/>
<stop offset="1" stop-opacity="0.21"/>
</linearGradient>
<linearGradient id="paint5_linear_886_105" x1="947.244" y1="134.359" x2="947.244" y2="662.603" gradientUnits="userSpaceOnUse">
<stop stop-color="#020202" stop-opacity="0.37"/>
<stop offset="1" stop-opacity="0.21"/>
</linearGradient>
<linearGradient id="paint6_linear_886_105" x1="947.244" y1="155.114" x2="947.244" y2="683.358" gradientUnits="userSpaceOnUse">
<stop stop-color="#020202" stop-opacity="0.37"/>
<stop offset="1" stop-opacity="0.21"/>
</linearGradient>
<linearGradient id="paint7_linear_886_105" x1="978.379" y1="155.114" x2="978.379" y2="683.358" gradientUnits="userSpaceOnUse">
<stop stop-color="#020202" stop-opacity="0.37"/>
<stop offset="1" stop-opacity="0.21"/>
</linearGradient>
<linearGradient id="paint8_linear_886_105" x1="988.756" y1="149.925" x2="988.756" y2="678.169" gradientUnits="userSpaceOnUse">
<stop stop-color="#020202" stop-opacity="0.37"/>
<stop offset="1" stop-opacity="0.21"/>
</linearGradient>
<linearGradient id="paint9_linear_886_105" x1="978.379" y1="160.303" x2="978.379" y2="688.547" gradientUnits="userSpaceOnUse">
<stop stop-color="#020202" stop-opacity="0.37"/>
<stop offset="1" stop-opacity="0.21"/>
</linearGradient>
<linearGradient id="paint10_linear_886_105" x1="988.756" y1="170.681" x2="988.756" y2="698.925" gradientUnits="userSpaceOnUse">
<stop stop-color="#020202" stop-opacity="0.37"/>
<stop offset="1" stop-opacity="0.21"/>
</linearGradient>
<linearGradient id="paint11_linear_886_105" x1="968" y1="170.681" x2="968" y2="698.925" gradientUnits="userSpaceOnUse">
<stop stop-color="#020202" stop-opacity="0.37"/>
<stop offset="1" stop-opacity="0.21"/>
</linearGradient>
<linearGradient id="paint12_linear_886_105" x1="947.244" y1="170.681" x2="947.244" y2="698.925" gradientUnits="userSpaceOnUse">
<stop stop-color="#020202" stop-opacity="0.37"/>
<stop offset="1" stop-opacity="0.21"/>
</linearGradient>
<linearGradient id="paint13_linear_886_105" x1="947.244" y1="191.438" x2="947.244" y2="719.682" gradientUnits="userSpaceOnUse">
<stop stop-color="#020202" stop-opacity="0.37"/>
<stop offset="1" stop-opacity="0.21"/>
</linearGradient>
<linearGradient id="paint14_linear_886_105" x1="947.244" y1="212.194" x2="947.244" y2="740.437" gradientUnits="userSpaceOnUse">
<stop stop-color="#020202" stop-opacity="0.37"/>
<stop offset="1" stop-opacity="0.21"/>
</linearGradient>
<linearGradient id="paint15_linear_886_105" x1="978.379" y1="212.194" x2="978.379" y2="740.437" gradientUnits="userSpaceOnUse">
<stop stop-color="#020202" stop-opacity="0.37"/>
<stop offset="1" stop-opacity="0.21"/>
</linearGradient>
</defs>
</svg>
