<svg width="420" height="180" viewBox="0 0 420 180" fill="none" xmlns="http://www.w3.org/2000/svg">
<g opacity="0.07">
<path d="M309.006 130.51C298.253 155.782 262.002 164.386 245.221 165.53C184.957 170.838 108.155 135.388 74.8957 115.828C41.6362 96.2672 25.7083 69.2748 75.967 53.4138C126.226 37.5527 160.127 13.9607 231.531 10.5603C302.936 7.15985 359.669 33.573 368.882 58.3928C378.095 83.2125 322.447 98.9201 309.006 130.51Z" stroke="url(#paint0_linear_473_810)"/>
<path d="M311.612 136.405C292 162.697 246.759 170.182 226.589 170.637C153.83 173.549 72.6092 132.528 38.583 110.305C4.55677 88.0826 -6.9348 58.7655 56.8608 44.2233C120.656 29.681 167.202 6.21076 252.624 5.82337C338.047 5.43596 397.983 35.9768 402.12 62.6895C406.258 89.4021 336.127 103.539 311.612 136.405Z" stroke="url(#paint1_linear_473_810)"/>
<path d="M288.973 125.905C273.73 146.339 238.568 152.156 222.893 152.51C166.345 154.773 103.221 122.892 76.7755 105.621C50.3305 88.3491 41.3993 65.5641 90.9809 54.2619C140.563 42.9597 176.737 24.7188 243.127 24.4177C309.517 24.1166 356.099 47.8528 359.315 68.6137C362.531 89.3747 308.025 100.362 288.973 125.905Z" stroke="url(#paint2_linear_473_810)"/>
<path d="M278.753 121.165C265.483 138.955 234.872 144.019 221.225 144.327C171.994 146.297 117.039 118.542 94.0164 103.506C70.9937 88.4692 63.2182 68.6328 106.383 58.7933C149.549 48.9537 181.042 33.0733 238.841 32.8112C296.639 32.5491 337.193 53.2136 339.992 71.2878C342.792 89.3621 295.34 98.9274 278.753 121.165Z" stroke="url(#paint3_linear_473_810)"/>
<path d="M268.823 116.56C257.469 131.781 231.279 136.114 219.603 136.377C177.482 138.063 130.464 114.316 110.766 101.451C91.0684 88.5863 84.4159 71.6147 121.347 63.1962C158.278 54.7777 185.224 41.1907 234.675 40.9665C284.126 40.7422 318.823 58.4223 321.218 73.8863C323.613 89.3502 283.014 97.5341 268.823 116.56Z" stroke="url(#paint4_linear_473_810)"/>
<path d="M254.772 110.043C246.131 121.627 226.197 124.925 217.31 125.126C185.252 126.408 149.467 108.335 134.475 98.5432C119.483 88.7518 114.419 75.8347 142.528 69.4274C170.636 63.02 191.144 52.679 228.782 52.5083C266.419 52.3376 292.827 65.794 294.65 77.5636C296.473 89.3332 265.573 95.562 254.772 110.043Z" stroke="url(#paint5_linear_473_810)"/>
<path d="M246.029 105.987C239.076 115.31 223.034 117.964 215.882 118.125C190.084 119.157 161.285 104.613 149.22 96.733C137.155 88.8533 133.081 78.4583 155.701 73.302C178.321 68.1456 194.825 59.8237 225.114 59.6863C255.402 59.5489 276.654 70.378 278.121 79.8496C279.588 89.3212 254.722 94.3338 246.029 105.987Z" stroke="url(#paint6_linear_473_810)"/>
<path d="M238.854 102.66C233.285 110.126 220.438 112.251 214.711 112.381C194.051 113.207 170.988 101.559 161.326 95.2491C151.664 88.9388 148.401 80.6141 166.516 76.4848C184.631 72.3554 197.848 65.6909 222.104 65.5809C246.36 65.4709 263.379 74.1431 264.554 81.7283C265.729 89.3135 245.815 93.3277 238.854 102.66Z" stroke="url(#paint7_linear_473_810)"/>
</g>
<defs>
<linearGradient id="paint0_linear_473_810" x1="243.516" y1="165.694" x2="229.839" y2="10.4346" gradientUnits="userSpaceOnUse">
<stop stop-color="#3A3A3A"/>
<stop offset="1" stop-color="#3A3A3A" stop-opacity="0"/>
</linearGradient>
<linearGradient id="paint1_linear_473_810" x1="224.527" y1="170.735" x2="217.973" y2="6.9217" gradientUnits="userSpaceOnUse">
<stop stop-color="#3A3A3A"/>
<stop offset="1" stop-color="#3A3A3A" stop-opacity="0"/>
</linearGradient>
<linearGradient id="paint2_linear_473_810" x1="221.29" y1="152.586" x2="216.196" y2="25.2713" gradientUnits="userSpaceOnUse">
<stop stop-color="#3A3A3A"/>
<stop offset="1" stop-color="#3A3A3A" stop-opacity="0"/>
</linearGradient>
<linearGradient id="paint3_linear_473_810" x1="219.829" y1="144.393" x2="215.395" y2="33.5544" gradientUnits="userSpaceOnUse">
<stop stop-color="#3A3A3A"/>
<stop offset="1" stop-color="#3A3A3A" stop-opacity="0"/>
</linearGradient>
<linearGradient id="paint4_linear_473_810" x1="218.409" y1="136.434" x2="214.615" y2="41.6023" gradientUnits="userSpaceOnUse">
<stop stop-color="#3A3A3A"/>
<stop offset="1" stop-color="#3A3A3A" stop-opacity="0"/>
</linearGradient>
<linearGradient id="paint5_linear_473_810" x1="216.402" y1="125.169" x2="213.514" y2="52.9923" gradientUnits="userSpaceOnUse">
<stop stop-color="#3A3A3A"/>
<stop offset="1" stop-color="#3A3A3A" stop-opacity="0"/>
</linearGradient>
<linearGradient id="paint6_linear_473_810" x1="215.151" y1="118.16" x2="212.827" y2="60.0758" gradientUnits="userSpaceOnUse">
<stop stop-color="#3A3A3A"/>
<stop offset="1" stop-color="#3A3A3A" stop-opacity="0"/>
</linearGradient>
<linearGradient id="paint7_linear_473_810" x1="214.126" y1="112.408" x2="212.264" y2="65.8928" gradientUnits="userSpaceOnUse">
<stop stop-color="#3A3A3A"/>
<stop offset="1" stop-color="#3A3A3A" stop-opacity="0"/>
</linearGradient>
</defs>
</svg>
