<svg width="463" height="744" viewBox="0 0 463 744" fill="none" xmlns="http://www.w3.org/2000/svg">
<g opacity="0.3">
<circle opacity="0.15" cx="362" cy="312" r="312" fill="url(#paint0_linear_473_603)"/>
<circle opacity="0.15" cx="181" cy="493" r="181" fill="url(#paint1_linear_473_603)"/>
<g opacity="0.12">
<path d="M328.147 87.8556C335.137 53.1746 358.7 41.3665 369.608 39.7976C408.779 32.5122 458.701 81.1616 480.319 108.005C501.938 134.847 512.291 171.889 479.623 193.656C446.955 215.422 424.919 247.798 378.506 252.464C332.093 257.131 295.216 220.884 289.228 186.823C283.24 152.763 319.411 131.207 328.147 87.8556Z" stroke="url(#paint2_linear_473_603)"/>
<path d="M326.452 79.7677C339.2 43.686 368.607 33.415 381.717 32.7897C429.011 28.7947 481.804 85.0874 503.921 115.584C526.038 146.081 533.508 186.313 492.041 206.27C450.573 226.226 420.319 258.435 364.794 258.966C309.27 259.498 270.311 217.586 267.622 180.928C264.932 144.27 310.517 124.87 326.452 79.7677Z" stroke="url(#paint3_linear_473_603)"/>
<path d="M341.167 94.1759C351.075 66.1334 373.93 58.1509 384.119 57.6649C420.875 54.56 461.906 98.3104 479.095 122.012C496.284 145.714 502.09 176.983 469.862 192.493C437.634 208.003 414.12 233.035 370.966 233.448C327.813 233.861 297.535 201.288 295.444 172.797C293.354 144.307 328.783 129.229 341.167 94.1759Z" stroke="url(#paint4_linear_473_603)"/>
<path d="M347.81 100.681C356.435 76.2676 376.332 69.318 385.203 68.895C417.203 66.1919 452.924 104.281 467.888 124.915C482.853 145.55 487.907 172.772 459.85 186.275C431.792 199.777 411.322 221.57 373.753 221.93C336.184 222.29 309.824 193.932 308.004 169.128C306.184 144.325 337.028 131.198 347.81 100.681Z" stroke="url(#paint5_linear_473_603)"/>
<path d="M354.265 107.001C361.645 86.1135 378.669 80.1676 386.258 79.8057C413.636 77.493 444.198 110.081 457.002 127.735C469.805 145.39 474.13 168.68 450.124 180.233C426.119 191.786 408.605 210.432 376.461 210.739C344.318 211.047 321.765 186.784 320.208 165.563C318.651 144.342 345.041 133.111 354.265 107.001Z" stroke="url(#paint6_linear_473_603)"/>
<path d="M363.399 115.945C369.015 100.047 381.972 95.5216 387.749 95.2461C408.586 93.4859 431.847 118.289 441.592 131.725C451.336 145.162 454.628 162.889 436.357 171.682C418.087 180.474 404.756 194.666 380.292 194.9C355.828 195.134 338.663 176.668 337.478 160.516C336.293 144.364 356.378 135.817 363.399 115.945Z" stroke="url(#paint7_linear_473_603)"/>
<path d="M369.08 121.508C373.6 108.715 384.027 105.073 388.676 104.851C405.445 103.435 424.164 123.395 432.006 134.208C439.848 145.021 442.497 159.287 427.794 166.363C413.09 173.439 402.363 184.859 382.675 185.048C362.988 185.236 349.174 170.375 348.22 157.377C347.267 144.379 363.43 137.501 369.08 121.508Z" stroke="url(#paint8_linear_473_603)"/>
<path d="M373.745 126.076C377.365 115.831 385.715 112.914 389.438 112.736C402.867 111.602 417.858 127.587 424.138 136.246C430.419 144.906 432.54 156.33 420.765 161.997C408.99 167.664 400.399 176.809 384.633 176.96C368.866 177.111 357.804 165.21 357.04 154.801C356.277 144.392 369.221 138.883 373.745 126.076Z" stroke="url(#paint9_linear_473_603)"/>
</g>
<g opacity="0.5">
<g opacity="0.1">
<circle cx="50.6785" cy="644.891" r="2.67854" fill="#705FFF"/>
<circle cx="50.6785" cy="660.964" r="2.67854" fill="#705FFF"/>
<circle cx="50.6785" cy="677.034" r="2.67854" fill="#705FFF"/>
<circle cx="50.6785" cy="693.106" r="2.67854" fill="#705FFF"/>
<circle cx="50.6785" cy="709.177" r="2.67854" fill="#705FFF"/>
<circle cx="66.7489" cy="612.749" r="2.67854" fill="#705FFF"/>
<circle cx="66.7489" cy="628.821" r="2.67854" fill="#705FFF"/>
<circle cx="53.8934" cy="628.821" r="2.67854" fill="#705FFF"/>
<circle cx="66.7489" cy="644.891" r="2.67854" fill="#705FFF"/>
<circle cx="66.7489" cy="660.964" r="2.67854" fill="#705FFF"/>
<circle cx="66.7489" cy="677.034" r="2.67854" fill="#705FFF"/>
<circle cx="66.7489" cy="693.106" r="2.67854" fill="#705FFF"/>
<circle cx="66.7489" cy="709.179" r="2.67854" fill="#705FFF"/>
<circle cx="66.7489" cy="725.249" r="2.67854" fill="#705FFF"/>
<circle cx="82.8231" cy="612.749" r="2.67854" fill="#705FFF"/>
<circle cx="82.8231" cy="602.036" r="2.67854" fill="#705FFF"/>
<circle cx="82.8231" cy="628.821" r="2.67854" fill="#705FFF"/>
<circle cx="82.8231" cy="644.891" r="2.67854" fill="#705FFF"/>
<circle cx="82.8231" cy="660.964" r="2.67854" fill="#705FFF"/>
<circle cx="82.8231" cy="677.034" r="2.67854" fill="#705FFF"/>
<circle cx="82.8231" cy="693.106" r="2.67854" fill="#705FFF"/>
<circle cx="82.8231" cy="709.177" r="2.67854" fill="#705FFF"/>
<circle cx="82.8231" cy="725.249" r="2.67854" fill="#705FFF"/>
<circle cx="82.8231" cy="741.319" r="2.67854" fill="#705FFF"/>
<circle cx="98.8934" cy="596.679" r="2.67854" fill="#705FFF"/>
<circle cx="98.8934" cy="612.749" r="2.67854" fill="#705FFF"/>
<circle cx="98.8934" cy="628.821" r="2.67854" fill="#705FFF"/>
<circle cx="98.8934" cy="644.891" r="2.67854" fill="#705FFF"/>
<circle cx="98.8934" cy="660.964" r="2.67854" fill="#705FFF"/>
<circle cx="98.8934" cy="677.034" r="2.67854" fill="#705FFF"/>
<circle cx="98.8934" cy="693.106" r="2.67854" fill="#705FFF"/>
<circle cx="98.8934" cy="709.177" r="2.67854" fill="#705FFF"/>
<circle cx="98.8934" cy="725.249" r="2.67854" fill="#705FFF"/>
<circle cx="98.8934" cy="741.319" r="2.67854" fill="#705FFF"/>
<circle cx="114.962" cy="596.679" r="2.67854" fill="#705FFF"/>
<circle cx="114.962" cy="612.749" r="2.67854" fill="#705FFF"/>
<circle cx="114.962" cy="628.821" r="2.67854" fill="#705FFF"/>
<circle cx="114.962" cy="644.891" r="2.67854" fill="#705FFF"/>
<circle cx="114.962" cy="660.964" r="2.67854" fill="#705FFF"/>
<circle cx="114.962" cy="677.034" r="2.67854" fill="#705FFF"/>
<circle cx="114.962" cy="693.106" r="2.67854" fill="#705FFF"/>
<circle cx="114.962" cy="709.179" r="2.67854" fill="#705FFF"/>
<circle cx="114.962" cy="725.249" r="2.67854" fill="#705FFF"/>
<circle cx="114.962" cy="741.319" r="2.67854" fill="#705FFF"/>
<circle cx="131.032" cy="596.679" r="2.67854" fill="#705FFF"/>
<circle cx="131.032" cy="612.749" r="2.67854" fill="#705FFF"/>
<circle cx="131.032" cy="628.821" r="2.67854" fill="#705FFF"/>
<circle cx="131.032" cy="644.891" r="2.67854" fill="#705FFF"/>
<circle cx="131.032" cy="660.964" r="2.67854" fill="#705FFF"/>
<circle cx="131.032" cy="677.034" r="2.67854" fill="#705FFF"/>
<circle cx="131.032" cy="693.106" r="2.67854" fill="#705FFF"/>
<circle cx="131.032" cy="709.179" r="2.67854" fill="#705FFF"/>
<circle cx="131.032" cy="725.249" r="2.67854" fill="#705FFF"/>
<circle cx="131.032" cy="741.319" r="2.67854" fill="#705FFF"/>
<circle cx="147.106" cy="596.679" r="2.67854" fill="#705FFF"/>
<circle cx="147.106" cy="612.749" r="2.67854" fill="#705FFF"/>
<circle cx="147.106" cy="628.821" r="2.67854" fill="#705FFF"/>
<circle cx="147.106" cy="644.891" r="2.67854" fill="#705FFF"/>
<circle cx="147.106" cy="660.964" r="2.67854" fill="#705FFF"/>
<circle cx="147.106" cy="677.034" r="2.67854" fill="#705FFF"/>
<circle cx="147.104" cy="693.106" r="2.67854" fill="#705FFF"/>
<circle cx="147.106" cy="709.177" r="2.67854" fill="#705FFF"/>
<circle cx="147.106" cy="725.249" r="2.67854" fill="#705FFF"/>
<circle cx="147.106" cy="741.319" r="2.67854" fill="#705FFF"/>
<circle cx="147.106" cy="596.679" r="2.67854" fill="#705FFF"/>
<circle cx="147.106" cy="612.749" r="2.67854" fill="#705FFF"/>
<circle cx="147.106" cy="628.821" r="2.67854" fill="#705FFF"/>
<circle cx="147.106" cy="644.891" r="2.67854" fill="#705FFF"/>
<circle cx="147.106" cy="660.964" r="2.67854" fill="#705FFF"/>
<circle cx="147.106" cy="677.034" r="2.67854" fill="#705FFF"/>
<circle cx="147.104" cy="693.106" r="2.67854" fill="#705FFF"/>
<circle cx="147.106" cy="709.177" r="2.67854" fill="#705FFF"/>
<circle cx="147.106" cy="725.249" r="2.67854" fill="#705FFF"/>
<circle cx="147.106" cy="741.319" r="2.67854" fill="#705FFF"/>
<circle cx="163.177" cy="612.749" r="2.67854" fill="#705FFF"/>
<circle cx="163.177" cy="628.821" r="2.67854" fill="#705FFF"/>
<circle cx="163.177" cy="644.891" r="2.67854" fill="#705FFF"/>
<circle cx="163.177" cy="660.964" r="2.67854" fill="#705FFF"/>
<circle cx="163.177" cy="677.034" r="2.67854" fill="#705FFF"/>
<circle cx="163.177" cy="693.106" r="2.67854" fill="#705FFF"/>
<circle cx="163.177" cy="709.179" r="2.67854" fill="#705FFF"/>
<circle cx="163.177" cy="725.249" r="2.67854" fill="#705FFF"/>
<circle cx="163.177" cy="741.319" r="2.67854" fill="#705FFF"/>
<circle cx="179.249" cy="628.821" r="2.67854" fill="#705FFF"/>
<circle cx="179.249" cy="644.891" r="2.67854" fill="#705FFF"/>
<circle cx="179.249" cy="660.964" r="2.67854" fill="#705FFF"/>
<circle cx="179.249" cy="677.034" r="2.67854" fill="#705FFF"/>
<circle cx="179.249" cy="693.106" r="2.67854" fill="#705FFF"/>
<circle cx="179.249" cy="709.177" r="2.67854" fill="#705FFF"/>
<circle cx="179.249" cy="725.249" r="2.67854" fill="#705FFF"/>
<circle cx="195.321" cy="644.891" r="2.67854" fill="#705FFF"/>
<circle cx="195.321" cy="660.964" r="2.67854" fill="#705FFF"/>
<circle cx="195.321" cy="677.034" r="2.67854" fill="#705FFF"/>
<circle cx="195.321" cy="693.106" r="2.67854" fill="#705FFF"/>
</g>
</g>
</g>
<defs>
<linearGradient id="paint0_linear_473_603" x1="213" y1="692.5" x2="800.033" y2="440.366" gradientUnits="userSpaceOnUse">
<stop stop-color="#23D2A5" stop-opacity="0.6"/>
<stop offset="0.973958" stop-color="#1B00FF" stop-opacity="0.3"/>
</linearGradient>
<linearGradient id="paint1_linear_473_603" x1="94.5609" y1="713.739" x2="435.115" y2="567.468" gradientUnits="userSpaceOnUse">
<stop stop-color="#23D2A5" stop-opacity="0.6"/>
<stop offset="0.973958" stop-color="#1B00FF" stop-opacity="0.3"/>
</linearGradient>
<linearGradient id="paint2_linear_473_603" x1="370.716" y1="39.5718" x2="409.315" y2="247.111" gradientUnits="userSpaceOnUse">
<stop stop-color="#3A3A3A"/>
<stop offset="1" stop-color="#3A3A3A" stop-opacity="0"/>
</linearGradient>
<linearGradient id="paint3_linear_473_603" x1="383.057" y1="32.6559" x2="401.943" y2="256.224" gradientUnits="userSpaceOnUse">
<stop stop-color="#3A3A3A"/>
<stop offset="1" stop-color="#3A3A3A" stop-opacity="0"/>
</linearGradient>
<linearGradient id="paint4_linear_473_603" x1="385.16" y1="57.5609" x2="399.838" y2="231.317" gradientUnits="userSpaceOnUse">
<stop stop-color="#3A3A3A"/>
<stop offset="1" stop-color="#3A3A3A" stop-opacity="0"/>
</linearGradient>
<linearGradient id="paint5_linear_473_603" x1="386.11" y1="68.8044" x2="398.888" y2="220.074" gradientUnits="userSpaceOnUse">
<stop stop-color="#3A3A3A"/>
<stop offset="1" stop-color="#3A3A3A" stop-opacity="0"/>
</linearGradient>
<linearGradient id="paint6_linear_473_603" x1="387.034" y1="79.7282" x2="397.967" y2="209.152" gradientUnits="userSpaceOnUse">
<stop stop-color="#3A3A3A"/>
<stop offset="1" stop-color="#3A3A3A" stop-opacity="0"/>
</linearGradient>
<linearGradient id="paint7_linear_473_603" x1="388.339" y1="95.1871" x2="396.66" y2="193.691" gradientUnits="userSpaceOnUse">
<stop stop-color="#3A3A3A"/>
<stop offset="1" stop-color="#3A3A3A" stop-opacity="0"/>
</linearGradient>
<linearGradient id="paint8_linear_473_603" x1="389.151" y1="104.804" x2="395.847" y2="184.075" gradientUnits="userSpaceOnUse">
<stop stop-color="#3A3A3A"/>
<stop offset="1" stop-color="#3A3A3A" stop-opacity="0"/>
</linearGradient>
<linearGradient id="paint9_linear_473_603" x1="389.819" y1="112.698" x2="395.181" y2="176.181" gradientUnits="userSpaceOnUse">
<stop stop-color="#3A3A3A"/>
<stop offset="1" stop-color="#3A3A3A" stop-opacity="0"/>
</linearGradient>
</defs>
</svg>
