<svg width="112" height="112" viewBox="0 0 112 112" fill="none" xmlns="http://www.w3.org/2000/svg">
<path d="M62.3417 12.4085C61.024 12.2374 59.9116 11.8438 59.0217 11.2277C58.1318 10.5945 57.4986 9.7902 57.105 8.79763C56.7114 7.80507 56.5916 6.6927 56.7456 5.44344C56.8654 4.51932 57.105 3.69789 57.4986 2.96202C57.8922 2.22615 58.3885 1.6443 59.0046 1.16513C59.6207 0.685956 60.3394 0.360804 61.1609 0.172559C61.9823 -0.0156871 62.8893 -0.0499136 63.8648 0.0698791C64.3781 0.138332 64.9258 0.258125 65.4734 0.44637C66.021 0.634616 66.5002 0.874202 66.8938 1.16513C67.1847 1.37049 67.3901 1.61007 67.4756 1.88388C67.5612 2.15769 67.5783 2.43151 67.5099 2.70532C67.4414 2.97913 67.3045 3.2016 67.1163 3.40696C66.928 3.59521 66.7056 3.715 66.4489 3.76634C66.1922 3.81768 65.9183 3.73211 65.6445 3.56098C65.3194 3.35562 64.9942 3.2016 64.6862 3.0647C64.3781 2.92779 64.0188 2.85934 63.6594 2.808C62.9578 2.72243 62.3588 2.77377 61.8454 2.99624C61.332 3.21872 60.9384 3.54387 60.6475 4.02304C60.3394 4.50221 60.1512 5.11829 60.0656 5.87127C59.98 6.62425 60.0143 7.25744 60.1854 7.80507C60.3565 8.35269 60.6646 8.78052 61.1095 9.10567C61.5545 9.43082 62.1192 9.63618 62.8208 9.72175C63.1118 9.75597 63.4369 9.75597 63.7792 9.72175C64.1215 9.68752 64.4808 9.61907 64.8231 9.49928C65.1825 9.3966 65.4905 9.3966 65.7472 9.49928C66.0039 9.60196 66.2093 9.75597 66.3462 9.99556C66.4831 10.218 66.5686 10.4747 66.5686 10.7314C66.5686 11.0052 66.5173 11.2619 66.3633 11.5015C66.2093 11.7411 65.9868 11.9294 65.6616 12.0491C65.2338 12.2374 64.7204 12.3572 64.1215 12.4256C63.5225 12.4941 62.9406 12.477 62.3588 12.4256L62.3417 12.4085Z" fill="#5F39FF"/>
<path d="M69.1355 13.9828C68.6564 13.8116 68.3483 13.5549 68.1772 13.2298C68.006 12.9046 68.006 12.4939 68.1772 12.0147L70.0767 6.6754C70.2479 6.21334 70.4875 5.9053 70.8126 5.73417C71.1378 5.58015 71.5314 5.58015 71.9934 5.73417C72.4384 5.88819 72.7464 6.14488 72.9004 6.47004C73.0544 6.79519 73.0373 7.20591 72.8833 7.66796L72.6437 8.33538L72.4897 8.28404C72.832 7.68508 73.2769 7.25725 73.8588 7.05189C74.4406 6.82941 75.0738 6.82941 75.7412 7.05189C76.0493 7.15457 76.2546 7.30859 76.3573 7.53106C76.46 7.75353 76.4258 8.09579 76.2717 8.54074C76.1348 8.93434 75.9466 9.20816 75.707 9.37929C75.4674 9.55042 75.108 9.56753 74.646 9.44774L74.2695 9.34506C73.6876 9.19104 73.2085 9.20816 72.8662 9.37929C72.5068 9.55042 72.2501 9.89269 72.0619 10.4061L71.1207 13.0415C70.9495 13.5207 70.6928 13.8287 70.3677 13.9828C70.0254 14.1368 69.6318 14.1368 69.1526 13.9828H69.1355Z" fill="#5F39FF"/>
<path d="M78.5306 18.3639C77.6407 17.8334 76.9733 17.2344 76.5112 16.5499C76.0492 15.8654 75.8096 15.1295 75.8096 14.3594C75.8096 13.5893 76.032 12.8192 76.4941 12.032C76.939 11.279 77.4867 10.7314 78.1541 10.3549C78.8215 9.97843 79.5231 9.80729 80.2932 9.82441C81.0633 9.84152 81.7992 10.0811 82.5351 10.5089C83.0827 10.8341 83.5105 11.2106 83.8528 11.6384C84.1951 12.0662 84.4175 12.5454 84.5373 13.0588C84.6571 13.5722 84.6571 14.1027 84.5373 14.6675C84.4346 15.2322 84.1951 15.7969 83.8699 16.3617C83.7501 16.567 83.6132 16.6697 83.4421 16.7039C83.2709 16.7382 83.0827 16.6697 82.8431 16.5328L78.3423 13.8631L79.0782 12.631L82.3468 14.5648L82.0046 14.6161C82.227 14.2567 82.3468 13.9316 82.3811 13.6407C82.4153 13.3497 82.3811 13.093 82.2442 12.8706C82.1072 12.6481 81.919 12.4427 81.6281 12.2716C81.32 12.0834 81.012 12.0149 80.7211 12.0149C80.4301 12.0149 80.1221 12.1347 79.8483 12.3401C79.5745 12.5454 79.3007 12.8535 79.0611 13.2642L78.9755 13.4011C78.5648 14.1027 78.4279 14.6846 78.5477 15.1637C78.6675 15.6429 79.0782 16.0707 79.7114 16.4643C79.9339 16.5841 80.1906 16.7039 80.4986 16.8237C80.8066 16.9435 81.1147 17.012 81.4398 17.0633C81.765 17.1146 81.9875 17.2344 82.1415 17.4056C82.2955 17.5767 82.3639 17.7821 82.3811 17.9874C82.3811 18.1928 82.3468 18.3981 82.2442 18.6035C82.1415 18.8089 81.9875 18.9629 81.7821 19.0827C81.5767 19.2025 81.3372 19.2538 81.0462 19.2196C80.6013 19.1682 80.1734 19.0827 79.7456 18.9287C79.3178 18.7746 78.89 18.5864 78.4963 18.3468L78.5306 18.3639Z" fill="#5F39FF"/>
<path d="M84.7946 23.0015C84.3155 22.5566 83.9732 22.0774 83.785 21.564C83.5796 21.0506 83.5283 20.5543 83.6138 20.058C83.6994 19.5618 83.9219 19.1168 84.2812 18.7232C84.7091 18.2783 85.154 18.0216 85.6161 17.9873C86.0952 17.9531 86.6429 18.1071 87.2589 18.4836C87.875 18.8601 88.628 19.442 89.4837 20.2463L90.1682 20.8966L89.1927 21.9405L88.5082 21.2902C88.1831 20.9822 87.8921 20.7597 87.6354 20.6057C87.3787 20.4516 87.1563 20.3832 86.968 20.3832C86.7798 20.3832 86.6086 20.4688 86.4717 20.6057C86.3006 20.7939 86.215 21.0164 86.2321 21.2731C86.2493 21.5298 86.3862 21.7694 86.66 22.009C86.8653 22.1972 87.0878 22.3341 87.3445 22.3854C87.6012 22.4368 87.8408 22.4368 88.0975 22.3854C88.3542 22.317 88.5767 22.1801 88.782 21.9576L90.134 20.503C90.4078 20.1949 90.5276 19.9211 90.4933 19.6473C90.4591 19.3735 90.2538 19.0655 89.8773 18.7232C89.6719 18.535 89.4323 18.3467 89.1414 18.1585C88.8505 17.9702 88.4911 17.7991 88.0804 17.628C87.7723 17.5082 87.567 17.337 87.4643 17.1317C87.3616 16.9263 87.3274 16.7038 87.3787 16.4814C87.4301 16.2589 87.5328 16.0707 87.6868 15.8995C87.8408 15.7284 88.0462 15.6257 88.2857 15.5744C88.5253 15.523 88.7991 15.5573 89.0901 15.6771C89.6377 15.8995 90.0997 16.1391 90.4762 16.4129C90.8527 16.6867 91.195 16.9434 91.4859 17.2001C92.1704 17.8333 92.6496 18.4665 92.9063 19.0826C93.163 19.6987 93.2144 20.3147 93.0603 20.9137C92.9063 21.5298 92.5298 22.1459 91.9309 22.779L89.5692 25.3118C89.227 25.6712 88.8847 25.8765 88.5253 25.9108C88.1659 25.945 87.8237 25.791 87.4985 25.4829C87.1563 25.1578 86.9851 24.8326 86.9851 24.4733C86.9851 24.1139 87.1563 23.7545 87.4985 23.378L87.8066 23.0529L87.721 23.2924C87.4301 23.5149 87.122 23.6518 86.7969 23.7203C86.4717 23.7887 86.1295 23.7374 85.7872 23.6176C85.4449 23.4978 85.1198 23.2924 84.8117 23.0015H84.7946Z" fill="#5F39FF"/>
<path d="M92.1869 31.4728C91.6906 30.7711 91.3826 30.1379 91.2628 29.5219C91.143 28.9058 91.2286 28.3582 91.5024 27.8277C91.7762 27.2971 92.2383 26.8009 92.8714 26.3217L95.1304 24.6959L94.7881 24.2168C94.5828 23.9258 94.4801 23.6349 94.5314 23.3611C94.5657 23.0873 94.7368 22.8477 95.0277 22.6252C95.3186 22.4199 95.6096 22.3343 95.8834 22.3856C96.1572 22.437 96.3968 22.6081 96.6021 22.899L96.9444 23.3782L97.8001 22.7621C98.2108 22.4712 98.5873 22.3514 98.9638 22.4028C99.3231 22.4541 99.6654 22.6937 99.9392 23.0873C100.23 23.4809 100.333 23.8745 100.281 24.2339C100.23 24.5933 99.9906 24.9355 99.5798 25.2264L98.7242 25.8425L99.5456 26.972C99.7681 27.28 99.8537 27.571 99.8194 27.8448C99.7852 28.1186 99.6141 28.3582 99.3231 28.5806C99.0322 28.786 98.7413 28.8716 98.4675 28.8373C98.1937 28.8031 97.9541 28.6149 97.7316 28.3068L96.9102 27.1602L94.7368 28.7347C94.3945 28.9742 94.2063 29.2481 94.1549 29.5219C94.1036 29.7957 94.2063 30.1208 94.463 30.4631C94.5485 30.6 94.6683 30.7027 94.771 30.8054C94.8737 30.908 94.9764 31.0107 95.0448 31.1134C95.1646 31.2503 95.1988 31.4043 95.1817 31.5755C95.1475 31.7295 94.9593 31.9348 94.617 32.1915C94.3432 32.3969 94.0694 32.5167 93.8298 32.568C93.5731 32.6194 93.3335 32.568 93.0939 32.414C92.957 32.3113 92.7859 32.1744 92.5976 31.9691C92.4094 31.7637 92.2554 31.6097 92.1527 31.4557L92.1869 31.4728Z" fill="#5F39FF"/>
<path d="M94.6519 35.6654C94.4294 35.2376 94.3952 34.844 94.515 34.4846C94.6519 34.1252 94.9599 33.8172 95.422 33.5605L100.231 31.079C100.71 30.8395 101.138 30.7539 101.514 30.8566C101.891 30.9593 102.182 31.216 102.404 31.6438C102.627 32.0716 102.678 32.4823 102.541 32.8588C102.404 33.2353 102.113 33.5434 101.634 33.7829L96.8253 36.2644C96.3461 36.5039 95.9183 36.5895 95.5418 36.4868C95.1653 36.3842 94.8573 36.1103 94.6348 35.6654H94.6519ZM103.482 31.0962C103.243 30.617 103.157 30.1892 103.243 29.8127C103.328 29.4362 103.585 29.1452 104.013 28.9228C104.424 28.7003 104.817 28.6661 105.177 28.8201C105.536 28.957 105.827 29.265 106.084 29.7442C106.34 30.2405 106.426 30.6683 106.323 31.0448C106.238 31.4213 105.981 31.7122 105.57 31.9176C105.142 32.1401 104.749 32.1743 104.406 32.0374C104.047 31.9005 103.739 31.5753 103.482 31.079V31.0962Z" fill="#5F39FF"/>
<path d="M97.4249 42.2886C97.3051 41.9121 97.288 41.5527 97.3907 41.2275C97.4933 40.9024 97.7158 40.5943 98.041 40.2863L102.61 36.2305C102.901 35.9909 103.175 35.854 103.483 35.8026C103.774 35.7513 104.048 35.8197 104.287 36.008C104.527 36.1791 104.715 36.4872 104.852 36.8979C104.972 37.2401 104.972 37.5482 104.886 37.8049C104.801 38.0616 104.561 38.3525 104.15 38.6777L100.454 41.6896L100.283 41.142L105.092 41.5013C105.588 41.5356 105.964 41.6383 106.187 41.7923C106.409 41.9634 106.598 42.2372 106.717 42.6137C106.82 42.9389 106.82 43.2298 106.717 43.4865C106.615 43.7432 106.426 43.9314 106.153 44.0683C105.879 44.2052 105.571 44.2395 105.194 44.2052L99.0849 43.5549C98.657 43.5207 98.2977 43.3838 98.0239 43.1784C97.75 42.9731 97.5618 42.665 97.4249 42.2886Z" fill="#5F39FF"/>
<path d="M99.3574 51.9913C99.2548 50.9645 99.3403 50.0746 99.6141 49.2874C99.8879 48.5002 100.35 47.8841 100.966 47.422C101.582 46.96 102.335 46.669 103.242 46.5835C104.098 46.4979 104.885 46.6006 105.57 46.9257C106.254 47.2338 106.819 47.7129 107.264 48.329C107.709 48.9622 107.965 49.6981 108.051 50.5366C108.119 51.1527 108.068 51.7346 107.931 52.2651C107.777 52.7956 107.538 53.2576 107.195 53.6684C106.853 54.062 106.425 54.3871 105.912 54.6267C105.398 54.8663 104.817 55.0203 104.149 55.0888C103.927 55.1059 103.756 55.0716 103.636 54.9518C103.516 54.8321 103.447 54.6438 103.413 54.37L102.883 49.1676L104.32 49.0135L104.714 52.7956L104.457 52.5389C104.885 52.5046 105.21 52.402 105.467 52.2651C105.724 52.1282 105.895 51.9399 106.014 51.7003C106.134 51.4607 106.169 51.1869 106.134 50.8618C106.1 50.5024 105.98 50.2115 105.792 49.9719C105.604 49.7323 105.347 49.5612 105.005 49.4585C104.663 49.3558 104.269 49.3216 103.79 49.3729H103.636C102.831 49.4756 102.267 49.7152 101.959 50.1088C101.651 50.5024 101.531 51.0671 101.616 51.8201C101.651 52.0768 101.702 52.3506 101.805 52.6758C101.907 53.0009 102.027 53.2919 102.164 53.5828C102.301 53.8737 102.352 54.1133 102.301 54.3358C102.25 54.5582 102.147 54.7465 101.976 54.8834C101.805 55.0203 101.616 55.1059 101.394 55.1401C101.171 55.1743 100.949 55.1401 100.726 55.0545C100.504 54.969 100.316 54.7978 100.179 54.5411C99.9564 54.1646 99.7682 53.7539 99.6312 53.309C99.4943 52.864 99.4088 52.4191 99.3574 51.9741V51.9913Z" fill="#5F39FF"/>
<path d="M99.1523 63.577C99.2892 63.132 99.5116 62.8411 99.8197 62.67C100.128 62.4988 100.504 62.4817 100.949 62.6186L110.053 65.3225C110.498 65.4594 110.806 65.6819 110.96 66.007C111.114 66.3322 111.132 66.7258 110.995 67.1707C110.875 67.5472 110.721 67.8382 110.498 68.0093C110.293 68.1975 109.985 68.3173 109.591 68.4029L102.216 70.0458L102.387 69.4639L107.675 74.8546C107.948 75.1455 108.137 75.4364 108.222 75.7102C108.308 75.9841 108.291 76.3092 108.171 76.6857C108.034 77.1306 107.829 77.4216 107.521 77.5927C107.213 77.7638 106.836 77.781 106.391 77.644L97.2869 74.9402C96.842 74.8032 96.551 74.5979 96.3799 74.2898C96.2088 73.9818 96.1917 73.6053 96.3286 73.1604C96.4655 72.7154 96.688 72.4245 96.996 72.2534C97.304 72.0822 97.6805 72.0651 98.1255 72.202L103.773 73.8791L103.67 74.2214L99.871 70.2169C99.6828 69.9944 99.5459 69.772 99.4774 69.5666C99.409 69.3612 99.409 69.1216 99.4945 68.8307C99.5801 68.5569 99.6999 68.3516 99.871 68.2146C100.042 68.0777 100.265 67.9751 100.556 67.9066L105.963 66.6231L105.844 66.9996L100.179 65.3225C99.7341 65.1856 99.4432 64.9802 99.272 64.6722C99.1009 64.3642 99.0838 63.9877 99.2207 63.5427L99.1523 63.577Z" fill="#5F39FF"/>
<path d="M93.8641 77.4731C94.1037 77.0623 94.4118 76.8056 94.7883 76.7201C95.1648 76.6345 95.5926 76.7201 96.0546 76.9768L100.761 79.6464C101.223 79.9031 101.514 80.2283 101.634 80.6048C101.753 80.9813 101.702 81.3578 101.462 81.7856C101.223 82.2134 100.915 82.4701 100.521 82.5728C100.128 82.6755 99.7169 82.5728 99.2548 82.3161L94.5487 79.6464C94.0866 79.3897 93.7957 79.0646 93.6759 78.6881C93.5561 78.3116 93.6246 77.918 93.8641 77.4731ZM102.506 82.3846C102.763 81.9225 103.088 81.6145 103.448 81.4947C103.807 81.3749 104.201 81.4262 104.611 81.6487C105.022 81.8712 105.262 82.1792 105.33 82.5557C105.398 82.9322 105.313 83.36 105.039 83.8221C104.765 84.3012 104.44 84.6093 104.081 84.7462C103.721 84.866 103.345 84.8146 102.934 84.5922C102.523 84.3526 102.267 84.0445 102.198 83.6852C102.113 83.3087 102.215 82.8808 102.489 82.4017L102.506 82.3846Z" fill="#5F39FF"/>
<path d="M91.2464 81.6827C91.5545 81.3062 91.8967 81.118 92.2561 81.0837C92.6326 81.0495 93.0091 81.1864 93.3856 81.5116L97.7495 85.1225C98.1259 85.4305 98.3313 85.7728 98.3655 86.1321C98.3998 86.4915 98.2629 86.868 97.9719 87.2274C97.6639 87.6039 97.3387 87.7921 96.9622 87.8264C96.6029 87.8606 96.2264 87.7066 95.8499 87.3985L95.2338 86.8851L95.9012 87.1932C96.1408 87.7408 96.2093 88.3055 96.1066 88.8874C96.0039 89.4521 95.7472 89.9997 95.3365 90.496C94.9087 91.0094 94.4637 91.3517 93.9845 91.5228C93.5054 91.6939 92.992 91.6939 92.4444 91.5228C91.8967 91.3517 91.2978 90.9923 90.6646 90.4618L87.8922 88.1686C87.4986 87.8435 87.2933 87.5012 87.259 87.1418C87.2248 86.7653 87.3617 86.4059 87.6698 86.0295C87.9778 85.653 88.3201 85.4476 88.6966 85.4134C89.073 85.3792 89.4495 85.5161 89.826 85.8412L92.4957 88.0488C92.8893 88.374 93.2316 88.5451 93.5054 88.5451C93.7792 88.5451 94.0359 88.4082 94.2584 88.1515C94.5493 87.7921 94.6691 87.4327 94.6177 87.022C94.5664 86.6284 94.361 86.269 93.9674 85.961L91.4347 83.8732C90.6475 83.2229 90.579 82.5041 91.2293 81.6998L91.2464 81.6827Z" fill="#5F39FF"/>
<path d="M82.8261 90.308C83.408 89.8802 84.0241 89.6406 84.6744 89.5892C85.3247 89.5379 85.975 89.6919 86.6253 90.0342C87.2756 90.3765 87.8745 90.907 88.405 91.6257C88.9527 92.3616 89.3121 93.0804 89.449 93.7991C89.5859 94.5179 89.5345 95.1682 89.312 95.7842C89.0896 96.4003 88.6789 96.9308 88.097 97.3587C87.6007 97.7352 87.0531 97.9576 86.4713 98.0261C85.8894 98.0945 85.3931 97.9919 84.9824 97.718L85.1364 97.5982L87.3269 100.525C87.635 100.918 87.7547 101.312 87.7034 101.671C87.6521 102.031 87.4296 102.373 87.036 102.664C86.6595 102.955 86.283 103.074 85.9065 103.023C85.53 102.972 85.2049 102.749 84.8968 102.339L79.3179 94.9115C79.0099 94.5179 78.8901 94.1243 78.9414 93.7649C78.9928 93.4055 79.2152 93.0632 79.6088 92.7723C79.9853 92.4814 80.3618 92.3616 80.7383 92.4129C81.0977 92.4643 81.44 92.6867 81.748 93.0975L82.3298 93.8847L81.6795 93.3199C81.5084 92.8065 81.5255 92.276 81.7309 91.7284C81.9534 91.1808 82.3127 90.7016 82.8432 90.308H82.8261ZM83.3909 92.6867C83.1513 92.875 82.963 93.0975 82.8775 93.3713C82.7748 93.6451 82.7748 93.936 82.8604 94.2612C82.9459 94.5863 83.1342 94.9628 83.4422 95.3564C83.9043 95.9725 84.3492 96.3148 84.7942 96.4174C85.2391 96.5201 85.6327 96.4174 86.0092 96.1436C86.2488 95.9554 86.437 95.7329 86.5397 95.4762C86.6424 95.2195 86.6595 94.9115 86.5739 94.5863C86.4884 94.2612 86.3001 93.8847 85.9921 93.474C85.5471 92.875 85.0851 92.5156 84.6572 92.43C84.2123 92.3274 83.8016 92.43 83.4251 92.7039L83.3909 92.6867Z" fill="#5F39FF"/>
<path d="M73.7903 95.8184C74.2523 95.6131 74.7315 95.4248 75.2278 95.2879C75.7241 95.1339 76.2204 95.0654 76.6824 95.0654C76.9905 95.0654 77.23 95.0997 77.4354 95.2366C77.6408 95.3735 77.7606 95.5275 77.8461 95.7328C77.9317 95.9382 77.9488 96.1436 77.9146 96.3489C77.8803 96.5543 77.7777 96.7425 77.6408 96.8965C77.4867 97.0506 77.2814 97.1361 77.0076 97.1532C76.4942 97.1875 76.0663 97.2559 75.6727 97.3586C75.2962 97.4442 74.9369 97.564 74.6288 97.718C74.2523 97.8891 73.9956 98.0774 73.8758 98.2656C73.756 98.4539 73.7389 98.625 73.8245 98.8132C73.893 98.9672 73.9956 99.0699 74.1497 99.1041C74.3037 99.1384 74.4748 99.1213 74.6802 99.0699L76.5284 98.5565C77.23 98.3854 77.829 98.3854 78.3424 98.5908C78.8558 98.7961 79.2494 99.1726 79.5061 99.7545C79.7457 100.302 79.8141 100.833 79.6772 101.363C79.5403 101.894 79.2665 102.39 78.8216 102.835C78.3766 103.297 77.8119 103.673 77.1274 103.999C76.6653 104.204 76.2204 104.375 75.8096 104.478C75.3989 104.58 74.9711 104.632 74.5261 104.615C74.2523 104.615 74.0299 104.563 73.8587 104.426C73.6876 104.289 73.5678 104.118 73.4994 103.93C73.4309 103.725 73.4138 103.519 73.448 103.314C73.4822 103.109 73.5849 102.92 73.7389 102.784C73.893 102.647 74.1325 102.561 74.4064 102.527C74.8171 102.51 75.1593 102.458 75.4503 102.407C75.7412 102.356 75.9979 102.27 76.2375 102.167C76.6653 101.979 76.9391 101.774 77.0589 101.586C77.1787 101.397 77.2129 101.209 77.1274 101.021C77.0589 100.884 76.9733 100.798 76.8364 100.747C76.6995 100.696 76.5284 100.713 76.323 100.764L74.4577 101.26C73.7389 101.466 73.14 101.466 72.6095 101.278C72.0961 101.089 71.7025 100.713 71.4287 100.114C71.0522 99.2753 71.0693 98.471 71.4971 97.718C71.9249 96.965 72.6779 96.3489 73.756 95.8526L73.7903 95.8184Z" fill="#5F39FF"/>
<path d="M68.5369 96.332C68.7765 96.2806 68.999 96.2977 69.2044 96.4175C69.4097 96.5373 69.5466 96.7085 69.598 96.9652C69.6493 97.2047 69.6151 97.4272 69.4953 97.6326C69.3755 97.8379 69.1872 97.9577 68.9305 98.0262L62.6842 99.515C62.4446 99.5664 62.2222 99.5493 62.0168 99.4124C61.8114 99.2926 61.6916 99.1043 61.6232 98.8647C61.5547 98.6252 61.6061 98.4027 61.7259 98.2144C61.8457 98.0262 62.0339 97.8893 62.2735 97.8379L68.5198 96.3491L68.5369 96.332Z" fill="#5F39FF"/>
<path d="M49.2499 99.3096C50.5677 99.4636 51.68 99.8401 52.587 100.473C53.4769 101.089 54.1272 101.894 54.5208 102.886C54.9144 103.879 55.0513 104.991 54.8973 106.24C54.7946 107.165 54.5551 108.003 54.1786 108.722C53.8021 109.441 53.3058 110.057 52.6897 110.536C52.0736 111.015 51.3549 111.357 50.5334 111.563C49.712 111.768 48.805 111.802 47.8295 111.7C47.3162 111.631 46.7685 111.511 46.2209 111.34C45.6733 111.169 45.1941 110.93 44.8005 110.639C44.5096 110.433 44.3042 110.194 44.2187 109.92C44.116 109.646 44.116 109.372 44.1844 109.098C44.2529 108.825 44.3898 108.602 44.5609 108.397C44.7492 108.191 44.9716 108.072 45.2283 108.037C45.485 107.986 45.7588 108.054 46.0327 108.243C46.3578 108.448 46.683 108.602 47.0081 108.722C47.3333 108.842 47.6755 108.927 48.0349 108.961C48.7365 109.047 49.3355 108.961 49.8489 108.756C50.3452 108.551 50.7559 108.191 51.0468 107.712C51.3378 107.233 51.526 106.617 51.6116 105.864C51.6971 105.111 51.6458 104.478 51.4747 103.93C51.3035 103.383 50.9784 102.955 50.5506 102.63C50.1056 102.304 49.5409 102.116 48.8392 102.031C48.5483 101.996 48.2232 101.996 47.8809 102.031C47.5386 102.065 47.1792 102.15 46.837 102.27C46.4776 102.373 46.1696 102.39 45.9129 102.27C45.6562 102.168 45.4508 102.014 45.3139 101.791C45.177 101.569 45.0914 101.329 45.0743 101.055C45.0743 100.781 45.1257 100.525 45.2797 100.285C45.4337 100.045 45.6562 99.8572 45.9642 99.7203C46.392 99.5321 46.9054 99.3952 47.5044 99.3267C48.1034 99.2583 48.6852 99.2583 49.2671 99.3267L49.2499 99.3096Z" fill="#5F39FF"/>
<path d="M42.4396 97.8036C42.9188 97.9747 43.2269 98.2143 43.398 98.5565C43.5691 98.8988 43.5691 99.2924 43.398 99.7716L41.5498 105.128C41.3957 105.59 41.139 105.898 40.8139 106.069C40.4887 106.24 40.0951 106.24 39.6502 106.069C39.2052 105.915 38.8972 105.676 38.7432 105.333C38.5892 105.008 38.5892 104.615 38.7432 104.135L38.9657 103.468L39.1197 103.519C38.7945 104.135 38.3325 104.546 37.7506 104.769C37.1688 104.991 36.5527 104.991 35.8682 104.786C35.543 104.683 35.3377 104.529 35.2521 104.307C35.1494 104.084 35.1836 103.742 35.3205 103.297C35.4574 102.903 35.6457 102.629 35.8853 102.458C36.1249 102.287 36.4842 102.253 36.9463 102.373L37.3228 102.475C37.9046 102.612 38.3838 102.595 38.7261 102.424C39.0683 102.253 39.3422 101.911 39.5133 101.38L40.4374 98.7277C40.6085 98.2485 40.8481 97.9405 41.1904 97.7693C41.5326 97.6153 41.9263 97.6153 42.4054 97.7693L42.4396 97.8036Z" fill="#5F39FF"/>
<path d="M33.0087 93.5253C33.8986 94.0386 34.5832 94.6376 35.0452 95.3221C35.5073 96.0067 35.7469 96.7425 35.764 97.5126C35.764 98.2827 35.5586 99.0528 35.1137 99.84C34.6858 100.593 34.1382 101.158 33.4708 101.534C32.8034 101.911 32.1017 102.099 31.3316 102.082C30.5615 102.082 29.8086 101.842 29.0727 101.414C28.5251 101.106 28.0801 100.73 27.7379 100.302C27.3956 99.8743 27.156 99.3951 27.0362 98.8817C26.9164 98.3683 26.8993 97.8378 27.002 97.273C27.1047 96.7083 27.3271 96.1436 27.6523 95.5788C27.7721 95.3735 27.909 95.2708 28.063 95.2366C28.217 95.2023 28.4224 95.2537 28.662 95.3906L33.197 98.0089L32.4782 99.2582L29.1925 97.3586L29.5348 97.3073C29.3294 97.6667 29.2096 97.9918 29.1754 98.2827C29.1411 98.5737 29.1754 98.8304 29.3123 99.0528C29.4321 99.2753 29.6374 99.4807 29.9284 99.6518C30.2364 99.8229 30.5444 99.9085 30.8525 99.8914C31.1605 99.8743 31.4514 99.7716 31.7252 99.5491C31.9991 99.3266 32.2558 99.0357 32.4953 98.6079L32.5638 98.471C32.9745 97.7693 33.1114 97.1875 32.9745 96.6912C32.8376 96.1949 32.444 95.7842 31.7937 95.4077C31.5712 95.2879 31.3145 95.1681 31.0065 95.0483C30.6985 94.9456 30.3733 94.8601 30.0653 94.8087C29.7572 94.7574 29.5176 94.6547 29.3636 94.4836C29.2096 94.3125 29.124 94.1242 29.1069 93.9017C29.1069 93.6964 29.1411 93.4739 29.2438 93.2857C29.3465 93.0803 29.5005 92.9263 29.7059 92.8065C29.9112 92.6867 30.1508 92.6354 30.4418 92.6696C30.8867 92.7038 31.3145 92.8065 31.7595 92.9605C32.1873 93.1145 32.6151 93.3028 33.0087 93.5253Z" fill="#5F39FF"/>
<path d="M26.678 88.9046C27.1572 89.3495 27.4994 89.8287 27.7048 90.325C27.9101 90.8384 27.9786 91.3347 27.893 91.831C27.8246 92.3272 27.6021 92.7722 27.2427 93.1658C26.832 93.6279 26.3871 93.8674 25.9079 93.9188C25.4287 93.9701 24.8811 93.799 24.265 93.4396C23.6318 93.0802 22.896 92.4984 22.0232 91.6941L21.3215 91.0609L22.297 89.9998L22.9986 90.633C23.3238 90.9411 23.6147 91.1635 23.8714 91.3176C24.1281 91.4716 24.3506 91.54 24.5388 91.54C24.7271 91.54 24.8982 91.4545 25.0351 91.3005C25.2063 91.1122 25.2918 90.8897 25.2747 90.633C25.2576 90.3763 25.1036 90.1368 24.8469 89.8972C24.6415 89.7089 24.4019 89.572 24.1623 89.5207C23.9228 89.4693 23.6661 89.4693 23.4094 89.5378C23.1527 89.6062 22.9302 89.7603 22.7248 89.9656L21.39 91.4202C21.1162 91.7283 20.9964 92.0021 21.0306 92.2759C21.0648 92.5497 21.2873 92.8578 21.6638 93.2C21.8692 93.3883 22.1088 93.5765 22.4168 93.7476C22.7077 93.9359 23.0671 94.107 23.4949 94.2782C23.803 94.3979 24.0083 94.5691 24.111 94.7744C24.2137 94.9798 24.2479 95.2023 24.2137 95.4247C24.1795 95.6472 24.0768 95.8355 23.9056 96.0066C23.7345 96.1777 23.5463 96.2804 23.3067 96.3317C23.0671 96.3831 22.7933 96.3489 22.5024 96.2462C21.9547 96.0237 21.4927 95.7841 21.1162 95.5274C20.7226 95.2707 20.3974 94.9969 20.1065 94.7402C19.422 94.107 18.9428 93.4909 18.669 92.8749C18.3952 92.2588 18.3438 91.6598 18.4979 91.0437C18.6519 90.4277 19.0113 89.8116 19.6102 89.1613L21.9547 86.6114C22.297 86.2349 22.6393 86.0467 22.9986 86.0125C23.358 85.9782 23.7003 86.1151 24.0254 86.4232C24.3677 86.7483 24.5388 87.0735 24.556 87.4329C24.556 87.7922 24.3848 88.1516 24.0597 88.5281L23.7516 88.8533L23.8372 88.6137C24.1281 88.3912 24.4362 88.2372 24.7613 88.1858C25.0865 88.1345 25.4287 88.1687 25.771 88.2714C26.1133 88.3912 26.4384 88.5794 26.7464 88.8704L26.678 88.9046Z" fill="#5F39FF"/>
<path d="M19.234 80.5361C19.7474 81.2207 20.0554 81.871 20.1752 82.4699C20.295 83.0689 20.2266 83.6336 19.9528 84.1813C19.6961 84.7118 19.234 85.2252 18.5837 85.6872L16.3419 87.3472L16.6841 87.8093C16.9066 88.1002 16.9922 88.3911 16.9579 88.6649C16.9237 88.9387 16.7526 89.1954 16.4617 89.4008C16.1707 89.6233 15.8798 89.7088 15.6231 89.6575C15.3493 89.6062 15.1097 89.435 14.8872 89.1441L14.545 88.682L13.6893 89.3152C13.2786 89.6062 12.9021 89.7431 12.5256 89.6746C12.1662 89.6233 11.824 89.4008 11.533 88.9901C11.2421 88.5965 11.1223 88.22 11.1737 87.8435C11.225 87.4841 11.4646 87.1419 11.8582 86.8509L12.7139 86.2177L11.8753 85.0883C11.6528 84.7802 11.5502 84.4893 11.5844 84.2326C11.6186 83.9588 11.7726 83.7192 12.0807 83.4967C12.3716 83.2743 12.6625 83.1887 12.9363 83.24C13.2101 83.2914 13.4668 83.4625 13.6893 83.7705L14.5279 84.9L16.6841 83.3085C17.0264 83.0518 17.2146 82.7951 17.2489 82.5213C17.2831 82.2475 17.1804 81.9223 16.9237 81.58C16.821 81.4431 16.7184 81.3405 16.6157 81.2378C16.4959 81.1351 16.4103 81.0324 16.3247 80.9297C16.205 80.7928 16.1707 80.6388 16.1878 80.4677C16.2221 80.2966 16.3932 80.0912 16.7355 79.8516C17.0093 79.6462 17.266 79.5265 17.5227 79.458C17.7794 79.4067 18.019 79.458 18.2585 79.5949C18.3954 79.6976 18.5666 79.8345 18.7548 80.0399C18.9431 80.2452 19.0971 80.3992 19.1998 80.5361H19.234Z" fill="#5F39FF"/>
<path d="M7.93883 81.0327C8.19553 81.5119 8.26398 81.9226 8.17841 82.2991C8.09285 82.6756 7.83615 82.9665 7.40832 83.189C6.9976 83.4115 6.60399 83.4457 6.24462 83.3088C5.88524 83.1719 5.5772 82.8638 5.33761 82.3847C5.08092 81.8884 4.99535 81.4605 5.08092 81.0841C5.16648 80.7076 5.42318 80.4166 5.8339 80.1942C6.26173 79.9717 6.65533 79.9204 6.9976 80.0573C7.35698 80.1942 7.66502 80.5022 7.92171 80.9985L7.93883 81.0327ZM16.7179 76.3779C16.9404 76.8057 16.9917 77.1993 16.8548 77.5587C16.7179 77.9181 16.427 78.2261 15.9478 78.4828L11.1732 81.0156C10.6941 81.2723 10.2833 81.3408 9.90685 81.2381C9.53036 81.1354 9.23943 80.8787 9.01696 80.4509C8.79449 80.023 8.74315 79.6123 8.86294 79.2529C8.98273 78.8936 9.29077 78.5684 9.76994 78.3288L14.5445 75.7961C15.0237 75.5394 15.4344 75.4709 15.8109 75.5736C16.1874 75.6763 16.4955 75.9501 16.7179 76.395V76.3779Z" fill="#5F39FF"/>
<path d="M13.8951 69.755C14.0149 70.1315 14.032 70.4909 13.9293 70.816C13.8266 71.1412 13.6212 71.4663 13.2961 71.7572L8.76109 75.8473C8.48728 76.0869 8.19635 76.2238 7.88831 76.2751C7.59739 76.3265 7.32358 76.2751 7.08399 76.0869C6.8444 75.8986 6.65616 75.6248 6.50214 75.197C6.38235 74.8547 6.36523 74.5467 6.46791 74.29C6.55348 74.0333 6.79306 73.7253 7.18667 73.4001L10.866 70.354L11.0543 70.9016L6.24544 70.5935C5.74916 70.5764 5.37267 70.4737 5.15019 70.3026C4.92772 70.1315 4.73948 69.8748 4.61968 69.4812C4.517 69.156 4.49989 68.8651 4.61968 68.6084C4.72236 68.3517 4.91061 68.1635 5.16731 68.0265C5.44112 67.8896 5.74916 67.8383 6.12565 67.8896L12.2351 68.4886C12.6629 68.5228 13.0223 68.6426 13.2961 68.848C13.5699 69.0533 13.7753 69.3443 13.8951 69.7379V69.755Z" fill="#5F39FF"/>
<path d="M11.8747 60.0862C11.9945 61.113 11.9089 62.0029 11.6351 62.7901C11.3613 63.5773 10.9164 64.1934 10.3003 64.6726C9.68421 65.1517 8.93123 65.4256 8.04134 65.5282C7.18567 65.6309 6.39847 65.5282 5.71394 65.2202C5.01229 64.9122 4.44756 64.4501 4.00261 63.834C3.55767 63.2179 3.28386 62.4821 3.19829 61.6264C3.12984 61.0103 3.16406 60.4285 3.30097 59.898C3.43787 59.3675 3.67746 58.9054 4.01972 58.4947C4.36199 58.084 4.78982 57.7588 5.30322 57.5192C5.81662 57.2796 6.39847 57.1085 7.04877 57.0401C7.27124 57.0058 7.44237 57.0572 7.57928 57.177C7.69907 57.2968 7.78464 57.485 7.80175 57.7588L8.3836 62.9612L6.9632 63.1153L6.53537 59.3332L6.79207 59.5728C6.38135 59.6242 6.03909 59.7097 5.7995 59.8638C5.55992 60.0007 5.37167 60.1889 5.26899 60.4285C5.16631 60.6681 5.11497 60.9419 5.16631 61.2842C5.20054 61.6435 5.32033 61.9345 5.50858 62.174C5.69682 62.4136 5.97063 62.5848 6.29579 62.6703C6.62094 62.7559 7.03166 62.7901 7.51083 62.7388H7.66485C8.46917 62.6361 9.01679 62.3794 9.32483 61.9858C9.63287 61.5922 9.73555 61.0103 9.64998 60.2745C9.61576 60.0178 9.56442 59.744 9.46174 59.4188C9.35906 59.0937 9.23926 58.8027 9.08525 58.5289C8.93123 58.2551 8.897 57.9984 8.94834 57.7759C8.99968 57.5535 9.10236 57.3652 9.27349 57.2283C9.44462 57.0914 9.63287 57.0058 9.83823 56.9716C10.0607 56.9374 10.2832 56.9716 10.5056 57.0572C10.7281 57.1427 10.9164 57.3139 11.0533 57.5706C11.2757 57.9471 11.464 58.3578 11.6009 58.7856C11.7378 59.2134 11.8405 59.6755 11.8918 60.1204L11.8747 60.0862Z" fill="#5F39FF"/>
<path d="M11.9609 48.4834C11.8411 48.9284 11.6186 49.2193 11.3106 49.3904C11.0025 49.5616 10.626 49.5787 10.1811 49.4589L1.05974 46.8406C0.614792 46.7037 0.306753 46.4812 0.135621 46.1731C-0.0355118 45.848 -0.0355118 45.4544 0.0842809 45.0094C0.18696 44.633 0.358093 44.342 0.563452 44.1538C0.768811 43.9655 1.07685 43.8286 1.47045 43.7431L8.82915 42.0317L8.65802 42.6136L3.31868 37.2743C3.02776 36.9833 2.85663 36.6924 2.77106 36.4357C2.68549 36.179 2.70261 35.8367 2.80529 35.4603C2.92508 35.0153 3.14755 34.7244 3.45559 34.5533C3.76363 34.3821 4.14012 34.365 4.58506 34.5019L13.7064 37.1202C14.1514 37.24 14.4594 37.4625 14.6305 37.7534C14.8017 38.0444 14.8359 38.4208 14.699 38.8829C14.5792 39.3278 14.3567 39.6188 14.0487 39.7899C13.7406 39.961 13.3642 39.9782 12.9192 39.8584L7.25473 38.2326L7.35741 37.8903L11.2079 41.8606C11.4132 42.0831 11.533 42.2884 11.6186 42.4938C11.7042 42.6992 11.6871 42.9387 11.6186 43.2297C11.533 43.5035 11.4132 43.7088 11.2421 43.8457C11.071 43.9827 10.8485 44.1024 10.5576 44.1709L5.16691 45.5057L5.26959 45.1292L10.9512 46.755C11.3961 46.8748 11.7042 47.0973 11.8753 47.3882C12.0464 47.6962 12.0807 48.0556 11.9438 48.5177L11.9609 48.4834Z" fill="#5F39FF"/>
<path d="M8.43559 29.71C8.17889 30.172 7.87085 30.4801 7.51147 30.617C7.15209 30.7539 6.75849 30.7025 6.34777 30.463C5.93705 30.2405 5.69747 29.9324 5.6119 29.556C5.52634 29.1795 5.6119 28.7516 5.88571 28.2896C6.15953 27.7933 6.46757 27.4853 6.82694 27.3655C7.18632 27.2457 7.56281 27.2799 7.97353 27.5195C8.38425 27.7591 8.64095 28.05 8.72651 28.4265C8.81208 28.803 8.72651 29.2308 8.43559 29.71ZM17.1291 34.5359C16.8895 34.9466 16.5986 35.2033 16.2221 35.306C15.8456 35.4087 15.4178 35.306 14.9557 35.0493L10.2325 32.431C9.77042 32.1743 9.46238 31.8491 9.34259 31.4898C9.2228 31.1304 9.27414 30.7368 9.51372 30.3089C9.75331 29.8811 10.0613 29.6244 10.4378 29.5217C10.8143 29.419 11.2422 29.5217 11.7042 29.7613L16.4275 32.3796C16.8895 32.6363 17.1976 32.9615 17.3174 33.3209C17.4372 33.6974 17.3858 34.091 17.1291 34.5359Z" fill="#5F39FF"/>
<path d="M19.6786 30.3092C19.3705 30.6857 19.0454 30.8911 18.6689 30.9253C18.2924 30.9595 17.9159 30.8226 17.5223 30.5146L13.1242 26.9379C12.7477 26.6299 12.5252 26.2876 12.491 25.9282C12.4568 25.5689 12.5766 25.1924 12.8846 24.8159C13.1927 24.4394 13.5178 24.2512 13.8772 24.2169C14.2366 24.1827 14.6131 24.3196 14.9895 24.6448L15.6227 25.1582L14.9553 24.8672C14.7157 24.3196 14.6302 23.7549 14.7328 23.173C14.8355 22.5912 15.0922 22.0607 15.5029 21.5473C15.9308 21.0167 16.3757 20.6745 16.8549 20.5033C17.3341 20.3322 17.8475 20.3322 18.3951 20.5033C18.9427 20.6745 19.5417 21.0167 20.192 21.5473L22.9814 23.8062C23.375 24.1314 23.5804 24.4736 23.6317 24.833C23.666 25.2095 23.5291 25.5689 23.221 25.9625C22.913 26.3561 22.5707 26.5614 22.2113 26.5957C21.8348 26.6299 21.4584 26.493 21.0647 26.1849L18.3609 23.9945C17.9672 23.6693 17.625 23.5153 17.3512 23.5153C17.0774 23.5153 16.8207 23.6522 16.6153 23.9089C16.3244 24.2683 16.2046 24.6448 16.2559 25.0384C16.3073 25.432 16.5297 25.7913 16.9062 26.0994L19.4561 28.1701C20.2604 28.8204 20.3289 29.5391 19.6786 30.3435V30.3092Z" fill="#5F39FF"/>
<path d="M27.9951 21.6324C27.4303 22.0773 26.8143 22.3169 26.164 22.3682C25.5137 22.4196 24.8633 22.2827 24.213 21.9575C23.5627 21.6324 22.9638 21.1019 22.4162 20.3831C21.8514 19.6472 21.492 18.9285 21.3551 18.2268C21.2011 17.5252 21.2525 16.8578 21.4749 16.2417C21.6974 15.6256 22.091 15.0951 22.6729 14.6673C23.1691 14.2908 23.7168 14.0683 24.2815 13.9828C24.8633 13.9143 25.3596 14.017 25.7875 14.2737L25.6334 14.3935L23.4087 11.4842C23.1007 11.0906 22.9809 10.697 23.0151 10.3376C23.0665 9.97825 23.2889 9.63599 23.6654 9.34506C24.0419 9.05414 24.4184 8.93435 24.7949 8.96857C25.1714 9.01991 25.5137 9.24238 25.8046 9.63599L31.4519 17.0118C31.76 17.4054 31.8798 17.799 31.8456 18.1584C31.8113 18.5178 31.5889 18.86 31.1952 19.151C30.8188 19.4419 30.4423 19.5617 30.0658 19.5103C29.6893 19.459 29.3641 19.2365 29.0561 18.8429L28.4571 18.0728L29.1245 18.6204C29.3128 19.1167 29.2957 19.6643 29.0903 20.212C28.885 20.7767 28.5085 21.2388 27.9951 21.6495V21.6324ZM27.4132 19.2536C27.6528 19.0654 27.8239 18.8429 27.9266 18.5691C28.0293 18.2953 28.0293 18.0044 27.9266 17.6792C27.8411 17.3541 27.6357 16.9947 27.3448 16.584C26.8827 15.985 26.4207 15.6256 25.9928 15.5401C25.5479 15.4545 25.1543 15.5401 24.7949 15.831C24.5553 16.0192 24.3842 16.2417 24.2815 16.5155C24.1788 16.7722 24.1788 17.0802 24.2473 17.4054C24.3157 17.7306 24.5211 18.107 24.8462 18.5178C25.3083 19.1167 25.7532 19.459 26.1982 19.5446C26.6431 19.6301 27.0538 19.5446 27.4132 19.2536Z" fill="#5F39FF"/>
<path d="M37.0321 16.0023C36.57 16.2077 36.1079 16.3959 35.5946 16.5499C35.0983 16.704 34.602 16.7724 34.1399 16.7895C33.8319 16.8066 33.5923 16.7553 33.3869 16.6355C33.1987 16.5157 33.0618 16.3446 32.9762 16.1563C32.8907 15.951 32.8564 15.7456 32.8907 15.5403C32.9249 15.3349 33.0105 15.1467 33.1645 14.9926C33.3185 14.8386 33.5238 14.7531 33.7805 14.7359C34.2939 14.6846 34.7218 14.6162 35.0983 14.5306C35.4748 14.445 35.817 14.3081 36.1422 14.1712C36.5187 14.0001 36.7754 13.8118 36.8952 13.6236C37.015 13.4353 37.0321 13.2642 36.9465 13.076C36.878 12.9219 36.7583 12.8193 36.6213 12.8021C36.4673 12.7679 36.2962 12.785 36.0908 12.8535L34.2426 13.384C33.541 13.5722 32.942 13.5722 32.4286 13.384C31.9152 13.1958 31.5216 12.8021 31.2478 12.2203C30.9911 11.6898 30.9397 11.1422 31.0595 10.6117C31.1793 10.0811 31.4703 9.58486 31.8981 9.1228C32.3259 8.66074 32.8907 8.26714 33.5923 7.94199C34.0544 7.71951 34.4993 7.5655 34.91 7.4457C35.3207 7.34302 35.7486 7.27457 36.1935 7.29168C36.4673 7.29168 36.6898 7.34302 36.8609 7.46282C37.0321 7.59972 37.1519 7.75374 37.2203 7.9591C37.2888 8.16446 37.3059 8.36982 37.2717 8.57518C37.2374 8.78054 37.1347 8.96878 36.9807 9.10569C36.8267 9.24259 36.6042 9.34527 36.3133 9.3795C35.9026 9.39661 35.5603 9.44795 35.2694 9.51641C34.9785 9.58486 34.7218 9.65331 34.4822 9.7731C34.0544 9.97846 33.7805 10.1667 33.6608 10.3721C33.541 10.5603 33.5238 10.7486 33.5923 10.9368C33.6608 11.0737 33.7463 11.1593 33.8832 11.2106C34.0201 11.262 34.1913 11.2448 34.3966 11.1935L36.262 10.6801C36.9636 10.4747 37.5797 10.4576 38.1102 10.6459C38.6236 10.8341 39.0172 11.2106 39.3081 11.7925C39.7017 12.631 39.6846 13.4353 39.2568 14.1883C38.829 14.9413 38.076 15.5745 37.015 16.0708L37.0321 16.0023Z" fill="#5F39FF"/>
<path d="M42.2691 15.4548C42.0295 15.5233 41.807 15.489 41.6017 15.3692C41.3963 15.2495 41.2594 15.0783 41.2081 14.8387C41.1396 14.5992 41.1738 14.3767 41.3107 14.1713C41.4305 13.966 41.6188 13.8462 41.8584 13.7777L48.0876 12.2375C48.3272 12.1691 48.5496 12.2033 48.755 12.3231C48.9604 12.4429 49.0801 12.6311 49.1486 12.8707C49.2171 13.1103 49.1828 13.3328 49.063 13.521C48.9432 13.7093 48.755 13.8462 48.5154 13.8975L42.2862 15.4377L42.2691 15.4548Z" fill="#5F39FF"/>
</svg>
