<svg width="1920" height="518" viewBox="0 0 1920 518" fill="none" xmlns="http://www.w3.org/2000/svg">
<g opacity="0.9">
<path d="M1996 72.8235C1893.76 69.995 1692.36 94.0672 1704.64 212.985C1720.01 361.632 1688.77 497.112 1292.45 383.871C896.122 270.63 791.152 379.482 705.64 412.84C620.128 446.197 75.31 497.112 262.207 184.016C449.105 -129.079 -48.6055 13.1306 -48.6055 212.985" stroke="url(#paint0_linear_886_1312)"/>
<path d="M1986.15 80.7396C1883.91 77.911 1682.51 101.983 1694.8 220.901C1710.16 369.548 1678.92 505.028 1282.6 391.787C886.274 278.546 781.305 387.398 695.793 420.756C610.281 454.113 65.4623 505.028 252.36 191.932C439.257 -121.163 -58.4531 21.0466 -58.4531 220.901" stroke="url(#paint1_linear_886_1312)"/>
<path d="M1996 88.6556C1893.76 85.827 1692.36 109.899 1704.64 228.817C1720.01 377.464 1688.77 512.944 1292.45 399.703C896.122 286.462 791.152 395.314 705.64 428.672C620.128 462.03 75.31 512.944 262.207 199.848C449.105 -113.247 -48.6055 28.9626 -48.6055 228.817" stroke="url(#paint2_linear_886_1312)"/>
<path d="M1976.3 88.6556C1874.06 85.827 1672.66 109.899 1684.95 228.817C1700.31 377.464 1669.07 512.944 1272.75 399.703C876.425 286.462 771.455 395.314 685.943 428.672C600.431 462.03 55.6127 512.944 242.51 199.848C429.407 -113.247 -68.3027 28.9626 -68.3027 228.817" stroke="url(#paint3_linear_886_1312)"/>
<path d="M1956.61 88.6556C1854.37 85.827 1652.96 109.899 1665.25 228.817C1680.61 377.464 1649.38 512.944 1253.05 399.703C856.727 286.462 751.758 395.314 666.246 428.672C580.734 462.03 35.9154 512.944 222.813 199.848C409.71 -113.247 -88 28.9626 -88 228.817" stroke="url(#paint4_linear_886_1312)"/>
<path d="M1956.61 104.488C1854.37 101.659 1652.96 125.731 1665.25 244.649C1680.61 393.296 1649.38 528.776 1253.05 415.535C856.727 302.294 751.758 411.146 666.246 444.504C580.734 477.862 35.9154 528.776 222.813 215.68C409.71 -97.4153 -88 44.7946 -88 244.649" stroke="url(#paint5_linear_886_1312)"/>
<path d="M1956.61 120.32C1854.37 117.491 1652.96 141.563 1665.25 260.481C1680.61 409.129 1649.38 544.608 1253.05 431.367C856.727 318.126 751.758 426.978 666.246 460.336C580.734 493.694 35.9154 544.608 222.813 231.512C409.71 -81.5832 -88 60.6267 -88 260.481" stroke="url(#paint6_linear_886_1312)"/>
<path d="M1986.15 120.32C1883.91 117.491 1682.51 141.563 1694.8 260.481C1710.16 409.129 1678.92 544.608 1282.6 431.367C886.274 318.126 781.305 426.978 695.793 460.336C610.281 493.694 65.4623 544.608 252.36 231.512C439.257 -81.5832 -58.4531 60.6267 -58.4531 260.481" stroke="url(#paint7_linear_886_1312)"/>
<path d="M1996 116.363C1893.76 113.534 1692.36 137.606 1704.64 256.524C1720.01 405.171 1688.77 540.651 1292.45 427.41C896.122 314.169 791.152 423.021 705.64 456.379C620.128 489.737 75.31 540.651 262.207 227.555C449.105 -85.5403 -48.6055 56.6696 -48.6055 256.524" stroke="url(#paint8_linear_886_1312)"/>
<path d="M1986.15 124.279C1883.91 121.45 1682.51 145.522 1694.8 264.44C1710.16 413.087 1678.92 548.567 1282.6 435.326C886.274 322.085 781.305 430.937 695.793 464.295C610.281 497.653 65.4623 548.567 252.36 235.471C439.257 -77.6243 -58.4531 64.5857 -58.4531 264.44" stroke="url(#paint9_linear_886_1312)"/>
<path d="M1996 132.195C1893.76 129.366 1692.36 153.438 1704.64 272.356C1720.01 421.004 1688.77 556.483 1292.45 443.242C896.122 330.001 791.152 438.853 705.64 472.211C620.128 505.569 75.31 556.483 262.207 243.387C449.105 -69.7082 -48.6055 72.5017 -48.6055 272.356" stroke="url(#paint10_linear_886_1312)"/>
<path d="M1976.3 132.195C1874.06 129.366 1672.66 153.438 1684.95 272.356C1700.31 421.004 1669.07 556.483 1272.75 443.242C876.425 330.001 771.455 438.853 685.943 472.211C600.431 505.569 55.6127 556.483 242.51 243.387C429.407 -69.7082 -68.3027 72.5017 -68.3027 272.356" stroke="url(#paint11_linear_886_1312)"/>
<path d="M1956.61 132.195C1854.37 129.366 1652.96 153.438 1665.25 272.356C1680.61 421.004 1649.38 556.483 1253.05 443.242C856.727 330.001 751.758 438.853 666.246 472.211C580.734 505.569 35.9154 556.483 222.813 243.387C409.71 -69.7082 -88 72.5017 -88 272.356" stroke="url(#paint12_linear_886_1312)"/>
<path d="M1956.61 148.027C1854.37 145.198 1652.96 169.27 1665.25 288.188C1680.61 436.836 1649.38 572.315 1253.05 459.074C856.727 345.833 751.758 454.685 666.246 488.043C580.734 521.401 35.9154 572.315 222.813 259.22C409.71 -53.8762 -88 88.3337 -88 288.188" stroke="url(#paint13_linear_886_1312)"/>
<path d="M1956.61 163.859C1854.37 161.03 1652.96 185.102 1665.25 304.02C1680.61 452.668 1649.38 588.147 1253.05 474.906C856.727 361.665 751.758 470.517 666.246 503.875C580.734 537.233 35.9154 588.147 222.813 275.052C409.71 -38.0442 -88 104.166 -88 304.02" stroke="url(#paint14_linear_886_1312)"/>
<path d="M1986.15 163.859C1883.91 161.03 1682.51 185.102 1694.8 304.02C1710.16 452.668 1678.92 588.147 1282.6 474.906C886.274 361.665 781.305 470.517 695.793 503.875C610.281 537.233 65.4623 588.147 252.36 275.052C439.257 -38.0442 -58.4531 104.166 -58.4531 304.02" stroke="url(#paint15_linear_886_1312)"/>
</g>
<defs>
<linearGradient id="paint0_linear_886_1312" x1="973.697" y1="71.057" x2="973.697" y2="473.984" gradientUnits="userSpaceOnUse">
<stop stop-color="white" stop-opacity="0.1"/>
<stop offset="1" stop-color="#573F3F" stop-opacity="0.21"/>
</linearGradient>
<linearGradient id="paint1_linear_886_1312" x1="963.849" y1="78.973" x2="963.849" y2="481.9" gradientUnits="userSpaceOnUse">
<stop stop-color="white" stop-opacity="0.1"/>
<stop offset="1" stop-color="#573F3F" stop-opacity="0.21"/>
</linearGradient>
<linearGradient id="paint2_linear_886_1312" x1="973.697" y1="86.889" x2="973.697" y2="489.816" gradientUnits="userSpaceOnUse">
<stop stop-color="white" stop-opacity="0.1"/>
<stop offset="1" stop-color="#573F3F" stop-opacity="0.21"/>
</linearGradient>
<linearGradient id="paint3_linear_886_1312" x1="954" y1="86.889" x2="954" y2="489.816" gradientUnits="userSpaceOnUse">
<stop stop-color="white" stop-opacity="0.1"/>
<stop offset="1" stop-color="#573F3F" stop-opacity="0.21"/>
</linearGradient>
<linearGradient id="paint4_linear_886_1312" x1="934.303" y1="86.889" x2="934.303" y2="489.816" gradientUnits="userSpaceOnUse">
<stop stop-color="white" stop-opacity="0.1"/>
<stop offset="1" stop-color="#573F3F" stop-opacity="0.21"/>
</linearGradient>
<linearGradient id="paint5_linear_886_1312" x1="934.303" y1="102.721" x2="934.303" y2="505.648" gradientUnits="userSpaceOnUse">
<stop stop-color="white" stop-opacity="0.1"/>
<stop offset="1" stop-color="#573F3F" stop-opacity="0.21"/>
</linearGradient>
<linearGradient id="paint6_linear_886_1312" x1="934.303" y1="118.553" x2="934.303" y2="521.48" gradientUnits="userSpaceOnUse">
<stop stop-color="white" stop-opacity="0.1"/>
<stop offset="1" stop-color="#573F3F" stop-opacity="0.21"/>
</linearGradient>
<linearGradient id="paint7_linear_886_1312" x1="963.849" y1="118.553" x2="963.849" y2="521.48" gradientUnits="userSpaceOnUse">
<stop stop-color="white" stop-opacity="0.1"/>
<stop offset="1" stop-color="#573F3F" stop-opacity="0.21"/>
</linearGradient>
<linearGradient id="paint8_linear_886_1312" x1="973.697" y1="114.596" x2="973.697" y2="517.523" gradientUnits="userSpaceOnUse">
<stop stop-color="white" stop-opacity="0.1"/>
<stop offset="1" stop-color="#573F3F" stop-opacity="0.21"/>
</linearGradient>
<linearGradient id="paint9_linear_886_1312" x1="963.849" y1="122.512" x2="963.849" y2="525.439" gradientUnits="userSpaceOnUse">
<stop stop-color="white" stop-opacity="0.1"/>
<stop offset="1" stop-color="#573F3F" stop-opacity="0.21"/>
</linearGradient>
<linearGradient id="paint10_linear_886_1312" x1="973.697" y1="130.428" x2="973.697" y2="533.355" gradientUnits="userSpaceOnUse">
<stop stop-color="white" stop-opacity="0.1"/>
<stop offset="1" stop-color="#573F3F" stop-opacity="0.21"/>
</linearGradient>
<linearGradient id="paint11_linear_886_1312" x1="954" y1="130.428" x2="954" y2="533.355" gradientUnits="userSpaceOnUse">
<stop stop-color="white" stop-opacity="0.1"/>
<stop offset="1" stop-color="#573F3F" stop-opacity="0.21"/>
</linearGradient>
<linearGradient id="paint12_linear_886_1312" x1="934.303" y1="130.428" x2="934.303" y2="533.355" gradientUnits="userSpaceOnUse">
<stop stop-color="white" stop-opacity="0.1"/>
<stop offset="1" stop-color="#573F3F" stop-opacity="0.21"/>
</linearGradient>
<linearGradient id="paint13_linear_886_1312" x1="934.303" y1="146.26" x2="934.303" y2="549.187" gradientUnits="userSpaceOnUse">
<stop stop-color="white" stop-opacity="0.1"/>
<stop offset="1" stop-color="#573F3F" stop-opacity="0.21"/>
</linearGradient>
<linearGradient id="paint14_linear_886_1312" x1="934.303" y1="162.092" x2="934.303" y2="565.019" gradientUnits="userSpaceOnUse">
<stop stop-color="white" stop-opacity="0.1"/>
<stop offset="1" stop-color="#573F3F" stop-opacity="0.21"/>
</linearGradient>
<linearGradient id="paint15_linear_886_1312" x1="963.849" y1="162.092" x2="963.849" y2="565.019" gradientUnits="userSpaceOnUse">
<stop stop-color="white" stop-opacity="0.1"/>
<stop offset="1" stop-color="#573F3F" stop-opacity="0.21"/>
</linearGradient>
</defs>
</svg>
