<svg width="1920" height="765" viewBox="0 0 1920 765" fill="none" xmlns="http://www.w3.org/2000/svg">
<path d="M65.3613 231.65C139.848 300.358 320.028 432.764 444.856 412.729C569.685 392.695 738.307 441.625 807.014 468.594" stroke="url(#paint0_radial_2374_163)" stroke-opacity="0.15"/>
<path d="M109.668 206.607C117.373 214.313 271.483 368.423 431.372 374.202C591.261 379.981 691.432 354.938 812.793 424.287" stroke="url(#paint1_radial_2374_163)" stroke-opacity="0.15"/>
<path d="M42.2461 254.766C94.2581 311.915 231.03 430.836 362.024 449.329C525.765 472.445 660.611 424.286 795.457 505.194" stroke="url(#paint2_radial_2374_163)" stroke-opacity="0.15"/>
<path d="M150.123 187.346C196.356 233.579 317.717 327.2 433.299 331.823C577.777 337.603 735.74 324.118 824.353 379.983" stroke="url(#paint3_radial_2374_163)" stroke-opacity="0.15"/>
<path d="M9.49805 283.662C53.8046 335.032 164.764 442.01 254.147 458.962C365.877 480.152 535.397 499.416 743.445 522.532" stroke="url(#paint4_radial_2374_163)" stroke-opacity="0.15"/>
<path d="M194.428 160.375C249.008 202.113 380.515 286.36 469.899 289.442C581.628 293.295 793.529 272.105 859.026 324.117" stroke="url(#paint5_radial_2374_163)" stroke-opacity="0.15"/>
<path d="M246.441 131.48C269.558 137.26 379.361 220.094 442.931 227.799C506.501 235.504 799.31 216.241 859.027 297.148" stroke="url(#paint6_radial_2374_163)" stroke-opacity="0.15"/>
<path d="M-7.83984 314.484C5.64475 327.969 90.4051 449.33 194.429 480.152C298.453 510.974 429.446 514.827 539.249 541.796C649.053 568.765 702.991 580.324 739.592 566.839" stroke="url(#paint7_radial_2374_163)" stroke-opacity="0.15"/>
<path d="M-27.1035 335.676C5.64477 385.761 85.3965 490.556 142.417 509.049C213.693 532.166 319.643 530.239 383.213 555.282C446.783 580.325 552.734 595.736 627.862 603.441C687.965 609.606 744.087 606.01 764.634 603.441" stroke="url(#paint8_radial_2374_163)" stroke-opacity="0.15"/>
<path d="M-56 349.16C-21.3253 406.951 58.0412 526.001 98.1097 539.871C148.195 557.208 171.312 526.386 231.029 570.693C290.747 614.999 292.673 555.282 421.74 613.073C550.807 670.864 724.18 640.042 756.929 626.557" stroke="url(#paint9_radial_2374_163)" stroke-opacity="0.15"/>
<path d="M274.053 794.152C342.76 719.666 475.166 539.486 455.132 414.657C435.097 289.829 484.027 121.207 510.996 52.4997" stroke="url(#paint10_radial_2374_163)" stroke-opacity="0.15"/>
<path d="M249.01 749.844C256.715 742.138 410.825 588.029 416.604 428.14C422.383 268.251 397.34 168.08 466.69 46.7186" stroke="url(#paint11_radial_2374_163)" stroke-opacity="0.15"/>
<path d="M297.168 817.268C354.317 765.256 473.238 628.483 491.731 497.49C514.848 333.749 466.689 198.903 547.596 64.0567" stroke="url(#paint12_radial_2374_163)" stroke-opacity="0.15"/>
<path d="M229.744 709.391C275.977 663.158 369.599 541.796 374.222 426.214C380.001 281.736 366.516 123.774 422.381 35.161" stroke="url(#paint13_radial_2374_163)" stroke-opacity="0.15"/>
<path d="M326.062 850.016C377.432 805.709 484.41 694.75 501.362 605.367C522.552 493.637 541.816 324.116 564.932 116.068" stroke="url(#paint14_radial_2374_163)" stroke-opacity="0.15"/>
<path d="M202.777 665.084C244.515 610.503 328.762 478.997 331.844 389.613C335.697 277.884 314.507 65.9828 366.519 0.486195" stroke="url(#paint15_radial_2374_163)" stroke-opacity="0.15"/>
<path d="M173.881 613.072C179.66 589.956 262.494 480.153 270.199 416.582C277.905 353.012 258.641 60.204 339.549 0.486477" stroke="url(#paint16_radial_2374_163)" stroke-opacity="0.15"/>
<path d="M356.887 867.354C370.371 853.869 491.733 769.109 522.555 665.085C553.377 561.061 557.229 430.067 584.198 320.264C611.168 210.461 622.726 156.523 609.241 119.922" stroke="url(#paint17_radial_2374_163)" stroke-opacity="0.15"/>
<path d="M378.076 886.617C428.162 853.869 532.956 774.117 551.45 717.097C574.566 645.821 572.64 539.871 597.682 476.3C622.725 412.73 638.136 306.78 645.842 231.651C652.006 171.549 648.41 115.427 645.842 94.8792" stroke="url(#paint18_radial_2374_163)" stroke-opacity="0.15"/>
<path d="M391.561 915.514C449.352 880.839 568.401 801.472 582.271 761.404C599.609 711.318 568.787 688.202 613.093 628.484C657.4 568.767 597.682 566.84 655.473 437.774C713.264 308.707 682.442 135.333 668.958 102.585" stroke="url(#paint19_radial_2374_163)" stroke-opacity="0.15"/>
<path d="M1418.36 231.65C1492.85 300.358 1673.03 432.764 1797.86 412.729C1922.69 392.695 2091.31 441.625 2160.01 468.594" stroke="url(#paint20_radial_2374_163)" stroke-opacity="0.15"/>
<path d="M1462.67 206.607C1470.37 214.313 1624.48 368.423 1784.37 374.202C1944.26 379.981 2044.43 354.938 2165.79 424.287" stroke="url(#paint21_radial_2374_163)" stroke-opacity="0.15"/>
<path d="M1395.25 254.766C1447.26 311.915 1584.03 430.836 1715.02 449.329C1878.77 472.445 2013.61 424.286 2148.46 505.194" stroke="url(#paint22_radial_2374_163)" stroke-opacity="0.15"/>
<path d="M1503.12 187.346C1549.36 233.579 1670.72 327.2 1786.3 331.823C1930.78 337.603 2088.74 324.118 2177.35 379.983" stroke="url(#paint23_radial_2374_163)" stroke-opacity="0.15"/>
<path d="M1362.5 283.662C1406.8 335.032 1517.76 442.01 1607.15 458.962C1718.88 480.152 1888.4 499.416 2096.45 522.532" stroke="url(#paint24_radial_2374_163)" stroke-opacity="0.15"/>
<path d="M1547.43 160.375C1602.01 202.113 1733.52 286.36 1822.9 289.442C1934.63 293.295 2146.53 272.105 2212.03 324.117" stroke="url(#paint25_radial_2374_163)" stroke-opacity="0.15"/>
<path d="M1599.44 131.48C1622.56 137.26 1732.36 220.094 1795.93 227.799C1859.5 235.504 2152.31 216.241 2212.03 297.148" stroke="url(#paint26_radial_2374_163)" stroke-opacity="0.15"/>
<path d="M1345.16 314.484C1358.64 327.969 1443.41 449.33 1547.43 480.152C1651.45 510.974 1782.45 514.827 1892.25 541.796C2002.05 568.765 2055.99 580.324 2092.59 566.839" stroke="url(#paint27_radial_2374_163)" stroke-opacity="0.15"/>
<path d="M1325.9 335.676C1358.64 385.761 1438.4 490.556 1495.42 509.049C1566.69 532.166 1672.64 530.239 1736.21 555.282C1799.78 580.325 1905.73 595.736 1980.86 603.441C2040.96 609.606 2097.09 606.01 2117.63 603.441" stroke="url(#paint28_radial_2374_163)" stroke-opacity="0.15"/>
<path d="M1297 349.16C1331.67 406.951 1411.04 526.001 1451.11 539.871C1501.2 557.208 1524.31 526.386 1584.03 570.693C1643.75 614.999 1645.67 555.282 1774.74 613.073C1903.81 670.864 2077.18 640.042 2109.93 626.557" stroke="url(#paint29_radial_2374_163)" stroke-opacity="0.15"/>
<path d="M1627.05 794.152C1695.76 719.666 1828.17 539.486 1808.13 414.657C1788.1 289.829 1837.03 121.207 1864 52.4997" stroke="url(#paint30_radial_2374_163)" stroke-opacity="0.15"/>
<path d="M1602.01 749.844C1609.72 742.138 1763.82 588.029 1769.6 428.14C1775.38 268.251 1750.34 168.08 1819.69 46.7186" stroke="url(#paint31_radial_2374_163)" stroke-opacity="0.15"/>
<path d="M1650.17 817.268C1707.32 765.256 1826.24 628.483 1844.73 497.49C1867.85 333.749 1819.69 198.903 1900.6 64.0567" stroke="url(#paint32_radial_2374_163)" stroke-opacity="0.15"/>
<path d="M1582.74 709.391C1628.98 663.158 1722.6 541.796 1727.22 426.214C1733 281.736 1719.52 123.774 1775.38 35.161" stroke="url(#paint33_radial_2374_163)" stroke-opacity="0.15"/>
<path d="M1679.06 850.016C1730.43 805.709 1837.41 694.75 1854.36 605.367C1875.55 493.637 1894.82 324.116 1917.93 116.068" stroke="url(#paint34_radial_2374_163)" stroke-opacity="0.15"/>
<path d="M1555.78 665.084C1597.52 610.503 1681.76 478.997 1684.84 389.613C1688.7 277.884 1667.51 65.9828 1719.52 0.486195" stroke="url(#paint35_radial_2374_163)" stroke-opacity="0.15"/>
<path d="M1526.88 613.072C1532.66 589.956 1615.49 480.153 1623.2 416.582C1630.9 353.012 1611.64 60.204 1692.55 0.486477" stroke="url(#paint36_radial_2374_163)" stroke-opacity="0.15"/>
<path d="M1709.89 867.354C1723.37 853.869 1844.73 769.109 1875.55 665.085C1906.38 561.061 1910.23 430.067 1937.2 320.264C1964.17 210.461 1975.73 156.523 1962.24 119.922" stroke="url(#paint37_radial_2374_163)" stroke-opacity="0.15"/>
<path d="M1731.08 886.617C1781.16 853.869 1885.96 774.117 1904.45 717.097C1927.57 645.821 1925.64 539.871 1950.68 476.3C1975.73 412.73 1991.14 306.78 1998.84 231.651C2005.01 171.549 2001.41 115.427 1998.84 94.8792" stroke="url(#paint38_radial_2374_163)" stroke-opacity="0.15"/>
<path d="M1744.56 915.514C1802.35 880.839 1921.4 801.472 1935.27 761.404C1952.61 711.318 1921.79 688.202 1966.09 628.484C2010.4 568.767 1950.68 566.84 2008.47 437.774C2066.26 308.707 2035.44 135.333 2021.96 102.585" stroke="url(#paint39_radial_2374_163)" stroke-opacity="0.15"/>
<defs>
<radialGradient id="paint0_radial_2374_163" cx="0" cy="0" r="1" gradientUnits="userSpaceOnUse" gradientTransform="translate(436.188 350.122) rotate(90) scale(118.472 370.826)">
<stop stop-color="#FBB500"/>
<stop offset="1" stop-color="white" stop-opacity="0"/>
</radialGradient>
<radialGradient id="paint1_radial_2374_163" cx="0" cy="0" r="1" gradientUnits="userSpaceOnUse" gradientTransform="translate(461.231 315.447) rotate(90) scale(108.84 351.563)">
<stop stop-color="#FBB500"/>
<stop offset="1" stop-color="white" stop-opacity="0"/>
</radialGradient>
<radialGradient id="paint2_radial_2374_163" cx="0" cy="0" r="1" gradientUnits="userSpaceOnUse" gradientTransform="translate(418.852 379.98) rotate(90) scale(125.214 376.605)">
<stop stop-color="#FBB500"/>
<stop offset="1" stop-color="white" stop-opacity="0"/>
</radialGradient>
<radialGradient id="paint3_radial_2374_163" cx="0" cy="0" r="1" gradientUnits="userSpaceOnUse" gradientTransform="translate(487.238 283.664) rotate(90) scale(96.3185 337.115)">
<stop stop-color="#FBB500"/>
<stop offset="1" stop-color="white" stop-opacity="0"/>
</radialGradient>
<radialGradient id="paint4_radial_2374_163" cx="0" cy="0" r="1" gradientUnits="userSpaceOnUse" gradientTransform="translate(376.472 403.097) rotate(90) scale(119.435 366.974)">
<stop stop-color="#FBB500"/>
<stop offset="1" stop-color="white" stop-opacity="0"/>
</radialGradient>
<radialGradient id="paint5_radial_2374_163" cx="0" cy="0" r="1" gradientUnits="userSpaceOnUse" gradientTransform="translate(526.727 242.246) rotate(90) scale(81.8708 332.299)">
<stop stop-color="#FBB500"/>
<stop offset="1" stop-color="white" stop-opacity="0"/>
</radialGradient>
<radialGradient id="paint6_radial_2374_163" cx="0" cy="0" r="1" gradientUnits="userSpaceOnUse" gradientTransform="translate(552.734 214.314) rotate(90) scale(82.8339 306.293)">
<stop stop-color="#FBB500"/>
<stop offset="1" stop-color="white" stop-opacity="0"/>
</radialGradient>
<radialGradient id="paint7_radial_2374_163" cx="0" cy="0" r="1" gradientUnits="userSpaceOnUse" gradientTransform="translate(365.876 443.487) rotate(90) scale(129.002 373.716)">
<stop stop-color="#FBB500"/>
<stop offset="1" stop-color="white" stop-opacity="0"/>
</radialGradient>
<radialGradient id="paint8_radial_2374_163" cx="0" cy="0" r="1" gradientUnits="userSpaceOnUse" gradientTransform="translate(368.766 471.26) rotate(90) scale(135.585 395.869)">
<stop stop-color="#FBB500"/>
<stop offset="1" stop-color="white" stop-opacity="0"/>
</radialGradient>
<radialGradient id="paint9_radial_2374_163" cx="0" cy="0" r="1" gradientUnits="userSpaceOnUse" gradientTransform="translate(350.464 498.039) rotate(90) scale(148.879 406.464)">
<stop stop-color="#FBB500"/>
<stop offset="1" stop-color="white" stop-opacity="0"/>
</radialGradient>
<radialGradient id="paint10_radial_2374_163" cx="0" cy="0" r="1" gradientUnits="userSpaceOnUse" gradientTransform="translate(392.525 423.326) scale(118.472 370.826)">
<stop stop-color="#FBB500"/>
<stop offset="1" stop-color="white" stop-opacity="0"/>
</radialGradient>
<radialGradient id="paint11_radial_2374_163" cx="0" cy="0" r="1" gradientUnits="userSpaceOnUse" gradientTransform="translate(357.85 398.281) scale(108.84 351.563)">
<stop stop-color="#FBB500"/>
<stop offset="1" stop-color="white" stop-opacity="0"/>
</radialGradient>
<radialGradient id="paint12_radial_2374_163" cx="0" cy="0" r="1" gradientUnits="userSpaceOnUse" gradientTransform="translate(422.382 440.662) scale(125.214 376.605)">
<stop stop-color="#FBB500"/>
<stop offset="1" stop-color="white" stop-opacity="0"/>
</radialGradient>
<radialGradient id="paint13_radial_2374_163" cx="0" cy="0" r="1" gradientUnits="userSpaceOnUse" gradientTransform="translate(326.063 372.276) scale(96.3185 337.115)">
<stop stop-color="#FBB500"/>
<stop offset="1" stop-color="white" stop-opacity="0"/>
</radialGradient>
<radialGradient id="paint14_radial_2374_163" cx="0" cy="0" r="1" gradientUnits="userSpaceOnUse" gradientTransform="translate(445.497 483.042) scale(119.435 366.974)">
<stop stop-color="#FBB500"/>
<stop offset="1" stop-color="white" stop-opacity="0"/>
</radialGradient>
<radialGradient id="paint15_radial_2374_163" cx="0" cy="0" r="1" gradientUnits="userSpaceOnUse" gradientTransform="translate(284.648 332.785) scale(81.8708 332.299)">
<stop stop-color="#FBB500"/>
<stop offset="1" stop-color="white" stop-opacity="0"/>
</radialGradient>
<radialGradient id="paint16_radial_2374_163" cx="0" cy="0" r="1" gradientUnits="userSpaceOnUse" gradientTransform="translate(256.715 306.779) scale(82.8339 306.293)">
<stop stop-color="#FBB500"/>
<stop offset="1" stop-color="white" stop-opacity="0"/>
</radialGradient>
<radialGradient id="paint17_radial_2374_163" cx="0" cy="0" r="1" gradientUnits="userSpaceOnUse" gradientTransform="translate(485.889 493.638) scale(129.002 373.716)">
<stop stop-color="#FBB500"/>
<stop offset="1" stop-color="white" stop-opacity="0"/>
</radialGradient>
<radialGradient id="paint18_radial_2374_163" cx="0" cy="0" r="1" gradientUnits="userSpaceOnUse" gradientTransform="translate(513.661 490.748) scale(135.585 395.869)">
<stop stop-color="#FBB500"/>
<stop offset="1" stop-color="white" stop-opacity="0"/>
</radialGradient>
<radialGradient id="paint19_radial_2374_163" cx="0" cy="0" r="1" gradientUnits="userSpaceOnUse" gradientTransform="translate(540.439 509.049) scale(148.879 406.464)">
<stop stop-color="#FBB500"/>
<stop offset="1" stop-color="white" stop-opacity="0"/>
</radialGradient>
<radialGradient id="paint20_radial_2374_163" cx="0" cy="0" r="1" gradientUnits="userSpaceOnUse" gradientTransform="translate(1789.19 350.122) rotate(90) scale(118.472 370.826)">
<stop stop-color="#FBB500"/>
<stop offset="1" stop-color="white" stop-opacity="0"/>
</radialGradient>
<radialGradient id="paint21_radial_2374_163" cx="0" cy="0" r="1" gradientUnits="userSpaceOnUse" gradientTransform="translate(1814.23 315.447) rotate(90) scale(108.84 351.563)">
<stop stop-color="#FBB500"/>
<stop offset="1" stop-color="white" stop-opacity="0"/>
</radialGradient>
<radialGradient id="paint22_radial_2374_163" cx="0" cy="0" r="1" gradientUnits="userSpaceOnUse" gradientTransform="translate(1771.85 379.98) rotate(90) scale(125.214 376.605)">
<stop stop-color="#FBB500"/>
<stop offset="1" stop-color="white" stop-opacity="0"/>
</radialGradient>
<radialGradient id="paint23_radial_2374_163" cx="0" cy="0" r="1" gradientUnits="userSpaceOnUse" gradientTransform="translate(1840.24 283.664) rotate(90) scale(96.3185 337.115)">
<stop stop-color="#FBB500"/>
<stop offset="1" stop-color="white" stop-opacity="0"/>
</radialGradient>
<radialGradient id="paint24_radial_2374_163" cx="0" cy="0" r="1" gradientUnits="userSpaceOnUse" gradientTransform="translate(1729.47 403.097) rotate(90) scale(119.435 366.974)">
<stop stop-color="#FBB500"/>
<stop offset="1" stop-color="white" stop-opacity="0"/>
</radialGradient>
<radialGradient id="paint25_radial_2374_163" cx="0" cy="0" r="1" gradientUnits="userSpaceOnUse" gradientTransform="translate(1879.73 242.246) rotate(90) scale(81.8708 332.299)">
<stop stop-color="#FBB500"/>
<stop offset="1" stop-color="white" stop-opacity="0"/>
</radialGradient>
<radialGradient id="paint26_radial_2374_163" cx="0" cy="0" r="1" gradientUnits="userSpaceOnUse" gradientTransform="translate(1905.73 214.314) rotate(90) scale(82.8339 306.293)">
<stop stop-color="#FBB500"/>
<stop offset="1" stop-color="white" stop-opacity="0"/>
</radialGradient>
<radialGradient id="paint27_radial_2374_163" cx="0" cy="0" r="1" gradientUnits="userSpaceOnUse" gradientTransform="translate(1718.88 443.487) rotate(90) scale(129.002 373.716)">
<stop stop-color="#FBB500"/>
<stop offset="1" stop-color="white" stop-opacity="0"/>
</radialGradient>
<radialGradient id="paint28_radial_2374_163" cx="0" cy="0" r="1" gradientUnits="userSpaceOnUse" gradientTransform="translate(1721.77 471.26) rotate(90) scale(135.585 395.869)">
<stop stop-color="#FBB500"/>
<stop offset="1" stop-color="white" stop-opacity="0"/>
</radialGradient>
<radialGradient id="paint29_radial_2374_163" cx="0" cy="0" r="1" gradientUnits="userSpaceOnUse" gradientTransform="translate(1703.46 498.039) rotate(90) scale(148.879 406.464)">
<stop stop-color="#FBB500"/>
<stop offset="1" stop-color="white" stop-opacity="0"/>
</radialGradient>
<radialGradient id="paint30_radial_2374_163" cx="0" cy="0" r="1" gradientUnits="userSpaceOnUse" gradientTransform="translate(1745.52 423.326) scale(118.472 370.826)">
<stop stop-color="#FBB500"/>
<stop offset="1" stop-color="white" stop-opacity="0"/>
</radialGradient>
<radialGradient id="paint31_radial_2374_163" cx="0" cy="0" r="1" gradientUnits="userSpaceOnUse" gradientTransform="translate(1710.85 398.281) scale(108.84 351.563)">
<stop stop-color="#FBB500"/>
<stop offset="1" stop-color="white" stop-opacity="0"/>
</radialGradient>
<radialGradient id="paint32_radial_2374_163" cx="0" cy="0" r="1" gradientUnits="userSpaceOnUse" gradientTransform="translate(1775.38 440.662) scale(125.214 376.605)">
<stop stop-color="#FBB500"/>
<stop offset="1" stop-color="white" stop-opacity="0"/>
</radialGradient>
<radialGradient id="paint33_radial_2374_163" cx="0" cy="0" r="1" gradientUnits="userSpaceOnUse" gradientTransform="translate(1679.06 372.276) scale(96.3185 337.115)">
<stop stop-color="#FBB500"/>
<stop offset="1" stop-color="white" stop-opacity="0"/>
</radialGradient>
<radialGradient id="paint34_radial_2374_163" cx="0" cy="0" r="1" gradientUnits="userSpaceOnUse" gradientTransform="translate(1798.5 483.042) scale(119.435 366.974)">
<stop stop-color="#FBB500"/>
<stop offset="1" stop-color="white" stop-opacity="0"/>
</radialGradient>
<radialGradient id="paint35_radial_2374_163" cx="0" cy="0" r="1" gradientUnits="userSpaceOnUse" gradientTransform="translate(1637.65 332.785) scale(81.8708 332.299)">
<stop stop-color="#FBB500"/>
<stop offset="1" stop-color="white" stop-opacity="0"/>
</radialGradient>
<radialGradient id="paint36_radial_2374_163" cx="0" cy="0" r="1" gradientUnits="userSpaceOnUse" gradientTransform="translate(1609.71 306.779) scale(82.8339 306.293)">
<stop stop-color="#FBB500"/>
<stop offset="1" stop-color="white" stop-opacity="0"/>
</radialGradient>
<radialGradient id="paint37_radial_2374_163" cx="0" cy="0" r="1" gradientUnits="userSpaceOnUse" gradientTransform="translate(1838.89 493.638) scale(129.002 373.716)">
<stop stop-color="#FBB500"/>
<stop offset="1" stop-color="white" stop-opacity="0"/>
</radialGradient>
<radialGradient id="paint38_radial_2374_163" cx="0" cy="0" r="1" gradientUnits="userSpaceOnUse" gradientTransform="translate(1866.66 490.748) scale(135.585 395.869)">
<stop stop-color="#FBB500"/>
<stop offset="1" stop-color="white" stop-opacity="0"/>
</radialGradient>
<radialGradient id="paint39_radial_2374_163" cx="0" cy="0" r="1" gradientUnits="userSpaceOnUse" gradientTransform="translate(1893.44 509.049) scale(148.879 406.464)">
<stop stop-color="#FBB500"/>
<stop offset="1" stop-color="white" stop-opacity="0"/>
</radialGradient>
</defs>
</svg>
