<svg width="120" height="106" viewBox="0 0 120 106" fill="none" xmlns="http://www.w3.org/2000/svg">
<path d="M56.1347 0.361482C43.5663 0.00438708 20.3595 2.80758 10.7578 13.5561C1.1561 24.3047 -2.27308 41.4095 2.28853 55.7111C6.85014 70.0306 19.1792 80.8327 32.6886 82.3504C30.041 91.4206 24.65 99.4731 17.6162 104.865C28.8288 106.329 40.3285 96.9913 42.5774 84.618C59.7872 85.6714 77.7146 86.5998 93.5367 78.9223C109.343 71.2448 122.182 52.1759 118.259 33.3749C115.436 19.841 104.67 9.78878 92.9625 5.16441C81.2555 0.540034 68.5595 0.432901 56.1347 0.361482Z" fill="#FBFBFB"/>
<path d="M56.134 0.362249C56.134 0.362249 56.437 0.326532 57.0431 0.326532C57.6811 0.326532 58.5583 0.326542 59.7227 0.308687C62.0673 0.308687 65.5443 0.308678 70.0262 0.522935C74.4921 0.790756 79.9947 1.20141 86.231 2.75478C92.4355 4.29028 99.4693 7.12918 105.913 12.6284C109.103 15.3781 112.165 18.7526 114.574 22.9306C115.786 25.0018 116.838 27.2515 117.604 29.6797C118.051 30.876 118.306 32.1437 118.625 33.4113C118.8 34.7147 119.072 36.0003 119.183 37.3394C119.646 42.6779 118.816 48.2843 116.902 53.5515C115.02 58.8543 111.942 63.7287 108.242 68.0317C104.525 72.3525 99.9956 76.0127 94.9077 78.7088C89.8357 81.4227 84.2533 83.1368 78.5273 84.2795C66.9957 86.4577 54.858 85.8864 42.5768 85.1186L43.0074 84.7437C42.5927 86.6184 42.0823 88.6539 41.2051 90.5286C36.8508 100.42 26.9461 106.526 17.5996 105.366L16.499 105.223L17.4082 104.527C24.6174 98.9918 29.8011 90.8857 32.3371 82.244L32.672 82.8154C23.2139 81.6727 14.7286 76.2805 8.97077 68.9601C3.10128 61.6754 0.0549014 52.3195 0.00705238 43.4993C-0.295992 25.7695 9.21002 10.6644 20.2951 6.57569C25.6382 4.1653 30.6943 2.87976 35.1283 2.00488C39.5623 1.14785 43.4061 0.755046 46.5163 0.522935C52.7686 0.0765667 56.15 0.380094 56.15 0.380094C56.15 0.380094 55.9426 0.397956 55.5279 0.415811C55.0813 0.415811 54.4752 0.415811 53.6777 0.415811C52.0509 0.469375 49.6425 0.522941 46.5323 0.808617C43.4221 1.07644 39.5942 1.5228 35.1921 2.41553C30.7899 3.32612 25.7658 4.64737 20.4864 7.07562C9.59281 11.1643 0.342017 26.0373 0.676961 43.4636C0.756709 52.1231 3.75521 61.2469 9.51305 68.3887C15.1752 75.5485 23.501 80.8156 32.7358 81.9226L33.2303 81.9762L33.0708 82.494C30.5029 91.3142 25.2076 99.5988 17.8548 105.259L17.6634 104.42C26.6271 105.544 36.2607 99.6167 40.4395 90.0823C41.2848 88.2968 41.7793 86.3328 42.178 84.5294L42.2578 84.1366H42.6086C54.8899 84.9222 66.9639 85.4936 78.3838 83.351C84.0619 82.244 89.5645 80.5478 94.5727 77.8875C99.5649 75.2628 104.031 71.6562 107.699 67.4246C111.352 63.193 114.382 58.408 116.232 53.2301C118.114 48.0701 118.928 42.6065 118.497 37.3929C118.386 36.0895 118.13 34.8219 117.955 33.5542C117.652 32.3222 117.397 31.0724 116.966 29.9118C116.216 27.5371 115.196 25.3232 114.015 23.2877C111.671 19.1811 108.672 15.8601 105.546 13.1284C99.2141 7.66482 92.276 4.80808 86.1194 3.23686C79.9309 1.64779 74.4602 1.18356 70.0102 0.862179C65.5443 0.594358 62.0832 0.540782 59.7227 0.487218C58.5743 0.451508 57.6811 0.433666 57.0431 0.415811C56.437 0.397956 56.134 0.362249 56.134 0.362249Z" fill="#171714"/>
<path d="M68.2807 36.9966C68.804 37.0091 69.2713 37.0215 69.6825 37.034C70.0937 37.034 70.48 37.034 70.8413 37.034C71.2027 37.034 71.5329 37.0215 71.832 36.9966C72.1435 36.9717 72.455 36.9592 72.7665 36.9592C72.941 36.9592 73.0718 37.0278 73.159 37.1648C73.2463 37.2894 73.2899 37.4265 73.2899 37.576C73.2899 37.7879 73.2338 37.9499 73.1216 38.062C73.0095 38.1617 72.8475 38.2365 72.6357 38.2863C72.4363 38.3237 72.1933 38.3424 71.9067 38.3424C71.6326 38.3424 71.3211 38.3424 70.9722 38.3424C70.5859 38.3424 70.1934 38.3424 69.7946 38.3424C69.3959 38.3424 69.0345 38.3361 68.7106 38.3237C68.6856 38.6477 68.6607 39.0028 68.6358 39.3891C68.6233 39.7754 68.6171 40.1679 68.6171 40.5666C68.6171 40.766 68.6171 40.9591 68.6171 41.146C68.6296 41.3329 68.642 41.5198 68.6545 41.7068C68.9411 41.5074 69.2962 41.3516 69.7199 41.2395C70.156 41.1149 70.5361 41.0526 70.86 41.0526C71.2712 41.0526 71.6575 41.1149 72.0189 41.2395C72.3802 41.3641 72.698 41.551 72.9721 41.8002C73.2463 42.0494 73.4581 42.3609 73.6076 42.7348C73.7696 43.1086 73.8506 43.5447 73.8506 44.0431C73.8506 44.5665 73.7447 45.04 73.5328 45.4637C73.3335 45.8749 73.0593 46.23 72.7104 46.529C72.374 46.8156 71.9815 47.0337 71.5329 47.1832C71.0968 47.3452 70.642 47.4262 70.1685 47.4262C70.0065 47.4262 69.8445 47.4138 69.6825 47.3888C69.5205 47.3764 69.3772 47.339 69.2526 47.2767C69.128 47.2268 69.0221 47.1459 68.9349 47.0337C68.8601 46.9216 68.8227 46.772 68.8227 46.5851C68.8227 46.4481 68.8601 46.3359 68.9349 46.2487C69.0221 46.149 69.1405 46.0992 69.29 46.0992C69.4271 46.0992 69.5641 46.1178 69.7012 46.1552C69.8383 46.1926 69.9753 46.2113 70.1124 46.2113C70.4239 46.2113 70.723 46.1615 71.0096 46.0618C71.3086 45.9496 71.5703 45.8001 71.7946 45.6132C72.0189 45.4138 72.1996 45.1833 72.3366 44.9216C72.4737 44.6599 72.5422 44.3733 72.5422 44.0618C72.5422 43.4762 72.3615 43.0463 72.0002 42.7721C71.6513 42.4856 71.2339 42.3423 70.7479 42.3423C70.237 42.3423 69.8196 42.4357 69.4956 42.6226C69.1716 42.7971 68.8663 43.0276 68.5797 43.3142C68.48 43.364 68.3679 43.389 68.2433 43.389C67.9567 43.389 67.7511 43.2768 67.6265 43.0525C67.5019 42.8282 67.4209 42.5479 67.3835 42.2114C67.3461 41.8625 67.3337 41.4825 67.3461 41.0713C67.3586 40.6476 67.3648 40.2489 67.3648 39.875C67.3648 39.414 67.3773 38.9654 67.4022 38.5293C67.4271 38.0932 67.4583 37.7069 67.4956 37.3704C67.4956 37.2458 67.5579 37.1524 67.6826 37.0901C67.8196 37.0278 67.9692 36.9966 68.1311 36.9966H68.2807ZM78.8224 38.305C78.8723 38.2676 78.9283 38.2365 78.9906 38.2115C79.0529 38.1742 79.1215 38.1555 79.1962 38.1555C79.5327 38.1804 79.9003 38.2738 80.299 38.4358C80.6977 38.5854 81.0653 38.8034 81.4018 39.09C81.7507 39.3766 82.0435 39.7317 82.2803 40.1554C82.517 40.5791 82.6354 41.0775 82.6354 41.6507C82.6354 42.3236 82.5232 42.8905 82.2989 43.3516C82.0871 43.8002 81.8005 44.1677 81.4392 44.4543C81.0903 44.7285 80.6977 44.9278 80.2616 45.0525C79.8255 45.1646 79.3894 45.2207 78.9532 45.2207C78.5919 45.2207 78.2056 45.1584 77.7944 45.0338C77.3957 44.8967 77.0218 44.6911 76.6729 44.417C76.3365 44.1428 76.0561 43.8002 75.8318 43.389C75.6076 42.9653 75.4954 42.4669 75.4954 41.8937C75.4954 41.3703 75.6013 40.8844 75.8132 40.4358C76.0374 39.9747 76.2991 39.5822 76.5982 39.2582C76.9097 38.9343 77.2337 38.6788 77.5701 38.4919C77.9066 38.305 78.1931 38.2115 78.4299 38.2115C78.567 38.2115 78.6978 38.2427 78.8224 38.305ZM78.9346 39.4078C78.7103 39.5199 78.486 39.6507 78.2617 39.8003C78.0374 39.9498 77.8318 40.1305 77.6449 40.3423C77.458 40.5417 77.3022 40.7784 77.1776 41.0526C77.0655 41.3267 77.0094 41.6507 77.0094 42.0245C77.0094 42.3609 77.0779 42.6475 77.215 42.8843C77.352 43.121 77.5203 43.3142 77.7196 43.4637C77.9315 43.6132 78.1558 43.7254 78.3925 43.8002C78.6293 43.8625 78.8473 43.8936 79.0467 43.8936C79.2835 43.8936 79.5264 43.8562 79.7757 43.7815C80.0373 43.7067 80.2679 43.5883 80.4672 43.4263C80.6791 43.2519 80.8473 43.0276 80.9719 42.7535C81.1089 42.4793 81.1775 42.1429 81.1775 41.7441C81.1775 41.3329 81.0965 40.9965 80.9345 40.7348C80.785 40.4607 80.5981 40.2364 80.3738 40.0619C80.1495 39.8875 79.9065 39.7504 79.6448 39.6507C79.3831 39.5511 79.1464 39.4701 78.9346 39.4078Z" fill="#171714"/>
<path d="M49.5615 55.0865C44.3619 55.2115 35.446 55.4971 30.2624 54.9258C29.0662 54.7829 27.8061 54.6044 26.8651 53.7831C25.9241 52.9618 25.4615 51.2656 26.2431 50.2479C24.9352 49.9086 23.8346 48.6945 23.5157 47.2304C23.1967 45.7663 23.6592 44.1237 24.68 43.1417C22.8777 41.5526 23.0372 37.9638 24.9512 36.5711C23.2286 34.4821 24.68 30.804 27.0086 29.697C29.3373 28.5901 32.0009 29.215 34.4572 29.8756C34.1541 27.3938 33.9627 23.8943 34.9197 21.6267C35.8926 19.3592 38.301 18.145 40.1352 19.6091C41.81 20.9304 40.853 23.5907 41.0763 25.8761C41.5069 30.072 47.5518 31.1433 49.5455 31.7504V55.1043L49.5615 55.0865Z" fill="#FBFBFB"/>
<path d="M49.5621 55.0871C49.5621 55.0871 49.5143 54.4622 49.4824 53.3731C49.4664 52.1946 49.4345 50.6056 49.4026 48.6415C49.3548 44.4992 49.3069 38.7322 49.2272 31.7331L49.4664 32.0902C47.4727 31.5367 45.2078 31.0725 43.1184 29.6441C42.1136 28.9299 41.061 27.8408 40.8058 26.3231C40.5187 24.8412 40.8376 23.4128 40.7738 22.0737C40.7579 21.4131 40.6303 20.7703 40.2794 20.3239C39.9445 19.8776 39.3862 19.5383 38.828 19.4491C37.6955 19.217 36.4674 19.9311 35.7337 21.0381C34.9841 22.1451 34.7449 23.6628 34.6651 25.1626C34.6013 26.6802 34.697 28.2336 34.8884 29.8048L34.9682 30.4654L34.378 30.3047C33.5806 30.0905 32.7192 29.8762 31.858 29.7334C29.8324 29.3584 27.5994 29.4477 26.148 30.8404C24.7125 32.1795 24.0267 34.7863 25.2548 36.2503L25.5897 36.6432L25.191 36.9288C23.4525 38.1965 23.4206 41.4639 24.9358 42.7852L25.3027 43.1066L24.9358 43.4458C23.9788 44.3564 23.5801 45.9276 23.915 47.2131C24.234 48.5165 25.2229 49.5521 26.3394 49.8378L26.9136 49.9985L26.5148 50.4984C25.9885 51.1591 26.1639 52.3017 26.6743 53.0159C27.1688 53.748 28.046 54.1229 28.8754 54.3194C30.5979 54.6586 32.3365 54.73 33.9315 54.8371C37.1373 54.9978 39.9604 54.9978 42.2731 54.9978C44.522 54.9978 46.3084 54.9978 47.6481 54.9978C48.8922 54.9978 49.4983 55.0514 49.5462 55.0692C49.594 55.0871 48.8763 55.1764 47.6481 55.2478C46.4041 55.3192 44.5858 55.4085 42.2731 55.4799C39.9604 55.5335 37.1373 55.6049 33.9155 55.5156C32.2886 55.4442 30.582 55.4085 28.7478 55.0692C27.8387 54.855 26.8338 54.48 26.132 53.5159C25.494 52.6232 25.1591 51.1234 25.9725 49.9985L26.1639 50.6413C24.7922 50.2842 23.612 49.0701 23.1813 47.4631C22.7826 45.8562 23.2292 43.9815 24.4254 42.8209V43.4815C22.4955 41.7318 22.5114 37.9108 24.7285 36.1789L24.6487 36.8574C23.8672 35.9111 23.6279 34.4827 23.8991 33.2865C24.1543 32.0724 24.7604 30.9653 25.6057 30.144C27.408 28.4478 29.8643 28.43 31.9856 28.8049C32.8947 28.9656 33.756 29.1977 34.5694 29.3941L34.059 29.9119C33.8676 28.305 33.756 26.6981 33.8357 25.0911C33.9314 23.5021 34.1706 21.8416 35.0798 20.4668C35.957 19.1634 37.4563 18.2707 38.9556 18.5563C39.7052 18.6992 40.3751 19.092 40.8855 19.7526C41.3959 20.4132 41.5235 21.2881 41.5554 22.038C41.5873 23.5378 41.3002 24.9305 41.5554 26.1446C41.7468 27.3587 42.608 28.2872 43.5172 28.9656C45.4311 30.3047 47.6322 30.7868 49.6578 31.376L49.8971 31.4474V31.7331C49.8173 38.8214 49.7695 44.6778 49.7216 48.8737C49.6897 50.802 49.6578 52.3553 49.6419 53.5159C49.61 54.5693 49.594 55.1049 49.5621 55.0871Z" fill="#326FCD"/>
<path d="M53.1674 57.3008H57.2664C58.6229 57.3008 59.7227 56.0697 59.7227 54.5512V31.1257C59.7227 29.6072 58.6229 28.3761 57.2664 28.3761H53.1674C51.8108 28.3761 50.7111 29.6072 50.7111 31.1257V54.5512C50.7111 56.0697 51.8108 57.3008 53.1674 57.3008Z" fill="#326FCD"/>
<path d="M55.48 35.1961C56.3169 35.1961 56.9953 34.4367 56.9953 33.4999C56.9953 32.5631 56.3169 31.8037 55.48 31.8037C54.6432 31.8037 53.9648 32.5631 53.9648 33.4999C53.9648 34.4367 54.6432 35.1961 55.48 35.1961Z" fill="#FBFBFB"/>
<path d="M24.7282 37.0178C24.5846 36.8392 25.8128 35.6251 27.7267 35.4822C29.6566 35.3216 31.0123 36.3214 30.9007 36.5178C30.805 36.7678 29.4652 36.25 27.7905 36.4107C26.1158 36.5357 24.8558 37.2499 24.7282 37.0178Z" fill="#326FCD"/>
<path d="M24.4263 43.3206C24.3466 43.0885 25.3514 42.4814 26.739 42.5171C28.1107 42.5528 29.0996 43.2313 29.0039 43.4456C28.9241 43.6956 27.9193 43.4634 26.7231 43.4456C25.5109 43.392 24.5061 43.5706 24.4423 43.3027L24.4263 43.3206Z" fill="#326FCD"/>
<path d="M26.2601 50.2485C26.1803 50.0521 26.7545 49.3915 27.855 49.3379C28.9715 49.4272 29.5138 50.0878 29.4341 50.2842C29.3543 50.552 28.5728 50.302 27.8391 50.2842C27.1054 50.2842 26.3239 50.5342 26.2441 50.2842L26.2601 50.2485Z" fill="#326FCD"/>
</svg>
