<svg width="119" height="109" viewBox="0 0 119 109" fill="none" xmlns="http://www.w3.org/2000/svg">
<path d="M65.0385 1.07331C77.5822 1.48329 100.564 5.7061 109.61 17.0216C118.656 28.3166 121.238 45.5769 115.982 59.5573C110.727 73.5376 97.9084 83.5412 84.3759 84.2177C86.5734 93.4218 91.5359 101.765 98.293 107.587C87.0495 108.366 76.044 98.3416 74.4142 85.8781C57.2193 85.8781 39.292 85.6731 23.91 77.0635C8.52797 68.4539 -3.31983 48.6312 1.51451 30.1615C4.99377 16.8371 16.219 7.48955 28.1034 3.59472C39.9879 -0.300111 52.6597 0.376336 65.0385 1.07331Z" fill="#FBFBFB"/>
<path d="M65.0392 1.07339C65.0392 1.07339 64.7279 1.07339 64.1236 1.07339C63.4827 1.05289 62.6037 1.01191 61.4501 0.970915C59.1061 0.888918 55.6452 0.724904 51.1771 0.724904C46.7273 0.765902 41.252 0.909392 35.0076 2.09834C28.7999 3.28729 21.7498 5.70619 15.1759 10.749C11.9163 13.2704 8.76669 16.4067 6.23964 20.3426C4.97612 22.29 3.84078 24.4219 2.98012 26.7588C2.50401 27.8862 2.1927 29.1162 1.82646 30.3256C1.58841 31.5761 1.27711 32.8265 1.1123 34.0974C0.434759 39.2427 0.9658 44.7365 2.59556 49.9842C4.1887 55.2525 6.97213 60.2133 10.3965 64.6411C13.8391 69.0894 18.1058 72.9433 22.9401 75.8541C27.7928 78.806 33.1948 80.8354 38.7799 82.2909C50.0417 85.1197 62.091 85.3042 74.3783 85.2837H74.7811L74.8544 85.7347C75.1657 87.5591 75.5502 89.527 76.301 91.3515C79.9817 101.089 89.2658 107.566 98.2387 106.992L97.9823 107.935C90.9139 101.826 86.043 93.2374 83.9188 84.2793L83.7723 83.6643L84.3399 83.6233C93.5875 83.0903 102.121 78.3755 108.109 71.5903C114.188 64.8461 117.631 55.9495 118.125 47.3399C119.316 30.0181 110.856 14.6438 100.216 9.88801C95.0707 7.14113 90.1448 5.52171 85.8049 4.33277C81.4467 3.16432 77.6744 2.48784 74.5797 2.01636C71.485 1.54488 69.1044 1.33988 67.4747 1.17589C66.6873 1.11439 66.083 1.07341 65.6435 1.03241C65.2223 0.991411 65.0209 0.970895 65.0209 0.950395C65.0209 0.950395 68.4086 0.827413 74.6163 1.66788C77.711 2.07786 81.5199 2.71333 85.8965 3.84078C90.273 4.96823 95.2539 6.56717 100.454 9.29355C111.313 14.0493 120.067 29.7107 118.895 47.3809C118.418 56.175 114.921 65.3176 108.695 72.2463C102.579 79.1955 93.8622 84.0743 84.3583 84.6278L84.7794 83.9923C86.867 92.7454 91.6464 101.13 98.5317 107.074L99.5388 107.935L98.2753 108.017C88.863 108.612 79.2859 101.888 75.4037 91.741C74.6163 89.8345 74.1952 87.7641 73.8839 85.8577L74.36 86.3087C62.0727 86.3087 49.9502 86.1447 38.5602 83.2543C32.9018 81.7784 27.4265 79.708 22.5006 76.6946C17.5564 73.7017 13.2165 69.7659 9.71889 65.2151C6.22132 60.6848 3.40128 55.6215 1.78983 50.2303C0.14176 44.8595 -0.407593 39.2017 0.306571 33.913C0.48969 32.601 0.819312 31.3096 1.05737 30.0386C1.44192 28.7882 1.75321 27.5378 2.24763 26.3693C3.1266 23.9914 4.29859 21.798 5.61704 19.8096C8.21733 15.7917 11.4402 12.6144 14.7547 10.0725C21.4568 4.98871 28.6168 2.59034 34.8612 1.44239C41.1605 0.294435 46.654 0.212446 51.1221 0.232945C55.5902 0.294443 59.0512 0.519915 61.3951 0.663409C62.5305 0.745406 63.4278 0.806915 64.0687 0.868413C64.673 0.909411 64.9659 0.970915 64.9659 0.970915L65.0392 1.07339Z" fill="#171714"/>
<path d="M54.5177 46.0678C54.5606 45.2952 54.6036 44.4726 54.6465 43.5999C54.6894 42.713 54.7109 41.7974 54.7109 40.8532C54.7109 39.9376 54.7037 39.0291 54.6894 38.1278C54.6894 37.2122 54.6751 36.3252 54.6465 35.4669C54.6465 35.2952 54.7252 35.1664 54.8825 35.0806C55.0399 34.9805 55.2187 34.9304 55.419 34.9304C55.5907 34.9304 55.7552 34.9662 55.9126 35.0377C56.0699 35.1092 56.1772 35.2237 56.2345 35.381C56.2631 36.454 56.2774 37.4411 56.2774 38.3424C56.2917 39.2294 56.2988 40.1021 56.2988 40.9605C56.2988 41.8188 56.2702 42.6772 56.213 43.5356C56.1701 44.3796 56.1343 45.2952 56.1057 46.2824C56.0628 46.5256 55.9698 46.7044 55.8267 46.8188C55.6837 46.9333 55.5192 46.9905 55.3332 46.9905C55.1472 46.9905 54.9612 46.919 54.7752 46.7759C54.6036 46.6329 54.5177 46.4326 54.5177 46.1751V46.0678ZM62.6722 36.7544C62.7295 36.7115 62.7939 36.6758 62.8654 36.6471C62.9369 36.6042 63.0156 36.5828 63.1014 36.5828C63.4877 36.6114 63.9097 36.7187 64.3675 36.9046C64.8253 37.0763 65.2474 37.3267 65.6336 37.6557C66.0342 37.9848 66.3704 38.3925 66.6422 38.8789C66.914 39.3653 67.0499 39.9376 67.0499 40.5956C67.0499 41.3682 66.9212 42.0191 66.6637 42.5484C66.4205 43.0635 66.0914 43.4855 65.6765 43.8145C65.276 44.1293 64.8253 44.3582 64.3246 44.5012C63.8239 44.63 63.3232 44.6944 62.8225 44.6944C62.4076 44.6944 61.9641 44.6228 61.492 44.4798C61.0342 44.3224 60.605 44.0864 60.2044 43.7716C59.8182 43.4569 59.4963 43.0635 59.2388 42.5914C58.9813 42.1049 58.8525 41.5327 58.8525 40.8746C58.8525 40.2738 58.9741 39.7158 59.2173 39.2008C59.4748 38.6715 59.7752 38.2208 60.1186 37.8489C60.4762 37.4769 60.8482 37.1836 61.2345 36.969C61.6207 36.7544 61.9498 36.6471 62.2216 36.6471C62.379 36.6471 62.5292 36.6829 62.6722 36.7544ZM62.801 38.0205C62.5435 38.1493 62.286 38.2995 62.0285 38.4712C61.771 38.6429 61.5349 38.8503 61.3203 39.0935C61.1057 39.3224 60.9269 39.5942 60.7838 39.9089C60.6551 40.2237 60.5907 40.5956 60.5907 41.0248C60.5907 41.4111 60.6694 41.7401 60.8268 42.012C60.9841 42.2838 61.1773 42.5055 61.4062 42.6772C61.6494 42.8489 61.9069 42.9776 62.1787 43.0635C62.4505 43.135 62.7009 43.1708 62.9298 43.1708C63.2016 43.1708 63.4805 43.1278 63.7667 43.042C64.0671 42.9562 64.3318 42.8203 64.5607 42.6343C64.8039 42.434 64.997 42.1765 65.1401 41.8617C65.2974 41.547 65.3761 41.1607 65.3761 40.7029C65.3761 40.2308 65.2831 39.8446 65.0971 39.5441C64.9255 39.2294 64.7109 38.9719 64.4534 38.7716C64.1959 38.5713 63.9169 38.414 63.6165 38.2995C63.316 38.1851 63.0442 38.0921 62.801 38.0205ZM72.8869 36.7544C72.9441 36.7115 73.0085 36.6758 73.08 36.6471C73.1515 36.6042 73.2302 36.5828 73.316 36.5828C73.7023 36.6114 74.1243 36.7187 74.5821 36.9046C75.0399 37.0763 75.462 37.3267 75.8482 37.6557C76.2488 37.9848 76.585 38.3925 76.8568 38.8789C77.1286 39.3653 77.2646 39.9376 77.2646 40.5956C77.2646 41.3682 77.1358 42.0191 76.8783 42.5484C76.6351 43.0635 76.306 43.4855 75.8912 43.8145C75.4906 44.1293 75.0399 44.3582 74.5392 44.5012C74.0385 44.63 73.5378 44.6944 73.0371 44.6944C72.6222 44.6944 72.1787 44.6228 71.7066 44.4798C71.2488 44.3224 70.8196 44.0864 70.419 43.7716C70.0328 43.4569 69.7109 43.0635 69.4534 42.5914C69.1959 42.1049 69.0671 41.5327 69.0671 40.8746C69.0671 40.2738 69.1887 39.7158 69.4319 39.2008C69.6894 38.6715 69.9899 38.2208 70.3332 37.8489C70.6909 37.4769 71.0628 37.1836 71.4491 36.969C71.8354 36.7544 72.1644 36.6471 72.4362 36.6471C72.5936 36.6471 72.7438 36.6829 72.8869 36.7544ZM73.0156 38.0205C72.7581 38.1493 72.5006 38.2995 72.2431 38.4712C71.9856 38.6429 71.7495 38.8503 71.5349 39.0935C71.3203 39.3224 71.1415 39.5942 70.9984 39.9089C70.8697 40.2237 70.8053 40.5956 70.8053 41.0248C70.8053 41.4111 70.884 41.7401 71.0414 42.012C71.1987 42.2838 71.3919 42.5055 71.6208 42.6772C71.864 42.8489 72.1215 42.9776 72.3933 43.0635C72.6651 43.135 72.9155 43.1708 73.1444 43.1708C73.4162 43.1708 73.6952 43.1278 73.9813 43.042C74.2817 42.9562 74.5464 42.8203 74.7753 42.6343C75.0185 42.434 75.2116 42.1765 75.3547 41.8617C75.512 41.547 75.5907 41.1607 75.5907 40.7029C75.5907 40.2308 75.4977 39.8446 75.3118 39.5441C75.1401 39.2294 74.9255 38.9719 74.668 38.7716C74.4105 38.5713 74.1315 38.414 73.8311 38.2995C73.5306 38.1851 73.2588 38.0921 73.0156 38.0205Z" fill="#171714"/>
<path d="M41.9853 35.4707C41.9853 39.2221 39.2568 42.2764 35.9057 42.2764C32.5546 42.2764 29.8262 39.2221 29.8262 35.4707C29.8262 31.7194 32.5546 28.665 35.9057 28.665C39.2568 28.665 41.9853 31.7194 41.9853 35.4707Z" fill="#FF8B00"/>
<path d="M35.8867 40.4932C30.7227 40.4932 26.5293 45.1875 26.5293 50.9682H45.2624C45.2624 45.1875 41.0689 40.4932 35.905 40.4932H35.8867Z" fill="#FF8B00"/>
</svg>
