<svg width="1920" height="669" viewBox="0 0 1920 669" fill="none" xmlns="http://www.w3.org/2000/svg">
<g opacity="0.8">
<path d="M1965 91.7316C1861.19 88.1584 1656.69 118.568 1669.17 268.792C1684.77 456.572 1653.05 627.717 1250.64 484.665C848.234 341.612 741.652 479.12 654.827 521.259C568.002 563.399 14.8182 627.717 204.585 232.197C394.352 -163.324 -111 16.324 -111 268.792" stroke="url(#paint0_linear_886_588)" stroke-opacity="0.2"/>
<path d="M1955 101.732C1851.19 98.1584 1646.69 128.568 1659.17 278.792C1674.77 466.572 1643.05 637.717 1240.64 494.665C838.234 351.612 731.652 489.12 644.827 531.259C558.002 573.399 4.81815 637.717 194.585 242.197C384.352 -153.324 -121 26.324 -121 278.792" stroke="url(#paint1_linear_886_588)" stroke-opacity="0.2"/>
<path d="M1965 111.732C1861.19 108.158 1656.69 138.568 1669.17 288.792C1684.77 476.572 1653.05 647.717 1250.64 504.665C848.234 361.612 741.652 499.12 654.827 541.259C568.002 583.399 14.8182 647.717 204.585 252.197C394.352 -143.324 -111 36.324 -111 288.792" stroke="url(#paint2_linear_886_588)" stroke-opacity="0.2"/>
<path d="M1945 111.732C1841.19 108.158 1636.69 138.568 1649.17 288.792C1664.77 476.572 1633.05 647.717 1230.64 504.665C828.234 361.612 721.652 499.12 634.827 541.259C548.002 583.399 -5.18185 647.717 184.585 252.197C374.352 -143.324 -131 36.324 -131 288.792" stroke="url(#paint3_linear_886_588)" stroke-opacity="0.2"/>
<path d="M1925 111.732C1821.19 108.158 1616.69 138.568 1629.17 288.792C1644.77 476.572 1613.05 647.717 1210.64 504.665C808.234 361.612 701.652 499.12 614.827 541.259C528.002 583.399 -25.1818 647.717 164.585 252.197C354.352 -143.324 -151 36.324 -151 288.792" stroke="url(#paint4_linear_886_588)" stroke-opacity="0.2"/>
<path d="M1925 131.732C1821.19 128.158 1616.69 158.568 1629.17 308.792C1644.77 496.572 1613.05 667.717 1210.64 524.665C808.234 381.612 701.652 519.12 614.827 561.259C528.002 603.399 -25.1818 667.717 164.585 272.197C354.352 -123.324 -151 56.324 -151 308.792" stroke="url(#paint5_linear_886_588)" stroke-opacity="0.2"/>
<path d="M1925 151.732C1821.19 148.158 1616.69 178.568 1629.17 328.792C1644.77 516.572 1613.05 687.717 1210.64 544.665C808.234 401.612 701.652 539.12 614.827 581.259C528.002 623.399 -25.1818 687.717 164.585 292.197C354.352 -103.324 -151 76.324 -151 328.792" stroke="url(#paint6_linear_886_588)" stroke-opacity="0.2"/>
<path d="M1955 151.732C1851.19 148.158 1646.69 178.568 1659.17 328.792C1674.77 516.572 1643.05 687.717 1240.64 544.665C838.234 401.612 731.652 539.12 644.827 581.259C558.002 623.399 4.81815 687.717 194.585 292.197C384.352 -103.324 -121 76.324 -121 328.792" stroke="url(#paint7_linear_886_588)" stroke-opacity="0.2"/>
<path d="M1965 146.732C1861.19 143.158 1656.69 173.568 1669.17 323.792C1684.77 511.572 1653.05 682.717 1250.64 539.665C848.234 396.612 741.652 534.12 654.827 576.259C568.002 618.399 14.8182 682.717 204.585 287.197C394.352 -108.324 -111 71.324 -111 323.792" stroke="url(#paint8_linear_886_588)" stroke-opacity="0.2"/>
<path d="M1955 156.732C1851.19 153.158 1646.69 183.568 1659.17 333.792C1674.77 521.572 1643.05 692.717 1240.64 549.665C838.234 406.612 731.652 544.12 644.827 586.259C558.002 628.399 4.81815 692.717 194.585 297.197C384.352 -98.3237 -121 81.324 -121 333.792" stroke="url(#paint9_linear_886_588)" stroke-opacity="0.2"/>
<path d="M1965 166.732C1861.19 163.158 1656.69 193.568 1669.17 343.792C1684.77 531.572 1653.05 702.717 1250.64 559.665C848.234 416.612 741.652 554.12 654.827 596.259C568.002 638.399 14.8182 702.717 204.585 307.197C394.352 -88.3237 -111 91.324 -111 343.792" stroke="url(#paint10_linear_886_588)" stroke-opacity="0.2"/>
<path d="M1945 166.732C1841.19 163.158 1636.69 193.568 1649.17 343.792C1664.77 531.572 1633.05 702.717 1230.64 559.665C828.234 416.612 721.652 554.12 634.827 596.259C548.002 638.399 -5.18185 702.717 184.585 307.197C374.352 -88.3237 -131 91.324 -131 343.792" stroke="url(#paint11_linear_886_588)" stroke-opacity="0.2"/>
<path d="M1925 166.732C1821.19 163.158 1616.69 193.568 1629.17 343.792C1644.77 531.572 1613.05 702.717 1210.64 559.665C808.234 416.612 701.652 554.12 614.827 596.259C528.002 638.399 -25.1818 702.717 164.585 307.197C354.352 -88.3237 -151 91.324 -151 343.792" stroke="url(#paint12_linear_886_588)" stroke-opacity="0.2"/>
<path d="M1925 186.732C1821.19 183.158 1616.69 213.568 1629.17 363.792C1644.77 551.572 1613.05 722.717 1210.64 579.665C808.234 436.612 701.652 574.12 614.827 616.259C528.002 658.399 -25.1818 722.717 164.585 327.197C354.352 -68.3237 -151 111.324 -151 363.792" stroke="url(#paint13_linear_886_588)" stroke-opacity="0.2"/>
<path d="M1925 206.732C1821.19 203.158 1616.69 233.568 1629.17 383.792C1644.77 571.572 1613.05 742.717 1210.64 599.665C808.234 456.612 701.652 594.12 614.827 636.259C528.002 678.399 -25.1818 742.717 164.585 347.197C354.352 -48.3237 -151 131.324 -151 383.792" stroke="url(#paint14_linear_886_588)" stroke-opacity="0.2"/>
<path d="M1955 206.732C1851.19 203.158 1646.69 233.568 1659.17 383.792C1674.77 571.572 1643.05 742.717 1240.64 599.665C838.234 456.612 731.652 594.12 644.827 636.259C558.002 678.399 4.81815 742.717 194.585 347.197C384.352 -48.3237 -121 131.324 -121 383.792" stroke="url(#paint15_linear_886_588)" stroke-opacity="0.2"/>
</g>
<defs>
<linearGradient id="paint0_linear_886_588" x1="927" y1="89.5" x2="927" y2="598.5" gradientUnits="userSpaceOnUse">
<stop stop-color="white"/>
<stop offset="1" stop-color="white" stop-opacity="0"/>
</linearGradient>
<linearGradient id="paint1_linear_886_588" x1="917" y1="99.5" x2="917" y2="608.5" gradientUnits="userSpaceOnUse">
<stop stop-color="white"/>
<stop offset="1" stop-color="white" stop-opacity="0"/>
</linearGradient>
<linearGradient id="paint2_linear_886_588" x1="927" y1="109.5" x2="927" y2="618.5" gradientUnits="userSpaceOnUse">
<stop stop-color="white"/>
<stop offset="1" stop-color="white" stop-opacity="0"/>
</linearGradient>
<linearGradient id="paint3_linear_886_588" x1="907" y1="109.5" x2="907" y2="618.5" gradientUnits="userSpaceOnUse">
<stop stop-color="white"/>
<stop offset="1" stop-color="white" stop-opacity="0"/>
</linearGradient>
<linearGradient id="paint4_linear_886_588" x1="887" y1="109.5" x2="887" y2="618.5" gradientUnits="userSpaceOnUse">
<stop stop-color="white"/>
<stop offset="1" stop-color="white" stop-opacity="0"/>
</linearGradient>
<linearGradient id="paint5_linear_886_588" x1="887" y1="129.5" x2="887" y2="638.5" gradientUnits="userSpaceOnUse">
<stop stop-color="white"/>
<stop offset="1" stop-color="white" stop-opacity="0"/>
</linearGradient>
<linearGradient id="paint6_linear_886_588" x1="887" y1="149.5" x2="887" y2="658.5" gradientUnits="userSpaceOnUse">
<stop stop-color="white"/>
<stop offset="1" stop-color="white" stop-opacity="0"/>
</linearGradient>
<linearGradient id="paint7_linear_886_588" x1="917" y1="149.5" x2="917" y2="658.5" gradientUnits="userSpaceOnUse">
<stop stop-color="white"/>
<stop offset="1" stop-color="white" stop-opacity="0"/>
</linearGradient>
<linearGradient id="paint8_linear_886_588" x1="927" y1="144.5" x2="927" y2="653.5" gradientUnits="userSpaceOnUse">
<stop stop-color="white"/>
<stop offset="1" stop-color="white" stop-opacity="0"/>
</linearGradient>
<linearGradient id="paint9_linear_886_588" x1="917" y1="154.5" x2="917" y2="663.5" gradientUnits="userSpaceOnUse">
<stop stop-color="white"/>
<stop offset="1" stop-color="white" stop-opacity="0"/>
</linearGradient>
<linearGradient id="paint10_linear_886_588" x1="927" y1="164.5" x2="927" y2="673.5" gradientUnits="userSpaceOnUse">
<stop stop-color="white"/>
<stop offset="1" stop-color="white" stop-opacity="0"/>
</linearGradient>
<linearGradient id="paint11_linear_886_588" x1="907" y1="164.5" x2="907" y2="673.5" gradientUnits="userSpaceOnUse">
<stop stop-color="white"/>
<stop offset="1" stop-color="white" stop-opacity="0"/>
</linearGradient>
<linearGradient id="paint12_linear_886_588" x1="887" y1="164.5" x2="887" y2="673.5" gradientUnits="userSpaceOnUse">
<stop stop-color="white"/>
<stop offset="1" stop-color="white" stop-opacity="0"/>
</linearGradient>
<linearGradient id="paint13_linear_886_588" x1="887" y1="184.5" x2="887" y2="693.5" gradientUnits="userSpaceOnUse">
<stop stop-color="white"/>
<stop offset="1" stop-color="white" stop-opacity="0"/>
</linearGradient>
<linearGradient id="paint14_linear_886_588" x1="887" y1="204.5" x2="887" y2="713.5" gradientUnits="userSpaceOnUse">
<stop stop-color="white"/>
<stop offset="1" stop-color="white" stop-opacity="0"/>
</linearGradient>
<linearGradient id="paint15_linear_886_588" x1="917" y1="204.5" x2="917" y2="713.5" gradientUnits="userSpaceOnUse">
<stop stop-color="white"/>
<stop offset="1" stop-color="white" stop-opacity="0"/>
</linearGradient>
</defs>
</svg>
