<svg width="42" height="40" viewBox="0 0 42 40" fill="none" xmlns="http://www.w3.org/2000/svg">
<path d="M27.5925 36.8416C27.5325 36.9016 27.1325 36.4916 26.3825 36.0416C26.0125 35.8316 25.5125 35.6416 24.9725 35.6916C24.4625 35.7216 23.8825 36.1216 23.8025 36.6816L23.2825 36.6516C23.2825 36.5116 23.2825 36.3516 23.2825 36.2016C23.2325 33.1516 23.3125 30.6816 23.4625 30.6816C23.6025 30.6816 23.7625 33.1516 23.8025 36.2016C23.8025 36.3516 23.8025 36.5116 23.8025 36.6516L23.2825 36.6216C23.4225 35.7216 24.2625 35.2516 24.9325 35.2316C25.6225 35.2016 26.1725 35.4816 26.5625 35.7516C27.3225 36.3216 27.6225 36.8116 27.5925 36.8516V36.8416Z" fill="#FF8B00"/>
<path d="M25.9927 39.1318C25.8227 39.1718 25.7227 38.1718 25.1027 37.3718C24.7827 36.9918 24.3427 36.8018 24.0227 36.7618C23.7027 36.7118 23.4827 36.7918 23.4427 36.7218C23.4027 36.6718 23.5927 36.4418 24.0227 36.3918C24.4527 36.3418 25.0727 36.5218 25.5027 37.0418C25.9127 37.5418 26.0327 38.1118 26.0727 38.5018C26.1027 38.8918 26.0627 39.1318 25.9927 39.1418V39.1318Z" fill="#FF8B00"/>
<path d="M36.0319 35.6717C35.9719 35.7317 35.5719 35.3217 34.8219 34.8717C34.4519 34.6617 33.9519 34.4717 33.4119 34.5217C32.9019 34.5517 32.3219 34.9517 32.2419 35.5117L31.7219 35.4817C31.7219 35.3417 31.7219 35.1817 31.7219 35.0317C31.6719 31.9817 31.7519 29.5117 31.9019 29.5117C32.0419 29.5117 32.2019 31.9817 32.2419 35.0317C32.2419 35.1817 32.2419 35.3417 32.2419 35.4817L31.7219 35.4517C31.8619 34.5517 32.7019 34.0817 33.3719 34.0617C34.0619 34.0317 34.6119 34.3117 35.0019 34.5817C35.7619 35.1517 36.0619 35.6417 36.0319 35.6817V35.6717Z" fill="#FF8B00"/>
<path d="M34.4322 37.9619C34.2622 38.0019 34.1622 37.0019 33.5422 36.2019C33.2222 35.8219 32.7822 35.6319 32.4622 35.5919C32.1422 35.5419 31.9222 35.6219 31.8822 35.5519C31.8422 35.5019 32.0322 35.2719 32.4622 35.2219C32.8922 35.1719 33.5122 35.3519 33.9422 35.8719C34.3522 36.3819 34.4722 36.9419 34.5122 37.3319C34.5422 37.7219 34.5022 37.9619 34.4322 37.9719V37.9619Z" fill="#FF8B00"/>
<path d="M39.1526 7.38156C39.3326 7.29156 41.5526 5.67156 41.5526 5.67156C41.5526 5.67156 38.3626 4.99156 38.0926 4.96156C39.1426 3.52156 39.4526 2.85156 39.8426 1.64156L36.0126 3.01156C34.3026 0.401559 30.9526 -0.378443 27.8826 0.161557C25.3226 0.611557 22.3126 3.45156 21.2326 5.79156C20.8726 6.56156 18.9026 10.8416 18.8226 11.6816L20.5426 15.3616L5.64258 21.1716C10.2126 25.9316 14.9426 27.7316 17.1026 28.8616C20.6026 30.7016 25.4426 31.3716 27.3026 31.1516C31.3326 30.6516 35.9426 28.7416 38.5926 24.9316C40.8126 21.7416 41.2026 18.8516 41.2426 14.3716C41.2626 12.1916 40.3626 8.77156 39.1726 7.37156L39.1526 7.38156Z" fill="#FF8B00"/>
<path d="M22.9428 10.5518C16.0328 11.1018 9.12279 11.6518 2.20279 12.2018C1.69279 12.2418 1.14278 12.3018 0.752782 12.6318C0.0827821 13.2018 0.212783 14.2618 0.472783 15.1018C2.08278 20.1318 6.93278 23.9418 12.1928 24.3218C17.4528 24.7018 26.9328 22.5018 28.9028 14.0018" fill="#FF8B00"/>
<path d="M28.9025 14.0116C28.9025 14.0116 28.8725 14.2316 28.7725 14.6316C28.6725 15.0316 28.5325 15.6316 28.1925 16.3516C27.5825 17.7916 26.3025 19.8316 23.9425 21.4516C21.6125 23.0916 18.3225 24.2816 14.5825 24.5616C12.7225 24.6916 10.6825 24.5616 8.7425 23.8416C6.7925 23.1616 4.96249 21.9816 3.42249 20.4316C1.89249 18.8716 0.772494 16.9916 0.172494 15.0116C0.0324938 14.5016 -0.0575111 13.9616 0.0424889 13.4116C0.132489 12.8516 0.572496 12.3216 1.1125 12.1616C1.6425 11.9816 2.13249 11.9916 2.60249 11.9416C3.07249 11.9016 3.54249 11.8716 4.01249 11.8316C7.70249 11.5616 11.0325 11.3116 13.8525 11.1016C16.6025 10.9216 18.8525 10.7616 20.4925 10.6616C21.2325 10.6216 21.8325 10.5916 22.3025 10.5716C22.7125 10.5516 22.9325 10.5516 22.9325 10.5716C22.9325 10.5916 22.7225 10.6216 22.3125 10.6716C21.8425 10.7216 21.2525 10.7816 20.5125 10.8616C18.8825 11.0116 16.6325 11.2216 13.8825 11.4716C11.0625 11.7116 7.7325 11.9916 4.0525 12.3116C3.5925 12.3516 3.12249 12.3916 2.64249 12.4316C2.17249 12.4816 1.68248 12.4816 1.28248 12.6316C0.882479 12.7616 0.612479 13.0916 0.532479 13.5116C0.452479 13.9416 0.532505 14.4216 0.652505 14.8816C1.2325 16.7616 2.31248 18.5816 3.78248 20.0816C5.26248 21.5716 7.03251 22.7216 8.9025 23.3816C10.7625 24.0816 12.7125 24.2216 14.5325 24.1016C18.1925 23.8516 21.4225 22.7316 23.7125 21.1716C26.0425 19.6316 27.3225 17.6816 27.9825 16.2916C28.3425 15.6016 28.5125 15.0116 28.6425 14.6216C28.7725 14.2316 28.8525 14.0316 28.8725 14.0316L28.9025 14.0116Z" fill="#FBFBFB"/>
<path d="M32.6916 7.2712C32.0716 7.0812 31.7216 6.4212 31.9216 5.7912C32.1116 5.1712 32.7716 4.8212 33.4016 5.0212C34.0216 5.2112 34.3716 5.8712 34.1716 6.5012C33.9816 7.1212 33.3216 7.4712 32.6916 7.2712Z" fill="#171714"/>
</svg>
