<svg width="62" height="70" viewBox="0 0 62 70" fill="none" xmlns="http://www.w3.org/2000/svg">
<path d="M30.74 69.0928C13.76 69.0928 0 53.6893 0 34.6811C0 15.673 13.76 0.269531 30.74 0.269531C47.72 0.269531 61.48 15.673 61.48 34.6811C61.48 53.6893 47.72 69.0928 30.74 69.0928Z" fill="#AF3E27"/>
<path d="M20.8991 37.883C21.3791 38.1069 21.8091 37.883 21.9491 37.3009C22.0491 36.8867 22.2792 35.8456 22.3792 35.4202C22.5192 34.8269 22.4691 34.6254 22.0791 34.1105C21.2391 32.991 20.6991 31.5469 20.6991 29.5096C20.6991 23.5765 24.6591 18.2704 31.0291 18.2704C36.6591 18.2704 39.7591 22.1212 39.7591 27.2707C39.7591 34.0433 37.0791 39.7524 33.1091 39.7524C30.9191 39.7524 29.2691 37.7262 29.7991 35.2299C30.4291 32.2522 31.6491 29.0506 31.6491 26.9013C31.6491 24.9758 30.7291 23.375 28.8191 23.375C26.5791 23.375 24.7691 25.9721 24.7691 29.4536C24.7691 31.6701 25.4391 33.1701 25.4391 33.1701C25.4391 33.1701 23.1391 44.0623 22.7391 45.9653C21.9391 49.7602 22.6191 54.4171 22.6791 54.8873C22.7091 55.1671 23.0291 55.2343 23.1791 55.0216C23.3891 54.7194 26.0591 51.0252 26.9691 47.3422C27.2291 46.3012 28.4491 40.8943 28.4491 40.8943C29.1791 42.4503 31.3091 43.816 33.5691 43.816C40.3091 43.816 44.8891 36.9314 44.8891 27.7296C44.8891 20.7667 39.6191 14.2852 31.6091 14.2852C21.6491 14.2852 16.6191 22.278 16.6191 28.9498C16.6191 32.991 17.9891 36.5844 20.9191 37.9166L20.8991 37.883Z" fill="#FBFBFB"/>
</svg>
