<svg width="101" height="113" viewBox="0 0 101 113" fill="none" xmlns="http://www.w3.org/2000/svg">
<path d="M75.2432 84.2301C89.0951 68.7237 89.0951 43.5829 75.2432 28.0766C61.3913 12.5702 38.933 12.5702 25.0811 28.0765C11.2292 43.5829 11.2292 68.7237 25.0811 84.2301C38.933 99.7365 61.3913 99.7365 75.2432 84.2301Z" fill="#326FCD"/>
<path d="M47.9259 77.4929L55.7459 76.2279L52.9159 54.3093L58.3759 53.4249L58.0159 45.9918L51.9759 46.9658C51.9759 46.9658 51.6259 44.2231 51.4359 42.7902C51.2159 41.0551 51.4359 40.3275 52.9259 40.0812C54.1259 39.8909 57.1559 39.3983 57.1559 39.3983L56.1759 31.7861C56.1759 31.7861 51.7159 32.5026 50.7659 32.6593C44.9459 33.5996 42.6959 36.8908 43.4059 42.3872C44.0259 47.1672 44.1559 48.2419 44.1559 48.2419L40.0859 48.9024L41.0459 56.3355L45.1159 55.675L47.9259 77.5041V77.4929Z" fill="#FBFBFB"/>
</svg>
