<svg width="1920" height="1417" viewBox="0 0 1920 1417" fill="none" xmlns="http://www.w3.org/2000/svg">
<g opacity="0.3" filter="url(#filter0_f_2349_163)">
<circle cx="215" cy="219" r="180" fill="#FFCC19"/>
</g>
<g opacity="0.35" filter="url(#filter1_f_2349_163)">
<circle cx="1689" cy="537" r="180" fill="#FFB800"/>
</g>
<path d="M83.8711 100.23C183.835 192.438 425.643 370.132 593.168 343.245C760.692 316.358 986.989 382.024 1079.2 418.218" stroke="url(#paint0_radial_2349_163)" stroke-opacity="0.3"/>
<path d="M143.332 66.6221C153.673 76.9631 360.494 283.784 575.071 291.54C789.647 299.296 924.081 265.687 1086.95 358.757" stroke="url(#paint1_radial_2349_163)" stroke-opacity="0.3"/>
<path d="M52.8496 131.253C122.652 207.949 306.205 367.546 482.003 392.364C701.75 423.387 882.718 358.756 1063.69 467.337" stroke="url(#paint2_radial_2349_163)" stroke-opacity="0.3"/>
<path d="M197.625 40.7715C259.671 102.818 422.543 228.461 577.658 234.666C771.553 242.422 983.544 224.325 1102.47 299.298" stroke="url(#paint3_radial_2349_163)" stroke-opacity="0.3"/>
<path d="M8.90039 170.032C68.3614 238.973 217.272 382.541 337.229 405.291C487.174 433.729 714.677 459.582 993.885 490.605" stroke="url(#paint4_radial_2349_163)" stroke-opacity="0.3"/>
<path d="M257.084 4.57812C330.333 60.5921 506.82 173.654 626.776 177.791C776.721 182.961 1061.1 154.523 1149 224.325" stroke="url(#paint5_radial_2349_163)" stroke-opacity="0.3"/>
<path d="M326.887 -34.2012C357.91 -26.4454 505.27 84.7209 590.583 95.0619C675.897 105.403 1068.86 79.5503 1149 188.131" stroke="url(#paint6_radial_2349_163)" stroke-opacity="0.3"/>
<path d="M-14.3672 211.396C3.72965 229.493 117.481 392.365 257.085 433.729C396.689 475.093 572.487 480.264 719.847 516.457C867.207 552.651 939.594 568.163 988.714 550.066" stroke="url(#paint7_radial_2349_163)" stroke-opacity="0.3"/>
<path d="M-40.2207 239.837C3.72873 307.054 110.759 447.692 187.282 472.51C282.937 503.534 425.126 500.948 510.44 534.557C595.753 568.165 737.943 588.847 838.768 599.188C919.428 607.461 994.745 602.635 1022.32 599.188" stroke="url(#paint8_radial_2349_163)" stroke-opacity="0.3"/>
<path d="M-79 257.935C-32.4653 335.492 74.0475 495.262 127.821 513.875C195.038 537.143 226.061 495.779 306.204 555.24C386.347 614.701 388.932 534.558 562.145 612.115C735.358 689.673 968.031 648.309 1011.98 630.212" stroke="url(#paint9_radial_2349_163)" stroke-opacity="0.3"/>
<path d="M363.943 855.13C456.151 755.166 633.845 513.358 606.958 345.833C580.071 178.308 645.737 -47.9881 681.931 -140.196" stroke="url(#paint10_radial_2349_163)" stroke-opacity="0.3"/>
<path d="M330.334 795.666C340.675 785.325 547.496 578.504 555.252 363.927C563.007 149.351 529.399 14.9171 622.468 -147.954" stroke="url(#paint11_radial_2349_163)" stroke-opacity="0.3"/>
<path d="M394.963 886.151C471.659 816.349 631.256 632.796 656.074 456.998C687.097 237.251 622.466 56.2825 731.047 -124.686" stroke="url(#paint12_radial_2349_163)" stroke-opacity="0.3"/>
<path d="M304.48 741.375C366.527 679.329 492.17 516.457 498.375 361.342C506.131 167.447 488.034 -44.5444 563.007 -163.466" stroke="url(#paint13_radial_2349_163)" stroke-opacity="0.3"/>
<path d="M433.742 930.101C502.682 870.64 646.251 721.728 669.001 601.772C697.439 451.827 723.291 224.324 754.315 -54.8841" stroke="url(#paint14_radial_2349_163)" stroke-opacity="0.3"/>
<path d="M268.289 681.915C324.303 608.666 437.365 432.179 441.502 312.223C446.672 162.278 418.234 -122.101 488.036 -210" stroke="url(#paint15_radial_2349_163)" stroke-opacity="0.3"/>
<path d="M229.51 612.113C237.266 581.09 348.432 433.73 358.773 348.417C369.114 263.103 343.261 -129.857 451.842 -210" stroke="url(#paint16_radial_2349_163)" stroke-opacity="0.3"/>
<path d="M475.109 953.367C493.206 935.27 656.078 821.519 697.442 681.915C738.806 542.311 743.977 366.513 780.17 219.153C816.364 71.7929 831.875 -0.59444 813.779 -49.7144" stroke="url(#paint17_radial_2349_163)" stroke-opacity="0.3"/>
<path d="M503.547 979.222C570.764 935.272 711.402 828.242 736.22 751.719C767.244 656.064 764.658 513.875 798.267 428.561C831.875 343.248 852.557 201.058 862.898 100.233C871.171 19.5729 866.345 -55.7443 862.898 -83.3204" stroke="url(#paint18_radial_2349_163)" stroke-opacity="0.3"/>
<path d="M521.643 1018C599.2 971.466 758.97 864.953 777.583 811.18C800.851 743.963 759.487 712.94 818.948 632.797C878.409 552.654 798.265 550.069 875.823 376.856C953.381 203.643 912.017 -29.0302 893.92 -72.9796" stroke="url(#paint19_radial_2349_163)" stroke-opacity="0.3"/>
<path d="M1814.13 707.771C1714.17 615.563 1472.36 437.869 1304.83 464.756C1137.31 491.643 911.011 425.977 818.803 389.783" stroke="url(#paint20_radial_2349_163)" stroke-opacity="0.3"/>
<path d="M1754.67 741.379C1744.33 731.038 1537.51 524.217 1322.93 516.461C1108.35 508.705 973.919 542.314 811.048 449.244" stroke="url(#paint21_radial_2349_163)" stroke-opacity="0.3"/>
<path d="M1845.15 676.748C1775.35 600.052 1591.79 440.455 1416 415.637C1196.25 384.614 1015.28 449.245 834.313 340.664" stroke="url(#paint22_radial_2349_163)" stroke-opacity="0.3"/>
<path d="M1700.38 767.229C1638.33 705.183 1475.46 579.539 1320.34 573.335C1126.45 565.579 914.456 583.676 795.534 508.703" stroke="url(#paint23_radial_2349_163)" stroke-opacity="0.3"/>
<path d="M1889.1 637.969C1829.64 569.028 1680.73 425.46 1560.77 402.71C1410.83 374.272 1183.32 348.419 904.115 317.396" stroke="url(#paint24_radial_2349_163)" stroke-opacity="0.3"/>
<path d="M1640.92 803.423C1567.67 747.409 1391.18 634.347 1271.22 630.21C1121.28 625.04 836.9 653.478 749.001 583.676" stroke="url(#paint25_radial_2349_163)" stroke-opacity="0.3"/>
<path d="M1571.11 842.202C1540.09 834.446 1392.73 723.28 1307.42 712.939C1222.1 702.598 829.143 728.451 749 619.87" stroke="url(#paint26_radial_2349_163)" stroke-opacity="0.3"/>
<path d="M1912.37 596.604C1894.27 578.508 1780.52 415.636 1640.91 374.272C1501.31 332.908 1325.51 327.737 1178.15 291.544C1030.79 255.35 958.406 239.838 909.286 257.935" stroke="url(#paint27_radial_2349_163)" stroke-opacity="0.3"/>
<path d="M1938.22 568.163C1894.27 500.946 1787.24 360.308 1710.72 335.489C1615.06 304.466 1472.87 307.052 1387.56 273.443C1302.25 239.835 1160.06 219.153 1059.23 208.812C978.572 200.539 903.255 205.365 875.679 208.812" stroke="url(#paint28_radial_2349_163)" stroke-opacity="0.3"/>
<path d="M1977 550.066C1930.47 472.509 1823.95 312.739 1770.18 294.126C1702.96 270.858 1671.94 312.222 1591.8 252.761C1511.65 193.3 1509.07 273.443 1335.86 195.886C1162.64 118.328 929.969 159.692 886.019 177.789" stroke="url(#paint29_radial_2349_163)" stroke-opacity="0.3"/>
<path d="M1534.06 -47.1289C1441.85 52.8345 1264.16 294.643 1291.04 462.168C1317.93 629.692 1252.26 855.989 1216.07 948.197" stroke="url(#paint30_radial_2349_163)" stroke-opacity="0.3"/>
<path d="M1567.67 12.335C1557.32 22.676 1350.5 229.497 1342.75 444.074C1334.99 658.65 1368.6 793.084 1275.53 955.955" stroke="url(#paint31_radial_2349_163)" stroke-opacity="0.3"/>
<path d="M1503.04 -78.1504C1426.34 -8.34834 1266.74 175.205 1241.93 351.003C1210.9 570.75 1275.53 751.718 1166.95 932.687" stroke="url(#paint32_radial_2349_163)" stroke-opacity="0.3"/>
<path d="M1593.52 66.626C1531.47 128.672 1405.83 291.544 1399.62 446.659C1391.87 640.554 1409.97 852.545 1334.99 971.467" stroke="url(#paint33_radial_2349_163)" stroke-opacity="0.3"/>
<path d="M1464.26 -122.1C1395.32 -62.6386 1251.75 86.2725 1229 206.229C1200.56 356.174 1174.71 583.677 1143.69 862.885" stroke="url(#paint34_radial_2349_163)" stroke-opacity="0.3"/>
<path d="M1629.71 126.086C1573.7 199.335 1460.64 375.822 1456.5 495.778C1451.33 645.723 1479.77 930.102 1409.97 1018" stroke="url(#paint35_radial_2349_163)" stroke-opacity="0.3"/>
<path d="M1668.49 195.888C1660.74 226.911 1549.57 374.271 1539.23 459.584C1528.89 544.898 1554.74 937.858 1446.16 1018" stroke="url(#paint36_radial_2349_163)" stroke-opacity="0.3"/>
<path d="M1422.89 -145.366C1404.79 -127.269 1241.92 -13.5179 1200.56 126.086C1159.19 265.69 1154.02 441.488 1117.83 588.848C1081.64 736.208 1066.12 808.595 1084.22 857.715" stroke="url(#paint37_radial_2349_163)" stroke-opacity="0.3"/>
<path d="M1394.45 -171.221C1327.24 -127.271 1186.6 -20.2415 1161.78 56.2822C1130.76 151.937 1133.34 294.126 1099.73 379.44C1066.12 464.753 1045.44 606.943 1035.1 707.768C1026.83 788.428 1031.65 863.745 1035.1 891.321" stroke="url(#paint38_radial_2349_163)" stroke-opacity="0.3"/>
<path d="M1376.36 -210C1298.8 -163.465 1139.03 -56.9525 1120.42 -3.17905C1097.15 64.0378 1138.51 95.0609 1079.05 175.204C1019.59 255.347 1099.73 257.932 1022.18 431.145C944.619 604.358 985.983 837.031 1004.08 880.981" stroke="url(#paint39_radial_2349_163)" stroke-opacity="0.3"/>
<defs>
<filter id="filter0_f_2349_163" x="-665" y="-661" width="1760" height="1760" filterUnits="userSpaceOnUse" color-interpolation-filters="sRGB">
<feFlood flood-opacity="0" result="BackgroundImageFix"/>
<feBlend mode="normal" in="SourceGraphic" in2="BackgroundImageFix" result="shape"/>
<feGaussianBlur stdDeviation="350" result="effect1_foregroundBlur_2349_163"/>
</filter>
<filter id="filter1_f_2349_163" x="809" y="-343" width="1760" height="1760" filterUnits="userSpaceOnUse" color-interpolation-filters="sRGB">
<feFlood flood-opacity="0" result="BackgroundImageFix"/>
<feBlend mode="normal" in="SourceGraphic" in2="BackgroundImageFix" result="shape"/>
<feGaussianBlur stdDeviation="350" result="effect1_foregroundBlur_2349_163"/>
</filter>
<radialGradient id="paint0_radial_2349_163" cx="0" cy="0" r="1" gradientUnits="userSpaceOnUse" gradientTransform="translate(581.534 259.224) rotate(90) scale(158.994 497.663)">
<stop stop-color="#FBB500"/>
<stop offset="1" stop-color="white" stop-opacity="0"/>
</radialGradient>
<radialGradient id="paint1_radial_2349_163" cx="0" cy="0" r="1" gradientUnits="userSpaceOnUse" gradientTransform="translate(615.142 212.689) rotate(90) scale(146.067 471.81)">
<stop stop-color="#FBB500"/>
<stop offset="1" stop-color="white" stop-opacity="0"/>
</radialGradient>
<radialGradient id="paint2_radial_2349_163" cx="0" cy="0" r="1" gradientUnits="userSpaceOnUse" gradientTransform="translate(558.268 299.295) rotate(90) scale(168.042 505.419)">
<stop stop-color="#FBB500"/>
<stop offset="1" stop-color="white" stop-opacity="0"/>
</radialGradient>
<radialGradient id="paint3_radial_2349_163" cx="0" cy="0" r="1" gradientUnits="userSpaceOnUse" gradientTransform="translate(650.046 170.035) rotate(90) scale(129.263 452.421)">
<stop stop-color="#FBB500"/>
<stop offset="1" stop-color="white" stop-opacity="0"/>
</radialGradient>
<radialGradient id="paint4_radial_2349_163" cx="0" cy="0" r="1" gradientUnits="userSpaceOnUse" gradientTransform="translate(501.393 330.318) rotate(90) scale(160.286 492.492)">
<stop stop-color="#FBB500"/>
<stop offset="1" stop-color="white" stop-opacity="0"/>
</radialGradient>
<radialGradient id="paint5_radial_2349_163" cx="0" cy="0" r="1" gradientUnits="userSpaceOnUse" gradientTransform="translate(703.042 114.452) rotate(90) scale(109.874 445.958)">
<stop stop-color="#FBB500"/>
<stop offset="1" stop-color="white" stop-opacity="0"/>
</radialGradient>
<radialGradient id="paint6_radial_2349_163" cx="0" cy="0" r="1" gradientUnits="userSpaceOnUse" gradientTransform="translate(737.943 76.9651) rotate(90) scale(111.166 411.057)">
<stop stop-color="#FBB500"/>
<stop offset="1" stop-color="white" stop-opacity="0"/>
</radialGradient>
<radialGradient id="paint7_radial_2349_163" cx="0" cy="0" r="1" gradientUnits="userSpaceOnUse" gradientTransform="translate(487.174 384.522) rotate(90) scale(173.126 501.541)">
<stop stop-color="#FBB500"/>
<stop offset="1" stop-color="white" stop-opacity="0"/>
</radialGradient>
<radialGradient id="paint8_radial_2349_163" cx="0" cy="0" r="1" gradientUnits="userSpaceOnUse" gradientTransform="translate(491.05 421.797) rotate(90) scale(181.96 531.271)">
<stop stop-color="#FBB500"/>
<stop offset="1" stop-color="white" stop-opacity="0"/>
</radialGradient>
<radialGradient id="paint9_radial_2349_163" cx="0" cy="0" r="1" gradientUnits="userSpaceOnUse" gradientTransform="translate(466.49 457.736) rotate(90) scale(199.801 545.49)">
<stop stop-color="#FBB500"/>
<stop offset="1" stop-color="white" stop-opacity="0"/>
</radialGradient>
<radialGradient id="paint10_radial_2349_163" cx="0" cy="0" r="1" gradientUnits="userSpaceOnUse" gradientTransform="translate(522.937 357.467) scale(158.994 497.663)">
<stop stop-color="#FBB500"/>
<stop offset="1" stop-color="white" stop-opacity="0"/>
</radialGradient>
<radialGradient id="paint11_radial_2349_163" cx="0" cy="0" r="1" gradientUnits="userSpaceOnUse" gradientTransform="translate(476.401 323.856) scale(146.067 471.81)">
<stop stop-color="#FBB500"/>
<stop offset="1" stop-color="white" stop-opacity="0"/>
</radialGradient>
<radialGradient id="paint12_radial_2349_163" cx="0" cy="0" r="1" gradientUnits="userSpaceOnUse" gradientTransform="translate(563.005 380.733) scale(168.042 505.419)">
<stop stop-color="#FBB500"/>
<stop offset="1" stop-color="white" stop-opacity="0"/>
</radialGradient>
<radialGradient id="paint13_radial_2349_163" cx="0" cy="0" r="1" gradientUnits="userSpaceOnUse" gradientTransform="translate(433.744 288.954) scale(129.263 452.421)">
<stop stop-color="#FBB500"/>
<stop offset="1" stop-color="white" stop-opacity="0"/>
</radialGradient>
<radialGradient id="paint14_radial_2349_163" cx="0" cy="0" r="1" gradientUnits="userSpaceOnUse" gradientTransform="translate(594.028 437.608) scale(160.286 492.492)">
<stop stop-color="#FBB500"/>
<stop offset="1" stop-color="white" stop-opacity="0"/>
</radialGradient>
<radialGradient id="paint15_radial_2349_163" cx="0" cy="0" r="1" gradientUnits="userSpaceOnUse" gradientTransform="translate(378.163 235.957) scale(109.874 445.958)">
<stop stop-color="#FBB500"/>
<stop offset="1" stop-color="white" stop-opacity="0"/>
</radialGradient>
<radialGradient id="paint16_radial_2349_163" cx="0" cy="0" r="1" gradientUnits="userSpaceOnUse" gradientTransform="translate(340.676 201.057) scale(111.166 411.057)">
<stop stop-color="#FBB500"/>
<stop offset="1" stop-color="white" stop-opacity="0"/>
</radialGradient>
<radialGradient id="paint17_radial_2349_163" cx="0" cy="0" r="1" gradientUnits="userSpaceOnUse" gradientTransform="translate(648.235 451.826) scale(173.126 501.541)">
<stop stop-color="#FBB500"/>
<stop offset="1" stop-color="white" stop-opacity="0"/>
</radialGradient>
<radialGradient id="paint18_radial_2349_163" cx="0" cy="0" r="1" gradientUnits="userSpaceOnUse" gradientTransform="translate(685.506 447.951) scale(181.96 531.271)">
<stop stop-color="#FBB500"/>
<stop offset="1" stop-color="white" stop-opacity="0"/>
</radialGradient>
<radialGradient id="paint19_radial_2349_163" cx="0" cy="0" r="1" gradientUnits="userSpaceOnUse" gradientTransform="translate(721.444 472.511) scale(199.801 545.49)">
<stop stop-color="#FBB500"/>
<stop offset="1" stop-color="white" stop-opacity="0"/>
</radialGradient>
<radialGradient id="paint20_radial_2349_163" cx="0" cy="0" r="1" gradientUnits="userSpaceOnUse" gradientTransform="translate(1316.47 548.777) rotate(-90) scale(158.994 497.663)">
<stop stop-color="#FBB500"/>
<stop offset="1" stop-color="white" stop-opacity="0"/>
</radialGradient>
<radialGradient id="paint21_radial_2349_163" cx="0" cy="0" r="1" gradientUnits="userSpaceOnUse" gradientTransform="translate(1282.86 595.312) rotate(-90) scale(146.067 471.81)">
<stop stop-color="#FBB500"/>
<stop offset="1" stop-color="white" stop-opacity="0"/>
</radialGradient>
<radialGradient id="paint22_radial_2349_163" cx="0" cy="0" r="1" gradientUnits="userSpaceOnUse" gradientTransform="translate(1339.73 508.706) rotate(-90) scale(168.042 505.419)">
<stop stop-color="#FBB500"/>
<stop offset="1" stop-color="white" stop-opacity="0"/>
</radialGradient>
<radialGradient id="paint23_radial_2349_163" cx="0" cy="0" r="1" gradientUnits="userSpaceOnUse" gradientTransform="translate(1247.95 637.966) rotate(-90) scale(129.263 452.421)">
<stop stop-color="#FBB500"/>
<stop offset="1" stop-color="white" stop-opacity="0"/>
</radialGradient>
<radialGradient id="paint24_radial_2349_163" cx="0" cy="0" r="1" gradientUnits="userSpaceOnUse" gradientTransform="translate(1396.61 477.682) rotate(-90) scale(160.286 492.492)">
<stop stop-color="#FBB500"/>
<stop offset="1" stop-color="white" stop-opacity="0"/>
</radialGradient>
<radialGradient id="paint25_radial_2349_163" cx="0" cy="0" r="1" gradientUnits="userSpaceOnUse" gradientTransform="translate(1194.96 693.549) rotate(-90) scale(109.874 445.958)">
<stop stop-color="#FBB500"/>
<stop offset="1" stop-color="white" stop-opacity="0"/>
</radialGradient>
<radialGradient id="paint26_radial_2349_163" cx="0" cy="0" r="1" gradientUnits="userSpaceOnUse" gradientTransform="translate(1160.06 731.036) rotate(-90) scale(111.166 411.057)">
<stop stop-color="#FBB500"/>
<stop offset="1" stop-color="white" stop-opacity="0"/>
</radialGradient>
<radialGradient id="paint27_radial_2349_163" cx="0" cy="0" r="1" gradientUnits="userSpaceOnUse" gradientTransform="translate(1410.83 423.479) rotate(-90) scale(173.126 501.541)">
<stop stop-color="#FBB500"/>
<stop offset="1" stop-color="white" stop-opacity="0"/>
</radialGradient>
<radialGradient id="paint28_radial_2349_163" cx="0" cy="0" r="1" gradientUnits="userSpaceOnUse" gradientTransform="translate(1406.95 386.203) rotate(-90) scale(181.96 531.271)">
<stop stop-color="#FBB500"/>
<stop offset="1" stop-color="white" stop-opacity="0"/>
</radialGradient>
<radialGradient id="paint29_radial_2349_163" cx="0" cy="0" r="1" gradientUnits="userSpaceOnUse" gradientTransform="translate(1431.51 350.265) rotate(-90) scale(199.801 545.49)">
<stop stop-color="#FBB500"/>
<stop offset="1" stop-color="white" stop-opacity="0"/>
</radialGradient>
<radialGradient id="paint30_radial_2349_163" cx="0" cy="0" r="1" gradientUnits="userSpaceOnUse" gradientTransform="translate(1375.06 450.534) rotate(-180) scale(158.994 497.663)">
<stop stop-color="#FBB500"/>
<stop offset="1" stop-color="white" stop-opacity="0"/>
</radialGradient>
<radialGradient id="paint31_radial_2349_163" cx="0" cy="0" r="1" gradientUnits="userSpaceOnUse" gradientTransform="translate(1421.6 484.145) rotate(-180) scale(146.067 471.81)">
<stop stop-color="#FBB500"/>
<stop offset="1" stop-color="white" stop-opacity="0"/>
</radialGradient>
<radialGradient id="paint32_radial_2349_163" cx="0" cy="0" r="1" gradientUnits="userSpaceOnUse" gradientTransform="translate(1335 427.268) rotate(-180) scale(168.042 505.419)">
<stop stop-color="#FBB500"/>
<stop offset="1" stop-color="white" stop-opacity="0"/>
</radialGradient>
<radialGradient id="paint33_radial_2349_163" cx="0" cy="0" r="1" gradientUnits="userSpaceOnUse" gradientTransform="translate(1464.26 519.047) rotate(-180) scale(129.263 452.421)">
<stop stop-color="#FBB500"/>
<stop offset="1" stop-color="white" stop-opacity="0"/>
</radialGradient>
<radialGradient id="paint34_radial_2349_163" cx="0" cy="0" r="1" gradientUnits="userSpaceOnUse" gradientTransform="translate(1303.97 370.393) rotate(-180) scale(160.286 492.492)">
<stop stop-color="#FBB500"/>
<stop offset="1" stop-color="white" stop-opacity="0"/>
</radialGradient>
<radialGradient id="paint35_radial_2349_163" cx="0" cy="0" r="1" gradientUnits="userSpaceOnUse" gradientTransform="translate(1519.84 572.043) rotate(-180) scale(109.874 445.958)">
<stop stop-color="#FBB500"/>
<stop offset="1" stop-color="white" stop-opacity="0"/>
</radialGradient>
<radialGradient id="paint36_radial_2349_163" cx="0" cy="0" r="1" gradientUnits="userSpaceOnUse" gradientTransform="translate(1557.33 606.944) rotate(-180) scale(111.166 411.057)">
<stop stop-color="#FBB500"/>
<stop offset="1" stop-color="white" stop-opacity="0"/>
</radialGradient>
<radialGradient id="paint37_radial_2349_163" cx="0" cy="0" r="1" gradientUnits="userSpaceOnUse" gradientTransform="translate(1249.76 356.175) rotate(-180) scale(173.126 501.541)">
<stop stop-color="#FBB500"/>
<stop offset="1" stop-color="white" stop-opacity="0"/>
</radialGradient>
<radialGradient id="paint38_radial_2349_163" cx="0" cy="0" r="1" gradientUnits="userSpaceOnUse" gradientTransform="translate(1212.49 360.05) rotate(-180) scale(181.96 531.271)">
<stop stop-color="#FBB500"/>
<stop offset="1" stop-color="white" stop-opacity="0"/>
</radialGradient>
<radialGradient id="paint39_radial_2349_163" cx="0" cy="0" r="1" gradientUnits="userSpaceOnUse" gradientTransform="translate(1176.56 335.49) rotate(-180) scale(199.801 545.49)">
<stop stop-color="#FBB500"/>
<stop offset="1" stop-color="white" stop-opacity="0"/>
</radialGradient>
</defs>
</svg>
