<svg width="1920" height="1010" viewBox="0 0 1920 1010" fill="none" xmlns="http://www.w3.org/2000/svg">
<g opacity="0.05">
<path d="M507.405 277.519C556.561 135.681 722.279 87.3882 798.994 80.9717C1074.49 51.176 1425.58 250.142 1577.62 359.924C1729.67 469.706 1802.48 621.2 1572.73 710.22C1342.97 799.24 1188 931.649 861.576 950.734C535.153 969.819 275.801 821.576 233.685 682.276C191.569 542.975 445.959 454.817 507.405 277.519Z" stroke="url(#paint0_linear_473_1319)"/>
<path d="M495.487 244.436C585.141 96.8693 791.961 54.863 884.164 52.3058C1216.78 35.9671 1588.07 266.193 1743.62 390.918C1899.17 515.644 1951.7 680.185 1660.07 761.803C1368.43 843.421 1155.65 975.148 765.146 977.322C374.643 979.496 100.65 808.086 81.7353 658.162C62.8202 508.238 383.419 428.894 495.487 244.436Z" stroke="url(#paint1_linear_473_1319)"/>
<path d="M598.982 303.368C668.661 188.679 829.401 156.032 901.061 154.045C1159.57 141.347 1448.13 320.277 1569.03 417.213C1689.92 514.149 1730.75 642.029 1504.09 705.463C1277.43 768.896 1112.06 871.273 808.56 872.963C505.063 874.653 292.118 741.434 277.417 624.913C262.716 508.393 511.884 446.728 598.982 303.368Z" stroke="url(#paint2_linear_473_1319)"/>
<path d="M645.698 329.971C706.36 230.124 846.298 201.702 908.685 199.972C1133.74 188.917 1384.96 344.692 1490.21 429.083C1595.45 513.475 1631 624.806 1433.67 680.03C1236.35 735.255 1092.38 824.383 828.154 825.854C563.933 827.325 378.545 711.346 365.747 609.905C352.949 508.464 569.871 454.779 645.698 329.971Z" stroke="url(#paint3_linear_473_1319)"/>
<path d="M691.097 355.816C742.998 270.389 862.726 246.072 916.102 244.592C1108.65 235.133 1323.59 368.411 1413.64 440.614C1503.69 512.818 1534.1 608.071 1365.27 655.319C1196.44 702.568 1073.26 778.824 847.202 780.083C621.14 781.342 462.526 682.113 451.576 595.322C440.626 508.531 626.221 462.599 691.097 355.816Z" stroke="url(#paint4_linear_473_1319)"/>
<path d="M755.331 392.395C794.833 327.377 885.958 308.869 926.583 307.742C1073.13 300.543 1236.73 401.981 1305.26 456.935C1373.8 511.889 1396.94 584.386 1268.45 620.347C1139.95 656.308 1046.2 714.347 874.143 715.305C702.088 716.263 581.366 640.739 573.032 574.683C564.698 508.626 705.954 473.667 755.331 392.395Z" stroke="url(#paint5_linear_473_1319)"/>
<path d="M795.291 415.149C827.08 362.826 900.413 347.931 933.106 347.025C1051.04 341.231 1182.69 422.863 1237.85 467.088C1293 511.312 1311.63 569.655 1208.22 598.594C1104.81 627.534 1029.37 674.241 890.905 675.012C752.442 675.783 655.292 615.005 648.585 561.846C641.878 508.687 755.554 480.553 795.291 415.149Z" stroke="url(#paint6_linear_473_1319)"/>
<path d="M828.098 433.828C853.556 391.925 912.283 379.998 938.465 379.271C1032.91 374.632 1138.34 440.005 1182.51 475.422C1226.68 510.838 1241.6 557.56 1158.78 580.736C1075.97 603.912 1015.55 641.316 904.669 641.934C793.784 642.551 715.982 593.878 710.611 551.307C705.24 508.735 796.276 486.205 828.098 433.828Z" stroke="url(#paint7_linear_473_1319)"/>
</g>
<defs>
<linearGradient id="paint0_linear_473_1319" x1="848.553" y1="695.711" x2="1324.49" y2="41.4522" gradientUnits="userSpaceOnUse">
<stop stop-color="#705FFF"/>
<stop offset="1" stop-color="#705FFF" stop-opacity="0"/>
</linearGradient>
<linearGradient id="paint1_linear_473_1319" x1="806.346" y1="706.392" x2="1412.38" y2="-43.289" gradientUnits="userSpaceOnUse">
<stop stop-color="#705FFF"/>
<stop offset="1" stop-color="#705FFF" stop-opacity="0"/>
</linearGradient>
<linearGradient id="paint2_linear_473_1319" x1="840.581" y1="662.397" x2="1311.59" y2="79.749" gradientUnits="userSpaceOnUse">
<stop stop-color="#705FFF"/>
<stop offset="1" stop-color="#705FFF" stop-opacity="0"/>
</linearGradient>
<linearGradient id="paint3_linear_473_1319" x1="856.031" y1="642.538" x2="1266.09" y2="135.291" gradientUnits="userSpaceOnUse">
<stop stop-color="#705FFF"/>
<stop offset="1" stop-color="#705FFF" stop-opacity="0"/>
</linearGradient>
<linearGradient id="paint4_linear_473_1319" x1="871.053" y1="623.242" x2="1221.89" y2="189.252" gradientUnits="userSpaceOnUse">
<stop stop-color="#705FFF"/>
<stop offset="1" stop-color="#705FFF" stop-opacity="0"/>
</linearGradient>
<linearGradient id="paint5_linear_473_1319" x1="892.296" y1="595.933" x2="1159.32" y2="265.623" gradientUnits="userSpaceOnUse">
<stop stop-color="#705FFF"/>
<stop offset="1" stop-color="#705FFF" stop-opacity="0"/>
</linearGradient>
<linearGradient id="paint6_linear_473_1319" x1="905.514" y1="578.947" x2="1120.4" y2="313.129" gradientUnits="userSpaceOnUse">
<stop stop-color="#705FFF"/>
<stop offset="1" stop-color="#705FFF" stop-opacity="0"/>
</linearGradient>
<linearGradient id="paint7_linear_473_1319" x1="916.368" y1="565.002" x2="1088.45" y2="352.127" gradientUnits="userSpaceOnUse">
<stop stop-color="#705FFF"/>
<stop offset="1" stop-color="#705FFF" stop-opacity="0"/>
</linearGradient>
</defs>
</svg>
