<svg width="116" height="116" viewBox="0 0 116 116" fill="none" xmlns="http://www.w3.org/2000/svg">
<g opacity="0.2">
<circle cx="2.07141" cy="39.3566" r="2.07141" fill="white"/>
<circle cx="2.07141" cy="51.7853" r="2.07141" fill="white"/>
<circle cx="2.07141" cy="64.214" r="2.07141" fill="white"/>
<circle cx="2.07141" cy="76.6427" r="2.07141" fill="white"/>
<circle cx="2.07141" cy="89.0704" r="2.07141" fill="white"/>
<circle cx="14.5011" cy="14.5001" r="2.07141" fill="white"/>
<circle cx="14.5011" cy="26.9288" r="2.07141" fill="white"/>
<circle cx="4.55774" cy="26.9288" r="2.07141" fill="white"/>
<circle cx="14.5011" cy="39.3566" r="2.07141" fill="white"/>
<circle cx="14.5011" cy="51.7853" r="2.07141" fill="white"/>
<circle cx="14.5011" cy="64.214" r="2.07141" fill="white"/>
<circle cx="14.5011" cy="76.6427" r="2.07141" fill="white"/>
<circle cx="14.5011" cy="89.0704" r="2.07141" fill="white"/>
<circle cx="14.5011" cy="101.499" r="2.07141" fill="white"/>
<circle cx="26.9288" cy="14.5001" r="2.07141" fill="white"/>
<circle cx="26.9288" cy="6.21399" r="2.07141" fill="white"/>
<circle cx="26.9288" cy="26.9288" r="2.07141" fill="white"/>
<circle cx="26.9288" cy="39.3566" r="2.07141" fill="white"/>
<circle cx="26.9288" cy="51.7853" r="2.07141" fill="white"/>
<circle cx="26.9288" cy="64.214" r="2.07141" fill="white"/>
<circle cx="26.9288" cy="76.6427" r="2.07141" fill="white"/>
<circle cx="26.9288" cy="89.0704" r="2.07141" fill="white"/>
<circle cx="26.9288" cy="101.499" r="2.07141" fill="white"/>
<circle cx="26.9288" cy="113.928" r="2.07141" fill="white"/>
<circle cx="39.3585" cy="2.07141" r="2.07141" fill="white"/>
<circle cx="39.3585" cy="14.5001" r="2.07141" fill="white"/>
<circle cx="39.3585" cy="26.9288" r="2.07141" fill="white"/>
<circle cx="39.3585" cy="39.3566" r="2.07141" fill="white"/>
<circle cx="39.3585" cy="51.7853" r="2.07141" fill="white"/>
<circle cx="39.3585" cy="64.214" r="2.07141" fill="white"/>
<circle cx="39.3585" cy="76.6427" r="2.07141" fill="white"/>
<circle cx="39.3585" cy="89.0704" r="2.07141" fill="white"/>
<circle cx="39.3585" cy="101.499" r="2.07141" fill="white"/>
<circle cx="39.3585" cy="113.928" r="2.07141" fill="white"/>
<circle cx="51.7843" cy="2.07141" r="2.07141" fill="white"/>
<circle cx="51.7843" cy="14.5001" r="2.07141" fill="white"/>
<circle cx="51.7843" cy="26.9288" r="2.07141" fill="white"/>
<circle cx="51.7843" cy="39.3566" r="2.07141" fill="white"/>
<circle cx="51.7843" cy="51.7853" r="2.07141" fill="white"/>
<circle cx="51.7843" cy="64.214" r="2.07141" fill="white"/>
<circle cx="51.7843" cy="76.6427" r="2.07141" fill="white"/>
<circle cx="51.7843" cy="89.0704" r="2.07141" fill="white"/>
<circle cx="51.7843" cy="101.499" r="2.07141" fill="white"/>
<circle cx="51.7843" cy="113.928" r="2.07141" fill="white"/>
<circle cx="64.212" cy="2.07141" r="2.07141" fill="white"/>
<circle cx="64.212" cy="14.5001" r="2.07141" fill="white"/>
<circle cx="64.212" cy="26.9288" r="2.07141" fill="white"/>
<circle cx="64.212" cy="39.3566" r="2.07141" fill="white"/>
<circle cx="64.212" cy="51.7853" r="2.07141" fill="white"/>
<circle cx="64.212" cy="64.214" r="2.07141" fill="white"/>
<circle cx="64.212" cy="76.6427" r="2.07141" fill="white"/>
<circle cx="64.212" cy="89.0704" r="2.07141" fill="white"/>
<circle cx="64.212" cy="101.499" r="2.07141" fill="white"/>
<circle cx="64.212" cy="113.928" r="2.07141" fill="white"/>
<circle cx="76.6417" cy="2.07141" r="2.07141" fill="white"/>
<circle cx="76.6417" cy="14.5001" r="2.07141" fill="white"/>
<circle cx="76.6417" cy="26.9288" r="2.07141" fill="white"/>
<circle cx="76.6417" cy="39.3566" r="2.07141" fill="white"/>
<circle cx="76.6417" cy="51.7853" r="2.07141" fill="white"/>
<circle cx="76.6417" cy="64.214" r="2.07141" fill="white"/>
<circle cx="76.6417" cy="76.6427" r="2.07141" fill="white"/>
<circle cx="76.6417" cy="89.0704" r="2.07141" fill="white"/>
<circle cx="76.6417" cy="101.499" r="2.07141" fill="white"/>
<circle cx="76.6417" cy="113.928" r="2.07141" fill="white"/>
<circle cx="76.6417" cy="2.07141" r="2.07141" fill="white"/>
<circle cx="76.6417" cy="14.5001" r="2.07141" fill="white"/>
<circle cx="76.6417" cy="26.9288" r="2.07141" fill="white"/>
<circle cx="76.6417" cy="39.3566" r="2.07141" fill="white"/>
<circle cx="76.6417" cy="51.7853" r="2.07141" fill="white"/>
<circle cx="76.6417" cy="64.214" r="2.07141" fill="white"/>
<circle cx="76.6417" cy="76.6427" r="2.07141" fill="white"/>
<circle cx="76.6417" cy="89.0704" r="2.07141" fill="white"/>
<circle cx="76.6417" cy="101.499" r="2.07141" fill="white"/>
<circle cx="76.6417" cy="113.928" r="2.07141" fill="white"/>
<circle cx="89.0714" cy="14.5001" r="2.07141" fill="white"/>
<circle cx="89.0714" cy="26.9288" r="2.07141" fill="white"/>
<circle cx="89.0714" cy="39.3566" r="2.07141" fill="white"/>
<circle cx="89.0714" cy="51.7853" r="2.07141" fill="white"/>
<circle cx="89.0714" cy="64.214" r="2.07141" fill="white"/>
<circle cx="89.0714" cy="76.6427" r="2.07141" fill="white"/>
<circle cx="89.0714" cy="89.0704" r="2.07141" fill="white"/>
<circle cx="89.0714" cy="101.499" r="2.07141" fill="white"/>
<circle cx="89.0714" cy="113.928" r="2.07141" fill="white"/>
<circle cx="101.501" cy="26.9288" r="2.07141" fill="white"/>
<circle cx="101.501" cy="39.3566" r="2.07141" fill="white"/>
<circle cx="101.501" cy="51.7853" r="2.07141" fill="white"/>
<circle cx="101.501" cy="64.214" r="2.07141" fill="white"/>
<circle cx="101.501" cy="76.6427" r="2.07141" fill="white"/>
<circle cx="101.501" cy="89.0704" r="2.07141" fill="white"/>
<circle cx="101.501" cy="101.499" r="2.07141" fill="white"/>
<circle cx="113.929" cy="39.3566" r="2.07141" fill="white"/>
<circle cx="113.929" cy="51.7853" r="2.07141" fill="white"/>
<circle cx="113.929" cy="64.214" r="2.07141" fill="white"/>
<circle cx="113.929" cy="76.6427" r="2.07141" fill="white"/>
</g>
</svg>
