<svg width="1920" height="275" viewBox="0 0 1920 275" fill="none" xmlns="http://www.w3.org/2000/svg">
<rect y="16" width="1920" height="258" fill="url(#paint0_linear_1_41696)"/>
<g opacity="0.05">
<path d="M1840.34 274.386L1560.14 0.193032L1601.53 0.19304L1885.19 274.386L1840.34 274.386Z" fill="url(#paint1_linear_1_41696)"/>
<path d="M1882.31 274.386L1602.11 0.193032L1643.5 0.19304L1927.16 274.386L1882.31 274.386Z" fill="url(#paint2_linear_1_41696)"/>
<path d="M1924.27 274.386L1644.08 0.193032L1685.47 0.19304L1969.12 274.386L1924.27 274.386Z" fill="url(#paint3_linear_1_41696)"/>
<path d="M1966.24 274.386L1686.05 0.193032L1727.43 0.19304L2011.09 274.386L1966.24 274.386Z" fill="url(#paint4_linear_1_41696)"/>
<path d="M2008.21 274.386L1728.01 0.193032L1769.4 0.19304L2053.06 274.386L2008.21 274.386Z" fill="url(#paint5_linear_1_41696)"/>
<path d="M2050.18 274.386L1769.98 0.193032L1811.37 0.19304L2095.03 274.386L2050.18 274.386Z" fill="url(#paint6_linear_1_41696)"/>
<path d="M2092.15 274.386L1811.95 0.193032L1853.34 0.19304L2136.99 274.386L2092.15 274.386Z" fill="url(#paint7_linear_1_41696)"/>
<path d="M2134.11 274.386L1853.92 0.193032L1895.31 0.19304L2178.96 274.386L2134.11 274.386Z" fill="url(#paint8_linear_1_41696)"/>
</g>
<g opacity="0.05">
<path d="M1497.34 274.386L1217.14 0.193032L1258.53 0.19304L1542.19 274.386L1497.34 274.386Z" fill="url(#paint9_linear_1_41696)"/>
<path d="M1539.31 274.386L1259.11 0.193032L1300.5 0.19304L1584.16 274.386L1539.31 274.386Z" fill="url(#paint10_linear_1_41696)"/>
<path d="M1581.27 274.386L1301.08 0.193032L1342.47 0.19304L1626.12 274.386L1581.27 274.386Z" fill="url(#paint11_linear_1_41696)"/>
<path d="M1623.24 274.386L1343.05 0.193032L1384.43 0.19304L1668.09 274.386L1623.24 274.386Z" fill="url(#paint12_linear_1_41696)"/>
<path d="M1665.21 274.386L1385.01 0.193032L1426.4 0.19304L1710.06 274.386L1665.21 274.386Z" fill="url(#paint13_linear_1_41696)"/>
<path d="M1707.18 274.386L1426.98 0.193032L1468.37 0.19304L1752.03 274.386L1707.18 274.386Z" fill="url(#paint14_linear_1_41696)"/>
<path d="M1749.15 274.386L1468.95 0.193032L1510.34 0.19304L1793.99 274.386L1749.15 274.386Z" fill="url(#paint15_linear_1_41696)"/>
<path d="M1791.11 274.386L1510.92 0.193032L1552.31 0.19304L1835.96 274.386L1791.11 274.386Z" fill="url(#paint16_linear_1_41696)"/>
</g>
<g opacity="0.05">
<path d="M1154.34 274.386L874.144 0.193032L915.531 0.19304L1199.19 274.386L1154.34 274.386Z" fill="url(#paint17_linear_1_41696)"/>
<path d="M1196.31 274.386L916.112 0.193032L957.499 0.19304L1241.16 274.386L1196.31 274.386Z" fill="url(#paint18_linear_1_41696)"/>
<path d="M1238.27 274.386L958.08 0.193032L999.467 0.19304L1283.12 274.386L1238.27 274.386Z" fill="url(#paint19_linear_1_41696)"/>
<path d="M1280.24 274.386L1000.05 0.193032L1041.43 0.19304L1325.09 274.386L1280.24 274.386Z" fill="url(#paint20_linear_1_41696)"/>
<path d="M1322.21 274.386L1042.01 0.193032L1083.4 0.19304L1367.06 274.386L1322.21 274.386Z" fill="url(#paint21_linear_1_41696)"/>
<path d="M1364.18 274.386L1083.98 0.193032L1125.37 0.19304L1409.03 274.386L1364.18 274.386Z" fill="url(#paint22_linear_1_41696)"/>
<path d="M1406.15 274.386L1125.95 0.193032L1167.34 0.19304L1450.99 274.386L1406.15 274.386Z" fill="url(#paint23_linear_1_41696)"/>
<path d="M1448.11 274.386L1167.92 0.193032L1209.31 0.19304L1492.96 274.386L1448.11 274.386Z" fill="url(#paint24_linear_1_41696)"/>
</g>
<g opacity="0.05">
<path d="M811.339 274.386L531.144 0.193032L572.531 0.19304L856.188 274.386L811.339 274.386Z" fill="url(#paint25_linear_1_41696)"/>
<path d="M853.306 274.386L573.112 0.193032L614.499 0.19304L898.156 274.386L853.306 274.386Z" fill="url(#paint26_linear_1_41696)"/>
<path d="M895.274 274.386L615.08 0.193032L656.467 0.19304L940.124 274.386L895.274 274.386Z" fill="url(#paint27_linear_1_41696)"/>
<path d="M937.242 274.386L657.048 0.193032L698.435 0.19304L982.091 274.386L937.242 274.386Z" fill="url(#paint28_linear_1_41696)"/>
<path d="M979.209 274.386L699.014 0.193032L740.401 0.19304L1024.06 274.386L979.209 274.386Z" fill="url(#paint29_linear_1_41696)"/>
<path d="M1021.18 274.386L740.983 0.193032L782.37 0.19304L1066.03 274.386L1021.18 274.386Z" fill="url(#paint30_linear_1_41696)"/>
<path d="M1063.15 274.386L782.951 0.193032L824.338 0.19304L1107.99 274.386L1063.15 274.386Z" fill="url(#paint31_linear_1_41696)"/>
<path d="M1105.11 274.386L824.919 0.193032L866.306 0.19304L1149.96 274.386L1105.11 274.386Z" fill="url(#paint32_linear_1_41696)"/>
</g>
<g opacity="0.05">
<path d="M468.339 274.386L188.144 0.193032L229.531 0.19304L513.188 274.386L468.339 274.386Z" fill="url(#paint33_linear_1_41696)"/>
<path d="M510.306 274.386L230.112 0.193032L271.499 0.19304L555.156 274.386L510.306 274.386Z" fill="url(#paint34_linear_1_41696)"/>
<path d="M552.274 274.386L272.08 0.193032L313.467 0.19304L597.124 274.386L552.274 274.386Z" fill="url(#paint35_linear_1_41696)"/>
<path d="M594.242 274.386L314.048 0.193032L355.435 0.19304L639.091 274.386L594.242 274.386Z" fill="url(#paint36_linear_1_41696)"/>
<path d="M636.209 274.386L356.014 0.193032L397.401 0.19304L681.058 274.386L636.209 274.386Z" fill="url(#paint37_linear_1_41696)"/>
<path d="M678.177 274.386L397.983 0.193032L439.37 0.19304L723.027 274.386L678.177 274.386Z" fill="url(#paint38_linear_1_41696)"/>
<path d="M720.145 274.386L439.951 0.193032L481.338 0.19304L764.995 274.386L720.145 274.386Z" fill="url(#paint39_linear_1_41696)"/>
<path d="M762.113 274.386L481.919 0.193032L523.306 0.19304L806.962 274.386L762.113 274.386Z" fill="url(#paint40_linear_1_41696)"/>
</g>
<g opacity="0.05">
<path d="M137.339 274.386L-142.856 0.193032L-101.469 0.19304L182.188 274.386L137.339 274.386Z" fill="url(#paint41_linear_1_41696)"/>
<path d="M179.306 274.386L-100.888 0.193032L-59.5009 0.19304L224.156 274.386L179.306 274.386Z" fill="url(#paint42_linear_1_41696)"/>
<path d="M221.274 274.386L-58.9201 0.193032L-17.5332 0.19304L266.124 274.386L221.274 274.386Z" fill="url(#paint43_linear_1_41696)"/>
<path d="M263.242 274.386L-16.9523 0.193032L24.4346 0.19304L308.091 274.386L263.242 274.386Z" fill="url(#paint44_linear_1_41696)"/>
<path d="M305.209 274.386L25.0144 0.193032L66.4014 0.19304L350.058 274.386L305.209 274.386Z" fill="url(#paint45_linear_1_41696)"/>
<path d="M347.177 274.386L66.9832 0.193032L108.37 0.19304L392.027 274.386L347.177 274.386Z" fill="url(#paint46_linear_1_41696)"/>
<path d="M389.145 274.386L108.951 0.193032L150.338 0.19304L433.995 274.386L389.145 274.386Z" fill="url(#paint47_linear_1_41696)"/>
<path d="M431.113 274.386L150.919 0.193032L192.306 0.19304L475.962 274.386L431.113 274.386Z" fill="url(#paint48_linear_1_41696)"/>
</g>
<defs>
<linearGradient id="paint0_linear_1_41696" x1="3.05101e-05" y1="145" x2="1920" y2="145" gradientUnits="userSpaceOnUse">
<stop stop-color="#20D9A1"/>
<stop offset="1" stop-color="#5F39FF"/>
</linearGradient>
<linearGradient id="paint1_linear_1_41696" x1="1835.28" y1="279.407" x2="1858.9" y2="254.902" gradientUnits="userSpaceOnUse">
<stop stop-color="white"/>
<stop offset="1" stop-color="#D9D9D9" stop-opacity="0"/>
</linearGradient>
<linearGradient id="paint2_linear_1_41696" x1="1877.25" y1="279.407" x2="1900.87" y2="254.902" gradientUnits="userSpaceOnUse">
<stop stop-color="white"/>
<stop offset="1" stop-color="#D9D9D9" stop-opacity="0"/>
</linearGradient>
<linearGradient id="paint3_linear_1_41696" x1="1919.21" y1="279.407" x2="1942.83" y2="254.902" gradientUnits="userSpaceOnUse">
<stop stop-color="white"/>
<stop offset="1" stop-color="#D9D9D9" stop-opacity="0"/>
</linearGradient>
<linearGradient id="paint4_linear_1_41696" x1="1961.18" y1="279.407" x2="1984.8" y2="254.902" gradientUnits="userSpaceOnUse">
<stop stop-color="white"/>
<stop offset="1" stop-color="#D9D9D9" stop-opacity="0"/>
</linearGradient>
<linearGradient id="paint5_linear_1_41696" x1="2003.15" y1="279.407" x2="2026.77" y2="254.902" gradientUnits="userSpaceOnUse">
<stop stop-color="white"/>
<stop offset="1" stop-color="#D9D9D9" stop-opacity="0"/>
</linearGradient>
<linearGradient id="paint6_linear_1_41696" x1="2045.12" y1="279.407" x2="2068.74" y2="254.902" gradientUnits="userSpaceOnUse">
<stop stop-color="white"/>
<stop offset="1" stop-color="#D9D9D9" stop-opacity="0"/>
</linearGradient>
<linearGradient id="paint7_linear_1_41696" x1="2087.09" y1="279.407" x2="2110.7" y2="254.902" gradientUnits="userSpaceOnUse">
<stop stop-color="white"/>
<stop offset="1" stop-color="#D9D9D9" stop-opacity="0"/>
</linearGradient>
<linearGradient id="paint8_linear_1_41696" x1="2129.05" y1="279.407" x2="2152.67" y2="254.902" gradientUnits="userSpaceOnUse">
<stop stop-color="white"/>
<stop offset="1" stop-color="#D9D9D9" stop-opacity="0"/>
</linearGradient>
<linearGradient id="paint9_linear_1_41696" x1="1492.28" y1="279.407" x2="1515.9" y2="254.902" gradientUnits="userSpaceOnUse">
<stop stop-color="white"/>
<stop offset="1" stop-color="#D9D9D9" stop-opacity="0"/>
</linearGradient>
<linearGradient id="paint10_linear_1_41696" x1="1534.25" y1="279.407" x2="1557.87" y2="254.902" gradientUnits="userSpaceOnUse">
<stop stop-color="white"/>
<stop offset="1" stop-color="#D9D9D9" stop-opacity="0"/>
</linearGradient>
<linearGradient id="paint11_linear_1_41696" x1="1576.21" y1="279.407" x2="1599.83" y2="254.902" gradientUnits="userSpaceOnUse">
<stop stop-color="white"/>
<stop offset="1" stop-color="#D9D9D9" stop-opacity="0"/>
</linearGradient>
<linearGradient id="paint12_linear_1_41696" x1="1618.18" y1="279.407" x2="1641.8" y2="254.902" gradientUnits="userSpaceOnUse">
<stop stop-color="white"/>
<stop offset="1" stop-color="#D9D9D9" stop-opacity="0"/>
</linearGradient>
<linearGradient id="paint13_linear_1_41696" x1="1660.15" y1="279.407" x2="1683.77" y2="254.902" gradientUnits="userSpaceOnUse">
<stop stop-color="white"/>
<stop offset="1" stop-color="#D9D9D9" stop-opacity="0"/>
</linearGradient>
<linearGradient id="paint14_linear_1_41696" x1="1702.12" y1="279.407" x2="1725.74" y2="254.902" gradientUnits="userSpaceOnUse">
<stop stop-color="white"/>
<stop offset="1" stop-color="#D9D9D9" stop-opacity="0"/>
</linearGradient>
<linearGradient id="paint15_linear_1_41696" x1="1744.09" y1="279.407" x2="1767.7" y2="254.902" gradientUnits="userSpaceOnUse">
<stop stop-color="white"/>
<stop offset="1" stop-color="#D9D9D9" stop-opacity="0"/>
</linearGradient>
<linearGradient id="paint16_linear_1_41696" x1="1786.05" y1="279.407" x2="1809.67" y2="254.902" gradientUnits="userSpaceOnUse">
<stop stop-color="white"/>
<stop offset="1" stop-color="#D9D9D9" stop-opacity="0"/>
</linearGradient>
<linearGradient id="paint17_linear_1_41696" x1="1149.28" y1="279.407" x2="1172.9" y2="254.902" gradientUnits="userSpaceOnUse">
<stop stop-color="white"/>
<stop offset="1" stop-color="#D9D9D9" stop-opacity="0"/>
</linearGradient>
<linearGradient id="paint18_linear_1_41696" x1="1191.25" y1="279.407" x2="1214.87" y2="254.902" gradientUnits="userSpaceOnUse">
<stop stop-color="white"/>
<stop offset="1" stop-color="#D9D9D9" stop-opacity="0"/>
</linearGradient>
<linearGradient id="paint19_linear_1_41696" x1="1233.21" y1="279.407" x2="1256.83" y2="254.902" gradientUnits="userSpaceOnUse">
<stop stop-color="white"/>
<stop offset="1" stop-color="#D9D9D9" stop-opacity="0"/>
</linearGradient>
<linearGradient id="paint20_linear_1_41696" x1="1275.18" y1="279.407" x2="1298.8" y2="254.902" gradientUnits="userSpaceOnUse">
<stop stop-color="white"/>
<stop offset="1" stop-color="#D9D9D9" stop-opacity="0"/>
</linearGradient>
<linearGradient id="paint21_linear_1_41696" x1="1317.15" y1="279.407" x2="1340.77" y2="254.902" gradientUnits="userSpaceOnUse">
<stop stop-color="white"/>
<stop offset="1" stop-color="#D9D9D9" stop-opacity="0"/>
</linearGradient>
<linearGradient id="paint22_linear_1_41696" x1="1359.12" y1="279.407" x2="1382.74" y2="254.902" gradientUnits="userSpaceOnUse">
<stop stop-color="white"/>
<stop offset="1" stop-color="#D9D9D9" stop-opacity="0"/>
</linearGradient>
<linearGradient id="paint23_linear_1_41696" x1="1401.09" y1="279.407" x2="1424.7" y2="254.902" gradientUnits="userSpaceOnUse">
<stop stop-color="white"/>
<stop offset="1" stop-color="#D9D9D9" stop-opacity="0"/>
</linearGradient>
<linearGradient id="paint24_linear_1_41696" x1="1443.05" y1="279.407" x2="1466.67" y2="254.902" gradientUnits="userSpaceOnUse">
<stop stop-color="white"/>
<stop offset="1" stop-color="#D9D9D9" stop-opacity="0"/>
</linearGradient>
<linearGradient id="paint25_linear_1_41696" x1="806.279" y1="279.407" x2="829.898" y2="254.902" gradientUnits="userSpaceOnUse">
<stop stop-color="white"/>
<stop offset="1" stop-color="#D9D9D9" stop-opacity="0"/>
</linearGradient>
<linearGradient id="paint26_linear_1_41696" x1="848.247" y1="279.407" x2="871.866" y2="254.902" gradientUnits="userSpaceOnUse">
<stop stop-color="white"/>
<stop offset="1" stop-color="#D9D9D9" stop-opacity="0"/>
</linearGradient>
<linearGradient id="paint27_linear_1_41696" x1="890.215" y1="279.407" x2="913.833" y2="254.902" gradientUnits="userSpaceOnUse">
<stop stop-color="white"/>
<stop offset="1" stop-color="#D9D9D9" stop-opacity="0"/>
</linearGradient>
<linearGradient id="paint28_linear_1_41696" x1="932.182" y1="279.407" x2="955.801" y2="254.902" gradientUnits="userSpaceOnUse">
<stop stop-color="white"/>
<stop offset="1" stop-color="#D9D9D9" stop-opacity="0"/>
</linearGradient>
<linearGradient id="paint29_linear_1_41696" x1="974.149" y1="279.407" x2="997.768" y2="254.902" gradientUnits="userSpaceOnUse">
<stop stop-color="white"/>
<stop offset="1" stop-color="#D9D9D9" stop-opacity="0"/>
</linearGradient>
<linearGradient id="paint30_linear_1_41696" x1="1016.12" y1="279.407" x2="1039.74" y2="254.902" gradientUnits="userSpaceOnUse">
<stop stop-color="white"/>
<stop offset="1" stop-color="#D9D9D9" stop-opacity="0"/>
</linearGradient>
<linearGradient id="paint31_linear_1_41696" x1="1058.09" y1="279.407" x2="1081.7" y2="254.902" gradientUnits="userSpaceOnUse">
<stop stop-color="white"/>
<stop offset="1" stop-color="#D9D9D9" stop-opacity="0"/>
</linearGradient>
<linearGradient id="paint32_linear_1_41696" x1="1100.05" y1="279.407" x2="1123.67" y2="254.902" gradientUnits="userSpaceOnUse">
<stop stop-color="white"/>
<stop offset="1" stop-color="#D9D9D9" stop-opacity="0"/>
</linearGradient>
<linearGradient id="paint33_linear_1_41696" x1="463.279" y1="279.407" x2="486.898" y2="254.902" gradientUnits="userSpaceOnUse">
<stop stop-color="white"/>
<stop offset="1" stop-color="#D9D9D9" stop-opacity="0"/>
</linearGradient>
<linearGradient id="paint34_linear_1_41696" x1="505.247" y1="279.407" x2="528.866" y2="254.902" gradientUnits="userSpaceOnUse">
<stop stop-color="white"/>
<stop offset="1" stop-color="#D9D9D9" stop-opacity="0"/>
</linearGradient>
<linearGradient id="paint35_linear_1_41696" x1="547.215" y1="279.407" x2="570.833" y2="254.902" gradientUnits="userSpaceOnUse">
<stop stop-color="white"/>
<stop offset="1" stop-color="#D9D9D9" stop-opacity="0"/>
</linearGradient>
<linearGradient id="paint36_linear_1_41696" x1="589.182" y1="279.407" x2="612.801" y2="254.902" gradientUnits="userSpaceOnUse">
<stop stop-color="white"/>
<stop offset="1" stop-color="#D9D9D9" stop-opacity="0"/>
</linearGradient>
<linearGradient id="paint37_linear_1_41696" x1="631.149" y1="279.407" x2="654.768" y2="254.902" gradientUnits="userSpaceOnUse">
<stop stop-color="white"/>
<stop offset="1" stop-color="#D9D9D9" stop-opacity="0"/>
</linearGradient>
<linearGradient id="paint38_linear_1_41696" x1="673.118" y1="279.407" x2="696.737" y2="254.902" gradientUnits="userSpaceOnUse">
<stop stop-color="white"/>
<stop offset="1" stop-color="#D9D9D9" stop-opacity="0"/>
</linearGradient>
<linearGradient id="paint39_linear_1_41696" x1="715.086" y1="279.407" x2="738.705" y2="254.902" gradientUnits="userSpaceOnUse">
<stop stop-color="white"/>
<stop offset="1" stop-color="#D9D9D9" stop-opacity="0"/>
</linearGradient>
<linearGradient id="paint40_linear_1_41696" x1="757.053" y1="279.407" x2="780.672" y2="254.902" gradientUnits="userSpaceOnUse">
<stop stop-color="white"/>
<stop offset="1" stop-color="#D9D9D9" stop-opacity="0"/>
</linearGradient>
<linearGradient id="paint41_linear_1_41696" x1="132.279" y1="279.407" x2="155.898" y2="254.902" gradientUnits="userSpaceOnUse">
<stop stop-color="white"/>
<stop offset="1" stop-color="#D9D9D9" stop-opacity="0"/>
</linearGradient>
<linearGradient id="paint42_linear_1_41696" x1="174.247" y1="279.407" x2="197.866" y2="254.902" gradientUnits="userSpaceOnUse">
<stop stop-color="white"/>
<stop offset="1" stop-color="#D9D9D9" stop-opacity="0"/>
</linearGradient>
<linearGradient id="paint43_linear_1_41696" x1="216.215" y1="279.407" x2="239.833" y2="254.902" gradientUnits="userSpaceOnUse">
<stop stop-color="white"/>
<stop offset="1" stop-color="#D9D9D9" stop-opacity="0"/>
</linearGradient>
<linearGradient id="paint44_linear_1_41696" x1="258.182" y1="279.407" x2="281.801" y2="254.902" gradientUnits="userSpaceOnUse">
<stop stop-color="white"/>
<stop offset="1" stop-color="#D9D9D9" stop-opacity="0"/>
</linearGradient>
<linearGradient id="paint45_linear_1_41696" x1="300.149" y1="279.407" x2="323.768" y2="254.902" gradientUnits="userSpaceOnUse">
<stop stop-color="white"/>
<stop offset="1" stop-color="#D9D9D9" stop-opacity="0"/>
</linearGradient>
<linearGradient id="paint46_linear_1_41696" x1="342.118" y1="279.407" x2="365.737" y2="254.902" gradientUnits="userSpaceOnUse">
<stop stop-color="white"/>
<stop offset="1" stop-color="#D9D9D9" stop-opacity="0"/>
</linearGradient>
<linearGradient id="paint47_linear_1_41696" x1="384.086" y1="279.407" x2="407.705" y2="254.902" gradientUnits="userSpaceOnUse">
<stop stop-color="white"/>
<stop offset="1" stop-color="#D9D9D9" stop-opacity="0"/>
</linearGradient>
<linearGradient id="paint48_linear_1_41696" x1="426.053" y1="279.407" x2="449.672" y2="254.902" gradientUnits="userSpaceOnUse">
<stop stop-color="white"/>
<stop offset="1" stop-color="#D9D9D9" stop-opacity="0"/>
</linearGradient>
</defs>
</svg>
