<svg width="15" height="15" viewBox="0 0 15 15" fill="none" xmlns="http://www.w3.org/2000/svg">
<path d="M7.5 0C3.3646 0 0 3.36463 0 7.5C0 11.6354 3.3646 15 7.5 15C9.50322 15 11.4113 14.1922 12.8279 12.7754C13.0633 12.5399 13.0367 12.1448 12.798 11.9105L11.6143 10.7442C11.8695 10.3946 11.9031 9.96933 11.6925 9.56529C11.4052 9.01363 10.9784 8.57214 10.4248 8.25366C10.2113 8.13032 10.0095 8.07005 9.8085 8.07026C9.73027 8.07026 9.65133 8.07984 9.57453 8.09799C9.31909 8.16024 9.07348 8.27989 8.82386 8.4635C8.74569 8.52212 8.6491 8.55134 8.53802 8.55134C8.40247 8.55134 8.25586 8.50474 8.15533 8.43016C7.42619 7.88665 6.80792 7.26786 6.26441 6.53921C6.15796 6.39583 6.07293 6.08397 6.23058 5.86995C6.41496 5.62061 6.53412 5.37548 6.5961 5.11952C6.6628 4.84374 6.6118 4.5657 6.44091 4.2703C6.12221 3.71572 5.68066 3.28942 5.12904 3.0018C4.95034 2.90868 4.76743 2.86104 4.58504 2.86104C4.28104 2.86104 3.99617 2.99372 3.76177 3.2433C3.54632 3.47275 3.35579 3.71575 3.13615 4.00968C2.93488 4.27887 2.95157 4.58976 2.96578 4.86381L2.96627 4.86948C2.99106 5.21764 3.12099 5.629 3.36365 6.12716C3.77382 6.971 4.35634 7.77221 5.14456 8.57635C5.30658 8.74182 5.95212 9.3876 6.11785 9.54961C6.92245 10.338 7.72363 10.9206 8.56702 11.3307C9.06542 11.5732 9.47681 11.7031 9.82473 11.7281L9.83058 11.7284C9.9022 11.7318 9.97866 11.7357 10.0532 11.7357C10.231 11.7357 10.4587 11.7142 10.6642 11.5705L11.443 12.3379C10.3317 13.2469 8.95489 13.7448 7.50009 13.7448C4.05677 13.7448 1.25533 10.9434 1.25533 7.50006C1.25533 4.05674 4.0568 1.25527 7.50009 1.25527C10.9434 1.25527 13.7449 4.05674 13.7449 7.50006C13.7449 7.8467 14.0259 8.12766 14.3725 8.12766C14.7192 8.12766 15.0001 7.8467 15.0001 7.50006C15 3.36463 11.6354 0 7.5 0Z" fill="#705FFF"/>
</svg>
