<svg width="64" height="42" viewBox="0 0 64 42" fill="none" xmlns="http://www.w3.org/2000/svg">
<path d="M0.829102 38.9317V39.4317H1.3291H21.6795H22.1795V38.9317V20.7711V20.2711H21.6795H12.8666C13.2399 18.303 13.9805 16.3698 15.0943 14.4703C16.4297 12.3872 18.445 10.1349 21.1574 7.71442L21.6305 7.29219L21.1095 6.93061L13.414 1.58925L13.0858 1.36145L12.7912 1.63128C8.42578 5.62949 5.29975 9.64936 3.43999 13.6948L3.43994 13.6947L3.43702 13.7014C1.69644 17.6363 0.829102 21.9282 0.829102 26.5703V38.9317ZM50.3488 40.4116L50.668 40.6318L50.9607 40.3773C55.4441 36.4789 58.5779 32.504 60.3264 28.4469C62.0651 24.4128 62.9324 20.072 62.9324 15.4297V3.06827V2.56827H62.4324H41.911H41.411V3.06827V21.2289V21.7289H41.911H50.8654C50.397 23.7012 49.6069 25.6373 48.4913 27.5381C47.268 29.6221 45.3636 31.9268 42.76 34.4524L42.3224 34.8768L42.8242 35.2229L50.3488 40.4116Z" stroke="#3F8ACF"/>
</svg>
